<svg id="mouse_black_24dp" xmlns="http://www.w3.org/2000/svg" width="37.524" height="51.431" viewBox="0 0 37.524 51.431">
  <path id="Path_824" data-name="Path 824" d="M0,0H37.524V37.524H0Z" transform="translate(0 6.899)" fill="none"/>
  <path id="Path_825" data-name="Path 825" d="M37.47,19.668c-.084-10.3-7.531-18.6-16.735-18.6S4.084,9.372,4,19.668V33.739C4,44.105,11.489,52.5,20.735,52.5s16.735-8.4,16.735-18.762Zm-4.184,0H22.827V5.972C28.7,7.074,33.2,12.773,33.286,19.668ZM18.643,5.972v13.7H8.184C8.267,12.773,12.765,7.074,18.643,5.972ZM33.286,33.739c0,7.763-5.627,14.072-12.551,14.072S8.184,41.5,8.184,33.739V24.358h25.1Z" transform="translate(-1.973 -1.07)" fill="#f5e181"/>
</svg>
