<svg xmlns="http://www.w3.org/2000/svg" width="74.853" height="448.013" viewBox="0 0 74.853 448.013">
  <path id="Tower_Building_1_" data-name="Tower Building (1)" d="M414.112,384.42l-4.7,126.593h53.89L458.625,384.4c.2-.283,3.674-4.756,15.166-4.756,0,0-2.553-5.624-15.668-8.569L454.668,277.6h1.98a3.347,3.347,0,1,0,0-6.695h-2.222l-1.1-24.331c.46-.585,4.055-4.654,15.083-4.654,0,0,.845-5.612-12.269-8.566V185.3h6.54v-8.682h-6.54s3.146-22.215-14.694-33.164c.415.257.867.49,1.26.758h.023s.106-7.543-3.957-9.942a5.662,5.662,0,0,1,.611.343h.015s.4-8.565-1.313-14.249c.023.072.057.124.076.2L436.07,63l-2.078,57.564.019-.045c-1.66,5.684-1.264,14.1-1.264,14.1h.015a5.961,5.961,0,0,1,.592-.328c-4.036,2.41-3.93,9.927-3.93,9.927h.026c.332-.226.72-.43,1.071-.649-17.633,10.987-14.51,33.055-14.51,33.055h-6.548V185.3h6.548v48.051c-13.122,2.953-12.273,8.566-12.273,8.566,11.873,0,15.174,4.767,15.174,4.767h.256l-.86,24.218h-2.233a3.347,3.347,0,0,0,0,6.695h1.992l-3.47,93.478c-13.129,2.946-15.66,8.569-15.66,8.569C410.815,379.649,414.112,384.42,414.112,384.42Z" transform="translate(-398.938 -63)" fill="#52021f"/>
</svg>
