<svg xmlns="http://www.w3.org/2000/svg" xmlns:xlink="http://www.w3.org/1999/xlink" width="1804.234" height="705.646" viewBox="0 0 1804.234 705.646">
  <defs>
    <linearGradient id="linear-gradient" x1="0.5" y1="0.11" x2="0.5" y2="1.061" gradientUnits="objectBoundingBox">
      <stop offset="0" stop-color="#ad381c"/>
      <stop offset="1" stop-color="#ad381c" stop-opacity="0"/>
    </linearGradient>
    <linearGradient id="linear-gradient-2" y1="-162.617" y2="2473.003" xlink:href="#linear-gradient"/>
    <linearGradient id="linear-gradient-3" x1="0.5" y1="0.869" x2="0.5" y2="10.936" gradientUnits="objectBoundingBox">
      <stop offset="0" stop-color="#9e331a"/>
      <stop offset="1" stop-color="#ad381c"/>
    </linearGradient>
    <linearGradient id="linear-gradient-5" x1="0.5" y1="-0.012" x2="0.5" y2="0.894" xlink:href="#linear-gradient-3"/>
    <linearGradient id="linear-gradient-6" y1="0.237" y2="1.249" xlink:href="#linear-gradient"/>
    <linearGradient id="linear-gradient-7" x1="0.5" y1="0.061" x2="0.5" y2="0.538" xlink:href="#linear-gradient-3"/>
    <linearGradient id="linear-gradient-8" y1="0.233" y2="0.9" xlink:href="#linear-gradient"/>
  </defs>
  <g id="Group_2580" data-name="Group 2580" transform="translate(-78.442 -161.303)">
    <g id="_2nd_Building" data-name="2nd Building" transform="translate(296.2 224.377)" opacity="0.68">
      <path id="Path_8662" data-name="Path 8662" d="M699.615,369.9a3.469,3.469,0,0,0-3.545-3.383V349.945h1.775v-3.558H676.92V290.714c-.113.057-.254.046-.254-.11V266.013c0-.154.141-.175.254-.126V247.348H683.6V243.8h-3.455V231.571a2.513,2.513,0,0,0-2.427-1.767v-5.585h3a.757.757,0,1,0,0-1.513h-.473c0-5.78-4.146-5.947-4.138-5.936a4.084,4.084,0,0,0-3.822-3.483V210.6a.323.323,0,0,0-.645,0v2.682a4.078,4.078,0,0,0-3.822,3.483,3.749,3.749,0,0,0-.385.044c.044-.008.1-.021.139-.026V188.651h3.013v-1.562h-3.013v-5.623c6.3-8.146,1.187-23.3-13.44-27.817h.018v-3.342h-.891v-2.538h.891v-.94h-3.506s-3.419-2.592-4.177-5.261a13.734,13.734,0,0,1-.329-1.487h.688a.62.62,0,1,0,0-1.238h-.863c-.02-.139-.033-.275-.046-.408h.506a.471.471,0,1,0,0-.94h-.58c-.051-.855-.051-1.436-.051-1.436a2.382,2.382,0,0,0,2.168-2.517,2.329,2.329,0,0,0-2.081-2.284l.008-.1-.044-.771h.58a.471.471,0,1,0,0-.94h-.632l-.031-.529h1.066a.622.622,0,1,0,0-1.243h-1.135l-.57-10.249-.576,10.249h-1.135a.622.622,0,1,0,0,1.243h1.066l-.023.529h-.64a.471.471,0,1,0,0,.94h.58l-.036.771v.1a2.327,2.327,0,0,0-2.081,2.284,2.382,2.382,0,0,0,2.168,2.517s.008.581-.051,1.436h-.58a.471.471,0,1,0,0,.94h.506q-.019.2-.038.408h-.871a.62.62,0,1,0,0,1.238h.694a15.116,15.116,0,0,1-.334,1.487c-.753,2.669-4.177,5.261-4.177,5.261h-3.5v.94h.886v2.538h-.886v3.309c-14.437,4.349-19.112,18.968-13.419,27.851v5.623h-3.016v1.562h3.016v28.141l.082.021a2.8,2.8,0,0,0-.336-.044,4.071,4.071,0,0,0-3.822-3.483V210.6a.314.314,0,0,0-.321-.3.309.309,0,0,0-.316.3v2.682a4.071,4.071,0,0,0-3.822,3.483c0-.01-4.146,0-4.146,5.936h-.475a.757.757,0,1,0,0,1.513h3V229.8a2.519,2.519,0,0,0-2.428,1.767V243.8h-3.455v3.55h6.692v22.32c.113-.049.249-.039.249.116v21.349c0,.152-.136.172-.249.131v34.781H613.3v-5.533h-2.975a2.5,2.5,0,0,0-2.42-1.765V313.16h3a.757.757,0,1,0,0-1.513h-.467c0-5.78-4.146-5.947-4.146-5.942a4.085,4.085,0,0,0-3.822-3.478v-2.682a.323.323,0,0,0-.645,0v2.682a4.085,4.085,0,0,0-3.822,3.478c.008-.005-4.146,0-4.146,5.942h-.467a.757.757,0,1,0,0,1.513h3v5.587a2.5,2.5,0,0,0-2.42,1.765h-4.064a2.494,2.494,0,0,0-2.425-1.765V313.16h3a.757.757,0,1,0,0-1.513H590c0-5.78-4.151-5.947-4.151-5.942a4.077,4.077,0,0,0-3.815-3.478v-2.682a.323.323,0,0,0-.645,0v2.682a4.078,4.078,0,0,0-3.822,3.478s-4.146,0-4.146,5.942h-.468a.757.757,0,1,0,0,1.513h3v5.587a2.511,2.511,0,0,0-2.428,1.765h-4.056a2.5,2.5,0,0,0-2.425-1.765V313.16h3a.757.757,0,1,0,0-1.513h-.473c0-5.78-4.146-5.947-4.146-5.942a4.078,4.078,0,0,0-3.822-3.478v-2.682a.32.32,0,0,0-.64,0v2.682a4.083,4.083,0,0,0-3.823,3.478s-4.143,0-4.143,5.942h-.475a.757.757,0,1,0,0,1.513h3v5.587a2.5,2.5,0,0,0-2.425,1.765H549.03a2.5,2.5,0,0,0-2.42-1.765V313.16h2.995a.757.757,0,1,0,0-1.513h-.467c0-5.78-4.143-5.947-4.143-5.942a4.083,4.083,0,0,0-3.823-3.478v-2.682a.317.317,0,0,0-.324-.306.31.31,0,0,0-.316.306v2.682a4.078,4.078,0,0,0-3.822,3.478s-4.146,0-4.146,5.942h-.473a.757.757,0,1,0,0,1.513h3v5.587a2.5,2.5,0,0,0-2.425,1.765H528.6a2.5,2.5,0,0,0-2.42-1.765,2.631,2.631,0,0,1,.753.113v-5.7h2.243a.757.757,0,1,0,0-1.513h-.468c0-2.738-.935-4.192-1.916-4.989.046.036.1.054.141.1V277.069h.123V266.426h-.123V248.132a4.738,4.738,0,0,1-.632.059,3.54,3.54,0,0,0,.755-.146V241.5a3.541,3.541,0,0,0-.755-.146,3.732,3.732,0,0,1,.632.062V227.255c0-9.2,25.616-32.457-.588-45.087,0-5.906-2.944-8.819-5.9-10.252V163.2c0-1.69-1.3-2.808-3.021-3.381.023.008.049.008.069.015V136.68s.385-4.054-2.944-4.054-2.944,4.054-2.944,4.054v23.152a.609.609,0,0,0,.067-.015c-1.724.573-3.018,1.69-3.018,3.381v8.718c-2.952,1.433-5.9,4.346-5.9,10.252-6.445,3.106-9.746,6.874-11.074,10.92l.01-.044c-18.038-26.587-45.247-32.475-45.247-32.475h.152a3.367,3.367,0,0,0,1.233-2.592,3.618,3.618,0,0,0-7.229,0,3.243,3.243,0,0,0,.036.5c-.026-.018-.049-.031-.074-.049a3.744,3.744,0,0,0,.039-.452,3.541,3.541,0,0,0-3.622-3.447,3.667,3.667,0,0,0-2.451.943c.026-.023.036-.059.062-.082-10.483-6.319-20.419-15.847-20.5-15.926a2.116,2.116,0,0,1,.257.031v-7.239c0-4.7,13.1-12.921-.3-19.374a5.34,5.34,0,0,0-3.008-5.238v-4.459c0-.891-.719-1.454-1.644-1.739.041.015.093.008.134.023V89.632s.2-2.078-1.5-2.078-1.51,2.078-1.51,2.078v11.837c.046-.015.1-.01.146-.023-.927.283-1.649.845-1.649,1.739v4.459a5.335,5.335,0,0,0-3.013,5.238c-13.4,6.453-.3,14.819-.3,19.374v7.239a1.585,1.585,0,0,1,.316-.036s-9.982,9.587-20.517,15.932c.026.021.033.054.059.074a3.67,3.67,0,0,0-2.44-.935,3.532,3.532,0,0,0-3.614,3.447,3.747,3.747,0,0,0,.031.452c-.026.018-.049.031-.074.049a3.245,3.245,0,0,0,.044-.5,3.621,3.621,0,0,0-7.234,0,3.381,3.381,0,0,0,1.23,2.592S342.4,166.431,324.369,192.9c.013.041.015.085.031.128-1.341-4.023-4.637-7.771-11.051-10.861,0-5.906-2.944-8.819-5.9-10.252V163.2c0-1.7-1.308-2.818-3.044-3.388.031.01.067.013.1.023V136.68s.385-4.054-2.952-4.054-2.944,4.054-2.944,4.054v23.152a.614.614,0,0,0,.067-.015c-1.724.573-3.018,1.69-3.018,3.381v8.718c-2.944,1.433-5.9,4.346-5.9,10.252-26.2,12.631-.581,35.891-.581,45.087v14.157a3.567,3.567,0,0,1,.624-.062,3.626,3.626,0,0,0-.945.182v6.476a3.627,3.627,0,0,0,.945.182,4.507,4.507,0,0,1-.624-.059v18.295h-.321v10.643h.321v29.626a1.042,1.042,0,0,1,.11-.074c-.968.784-1.885,2.237-1.885,5.027h-.475a.757.757,0,1,0,0,1.513h2.25v5.7a2.538,2.538,0,0,1,.745-.113,2.5,2.5,0,0,0-2.42,1.765h-4.064a2.5,2.5,0,0,0-2.42-1.765V313.16h3a.757.757,0,1,0,0-1.513h-.467c0-5.78-4.143-5.947-4.143-5.942a4.088,4.088,0,0,0-3.825-3.478v-2.682a.321.321,0,0,0-.642,0v2.682a4.083,4.083,0,0,0-3.822,3.478s-4.146,0-4.146,5.942h-.467a.757.757,0,1,0,0,1.513h3v5.587a2.5,2.5,0,0,0-2.42,1.765h-4.064a2.5,2.5,0,0,0-2.428-1.765V313.16h3a.757.757,0,1,0,0-1.513h-.475c0-5.78-4.143-5.947-4.138-5.942a4.086,4.086,0,0,0-3.827-3.478v-2.682a.312.312,0,0,0-.316-.306.317.317,0,0,0-.324.306v2.682a4.08,4.08,0,0,0-3.822,3.478s-4.146,0-4.146,5.942h-.473a.757.757,0,1,0,0,1.513h3v5.587a2.508,2.508,0,0,0-2.425,1.765h-4.056a2.5,2.5,0,0,0-2.428-1.765V313.16h3a.757.757,0,1,0,0-1.513h-.473c0-5.78-4.146-5.947-4.146-5.942a4.078,4.078,0,0,0-3.822-3.478v-2.682a.315.315,0,0,0-.321-.306.31.31,0,0,0-.316.306v2.682a4.078,4.078,0,0,0-3.822,3.478s-4.146,0-4.146,5.942h-.475a.757.757,0,1,0,0,1.513h3v5.587a2.5,2.5,0,0,0-2.428,1.765h-4.054a2.514,2.514,0,0,0-2.427-1.765V313.16h3a.757.757,0,1,0,0-1.513h-.473c0-5.78-4.146-5.947-4.146-5.942a4.085,4.085,0,0,0-3.822-3.478v-2.682a.323.323,0,0,0-.645,0v2.682a4.085,4.085,0,0,0-3.822,3.478c.005-.005-4.146,0-4.146,5.942h-.467a.757.757,0,1,0,0,1.513h3v5.587a2.5,2.5,0,0,0-2.427,1.765h-2.977v5.533h-.023V288.855h3.853V285.3h-3.853V247.348h6.684V243.8h-3.455V231.571a2.509,2.509,0,0,0-2.42-1.767v-5.585H206.6a.757.757,0,1,0,0-1.513h-.473c0-5.78-4.146-5.947-4.138-5.936a4.086,4.086,0,0,0-3.83-3.483V210.6a.319.319,0,0,0-.637,0v2.682a4.078,4.078,0,0,0-3.822,3.483,3.668,3.668,0,0,0-.383.044c.041-.008.1-.021.136-.026V188.651h3.008v-1.562h-3.008v-5.623c6.306-8.146,1.187-23.3-13.44-27.817h.013v-3.342h-.884v-2.538h.884v-.94h-3.5s-3.424-2.592-4.177-5.261a15.125,15.125,0,0,1-.334-1.487h.694a.62.62,0,1,0,0-1.238h-.866c-.018-.139-.031-.275-.044-.408h.506a.471.471,0,1,0,0-.94h-.581c-.057-.855-.051-1.436-.051-1.436a2.382,2.382,0,0,0,2.168-2.517,2.329,2.329,0,0,0-2.081-2.284l.008-.1-.044-.771h.581a.471.471,0,1,0,0-.94h-.637l-.026-.529H172.7a.622.622,0,1,0,0-1.243h-1.135L171,117.426l-.573,10.249h-1.138a.622.622,0,1,0,0,1.243h1.066l-.026.529H169.7a.471.471,0,1,0,0,.94h.573l-.036.771v.1a2.329,2.329,0,0,0-2.081,2.284,2.382,2.382,0,0,0,2.168,2.517s.005.581-.051,1.436H169.7a.471.471,0,1,0,0,.94h.5l-.039.408h-.871a.62.62,0,1,0,0,1.238h.694a15.125,15.125,0,0,1-.334,1.487c-.753,2.669-4.177,5.261-4.177,5.261h-3.5v.94h.886v2.538h-.886v3.309c-14.437,4.349-19.112,18.968-13.419,27.851v5.623h-3.013v1.562h3.013v28.141l.085.021a2.869,2.869,0,0,0-.337-.044,4.083,4.083,0,0,0-3.825-3.483V210.6a.319.319,0,0,0-.637,0v2.682a4.071,4.071,0,0,0-3.822,3.483c0-.01-4.146,0-4.146,5.936h-.473a.757.757,0,1,0,0,1.513h3V229.8a2.511,2.511,0,0,0-2.428,1.767V243.8h-3.455v3.55H139.2V285.3h-3.861v3.555H139.2v57.533H118.27v3.558H119.7v16.576h.342a3.384,3.384,0,1,0,0,6.761H119.7s.092.036.244.1l.064.028c.154.067.365.162.627.29.049.021.113.057.164.082.262.131.563.29.9.48.082.046.177.108.265.157.339.2.706.426,1.1.686.116.075.241.162.362.244.393.27.809.573,1.243.9.144.11.29.229.437.344.432.347.881.732,1.336,1.143.164.149.329.3.5.455.455.429.917.9,1.382,1.4.177.19.352.372.529.57.462.524.927,1.1,1.39,1.7,3.339,4.31,6.5,10.586,7.881,19.6h-.858a2.322,2.322,0,1,0,0,4.644h1.392c.123,1.657.2,3.378.2,5.194v74.338H677.254V411.309c0-14.385,4.1-23.553,8.508-29.3.509-.665,1.02-1.3,1.531-1.875.149-.164.3-.316.442-.475.491-.529.981-1.033,1.462-1.485.149-.139.293-.272.439-.4.473-.429.938-.827,1.385-1.187.136-.105.272-.213.4-.316q.667-.513,1.271-.925c.116-.077.231-.159.342-.231q.6-.4,1.117-.7c.082-.046.175-.105.254-.149q.516-.289.912-.485c.046-.026.108-.059.154-.08.265-.128.475-.223.632-.29l.062-.028c.152-.064.244-.1.244-.1h-.342A3.462,3.462,0,0,0,699.615,369.9Z" transform="translate(-116.5 -87.554)" fill="url(#linear-gradient)"/>
      <path id="Path_8663" data-name="Path 8663" d="M232.622,113.627a3.49,3.49,0,0,0-.637.123,3.732,3.732,0,0,1,.611-.123h.057a3.755,3.755,0,0,1,.719.144A3.656,3.656,0,0,0,232.622,113.627Z" transform="translate(64.672 -46.651)" fill="url(#linear-gradient-2)"/>
    </g>
    <g id="Left_1_Building" data-name="Left(1) Building" transform="translate(78.442 281.096)">
      <path id="Path_8664" data-name="Path 8664" d="M44.4,158H89.572s9.82-18.064-11.721-26.178l-.152.11c.1-.069.149-.11.149-.11a43.248,43.248,0,0,1-7.714-5.972c-2.492-2.589-2.89-3.9-3.6-4.172V119.9h.385s.552,0,.552-.5a.506.506,0,0,0-.521-.506h-.416v-3.879h.146s.39-.005.39-.362a.362.362,0,0,0-.367-.36h-.17v-4.131a.48.48,0,1,0-.956,0v4.131h-.17a.364.364,0,0,0-.37.36c0,.357.4.362.4.362h.144v3.879h-.416a.506.506,0,0,0-.521.506c0,.5.552.5.552.5h.385v1.772c-.709.267-1.11,1.582-3.6,4.172a43.275,43.275,0,0,1-7.712,5.972s.049.044.134.108c-.085-.064-.139-.108-.139-.108C32.72,139.933,42.538,158,42.538,158Zm33.284-26.058c-.059.044-.116.085-.211.146l-.146.082C77.468,132.083,77.6,132,77.684,131.939Zm-.668.406c-.044.023-.064.039-.11.062-.028.018-.08.036-.11.054C76.87,132.422,76.952,132.381,77.016,132.345Zm-.948.46c-.092.041-.149.077-.249.121s-.221.075-.316.113C75.706,132.959,75.9,132.882,76.068,132.8Zm-1.269.488c-.177.059-.308.118-.5.18s-.424.113-.637.172C74.08,133.529,74.447,133.411,74.8,133.293Zm-1.372.414c-.527.136-1.089.265-1.726.383-.067.01-.144.018-.213.031C72.2,134,72.844,133.858,73.427,133.706Zm-7.478.845c1.025,0,1.957-.044,2.833-.113-.08.008-.146.018-.226.023-.807.059-1.677.09-2.607.09-.858,0-1.654-.031-2.407-.074-.146-.01-.275-.026-.416-.039C64,134.508,64.927,134.551,65.95,134.551Zm-5.543-.439-.013,0c-.673-.11-1.259-.249-1.808-.393C59.135,133.86,59.733,133.994,60.406,134.112Zm-2.153-.485c-.154-.044-.329-.085-.475-.128-.175-.054-.293-.111-.455-.164C57.617,133.431,57.912,133.531,58.254,133.627Zm-1.744-.588c-.077-.031-.182-.062-.254-.092-.108-.046-.17-.085-.27-.131C56.147,132.889,56.322,132.961,56.509,133.038Zm-1.148-.527c-.051-.026-.134-.062-.182-.087-.072-.041-.11-.069-.175-.105C55.107,132.378,55.238,132.447,55.361,132.512Zm-.627-.357c-.036-.023-.1-.056-.128-.08-.082-.054-.128-.09-.18-.128C54.5,132,54.616,132.078,54.734,132.155Z" transform="translate(-18.276 -109.634)" fill="url(#linear-gradient-3)"/>
      <path id="Path_8665" data-name="Path 8665" d="M171.984,158h45.17s9.818-18.064-11.724-26.178c0,0-.054.044-.136.105.082-.062.134-.105.134-.105a43.248,43.248,0,0,1-7.714-5.972c-2.494-2.589-2.89-3.9-3.6-4.172V119.9h.388s.552,0,.552-.5a.506.506,0,0,0-.521-.506h-.419v-3.879h.146s.393-.005.393-.362a.364.364,0,0,0-.37-.36h-.17v-4.131a.479.479,0,1,0-.953,0v4.131h-.17a.364.364,0,0,0-.37.36c0,.357.393.362.393.362h.146v3.879h-.416a.508.508,0,0,0-.524.506c0,.5.552.5.552.5h.388v1.772c-.709.267-1.11,1.582-3.6,4.172a43.247,43.247,0,0,1-7.714,5.972l.152.113c-.092-.067-.154-.113-.154-.113C160.294,139.933,170.117,158,170.117,158Zm33.274-26.047c-.051.039-.1.072-.175.126-.033.023-.1.056-.134.082C205.07,132.08,205.189,132,205.258,131.949Zm-.575.37c-.062.036-.1.064-.172.105-.051.028-.136.064-.193.092C204.446,132.447,204.58,132.378,204.682,132.319Zm-.956.486c-.105.049-.172.092-.29.141-.08.033-.2.067-.28.1C203.362,132.964,203.555,132.884,203.727,132.8Zm-1.351.524c-.167.057-.288.116-.467.17-.146.044-.324.087-.48.131C201.777,133.531,202.078,133.431,202.376,133.329Zm-1.269.388c-.55.144-1.141.283-1.814.393h-.01C199.956,133.994,200.557,133.86,201.107,133.716Zm-7.37.835c1.022,0,1.955-.044,2.823-.113-.141.013-.27.028-.416.039-.75.044-1.549.074-2.407.074-.93,0-1.8-.031-2.6-.09-.08-.005-.146-.015-.223-.021C191.785,134.508,192.717,134.551,193.737,134.551Zm-5.546-.434c-.064-.01-.139-.018-.2-.028-.64-.118-1.2-.247-1.729-.383C186.842,133.855,187.479,134,188.191,134.117Zm-2.165-.475c-.213-.057-.442-.11-.637-.17s-.316-.118-.488-.177C185.247,133.413,185.609,133.531,186.025,133.642Zm-1.868-.614c-.085-.033-.205-.069-.285-.1s-.144-.072-.229-.11C183.8,132.884,183.976,132.956,184.158,133.028Zm-1.272-.57c-.028-.015-.077-.036-.105-.051-.046-.023-.069-.039-.11-.062Zm-.524-.288-.149-.085c-.1-.064-.154-.105-.213-.146C182.08,131.993,182.218,132.083,182.362,132.17Z" transform="translate(181.866 -109.634)" fill="url(#linear-gradient-3)"/>
      <path id="Path_8666" data-name="Path 8666" d="M430.156,373.615V311.394c0-9.682,8.192-17.188,8.192-17.188V288.18h-2.243V261.423h2.243V255.4h-6.4V210.454a19.48,19.48,0,0,1,6.4-14.555v-6.021h-2.243V163.116h2.243v-6.024H427.32V135h3.522v-6.54H383.615V135h3.527v22.089H376.108v6.024h2.237v26.762h-2.237V195.9h.149a19.48,19.48,0,0,1,6.4,14.555V255.4h-6.55v6.024h2.237V288.18h-2.237v6.026s8.2,7.506,8.2,17.188v15.051H102.435V311.394c0-9.682,8.192-17.188,8.192-17.188V288.18h-2.237V261.423h2.237V255.4h-6.545V210.454a19.485,19.485,0,0,1,6.4-14.555h.149v-6.021h-2.237V163.116h2.237v-6.024H99.594V135h3.527v-6.54H55.894V135h3.527v22.089H48.388v6.024H50.63v26.762H48.388V195.9a19.48,19.48,0,0,1,6.4,14.555V255.4h-6.4v6.024H50.63V288.18H48.388v6.026s8.194,7.506,8.194,17.188v62.221H31.729l1.608,3.08v14.026l1.952,3.185v28.5H33.337V436.43l1.952,3.188V467.9H33.337v14.023s18.141,4.169,18.141,16H48.084v5.664h4.223v5.662H48.084v5.659h3.393V665.949H435.26V514.912h3.393v-5.659H434.43v-5.662h4.223v-5.664H435.26c0-11.832,18.138-16,18.138-16V467.9h-1.952V439.618l1.952-3.188V422.4h-1.952v-28.5l1.952-3.185V376.7l1.608-3.08Z" transform="translate(-31.729 -80.095)" fill="url(#linear-gradient-5)"/>
    </g>
    <path id="Path_8667" data-name="Path 8667" d="M1036.413,400.4a6.758,6.758,0,1,0-13.517,0,6.752,6.752,0,0,0-6.758-6.758V389.6a3.034,3.034,0,0,0,3.045-3.027,3,3,0,0,0-2.6-2.947c5.088-13.585,13.1-49.542-35.078-67.691,0,0-12.77-7.6-21.534-16.68-6.954-7.229-8.07-10.893-10.055-11.648v-4.94H951s1.534-.012,1.534-1.4a1.422,1.422,0,0,0-1.448-1.419h-1.167V269.027h.415s1.087-.015,1.087-1.01a1,1,0,0,0-1.031-1h-.471V255.481a1.338,1.338,0,1,0-2.666,0v11.538h-.468a1,1,0,0,0-1.036,1c0,1,1.1,1.01,1.1,1.01h.4V279.84h-1.158a1.433,1.433,0,0,0-1.463,1.419c0,1.392,1.549,1.4,1.549,1.4h1.072v4.94c-1.99.755-3.092,4.419-10.061,11.648-8.749,9.083-21.525,16.68-21.525,16.68s.089.074.225.181c-48.434,17.841-40.462,54.053-35.489,67.546a2.994,2.994,0,0,0-2.414,2.911,3.032,3.032,0,0,0,3.036,3.027v4.049a6.756,6.756,0,0,0-6.758,6.758,6.754,6.754,0,1,0-13.508,0,6.757,6.757,0,1,0-13.514,0,6.749,6.749,0,0,0-13.5-.139V279.372a6.62,6.62,0,0,0-.11-1.09c.006.033.027.059.03.089V222.124h2.588v-8.032h-2.588s3.059-18.984,14.032-18.984c0,0,.782-5.186-11.343-7.916V142.77H842.4v-8.032h-6.048s1.587-20.927-13.612-24.688c.346.086.728.139,1.06.243-.272-2.112-1.03-5.082-3.044-6.59.03.021.071.033.1.056h.015s.628-13.052-3.071-16.76c-3.711,3.708-3.08,16.76-3.08,16.76h.015c.033-.027.08-.038.113-.062-2.023,1.507-2.778,4.481-3.044,6.6.326-.1.7-.154,1.042-.24-15.187,3.773-13.6,24.685-13.6,24.685H793.2v8.032h6.054v44.421c-12.131,2.731-11.349,7.916-11.349,7.916,10.982,0,14.029,18.984,14.029,18.984H799.35v8.032h2.586V272.91c.056.018.1.059.154.077a6.367,6.367,0,0,0-5.189.4c.044-.024.08-.062.125-.083-6.613-10.937-18.54-21.353-39-29.06,0,0-34.221-23.222-37.553-37.085v-5.867h1.279s1.842-.027,1.842-1.679a1.7,1.7,0,0,0-1.732-1.688h-1.389V185.068h.492s1.3-.015,1.3-1.2a1.206,1.206,0,0,0-1.232-1.188h-.563L718.9,157.084l-1.581,25.594h-.563a1.2,1.2,0,0,0-1.226,1.188c0,1.188,1.3,1.2,1.3,1.2h.492v12.856h-1.389a1.7,1.7,0,0,0-1.732,1.688c0,1.653,1.839,1.679,1.839,1.679h1.282v5.867c-2.677,15.726-37.554,37.085-37.554,37.085-20.453,7.706-32.377,18.122-38.99,29.06.05.024.089.065.136.089a6.462,6.462,0,0,0-5.422-.338c.027-.009.05-.033.08-.041v-50.89h2.585v-8.032h-2.585s3.05-18.984,14.029-18.984c0,0,.782-5.186-11.349-7.916V142.77H644.3v-8.032h-6.054s1.593-20.93-13.612-24.691c.346.089.729.142,1.06.246-.267-2.115-1.025-5.088-3.047-6.6.036.024.08.036.112.062h.015S623.406,90.708,619.7,87c-3.7,3.708-3.071,16.76-3.071,16.76h.015c.03-.024.071-.036.1-.059-2.014,1.51-2.769,4.478-3.036,6.593.314-.1.681-.148,1.01-.231-15.152,3.788-13.57,24.676-13.57,24.676H595.1v8.032h6.048v44.421c-12.125,2.731-11.34,7.916-11.34,7.916,10.973,0,14.029,18.984,14.029,18.984H601.25v8.032h2.585l.21,57.248V400.4a6.758,6.758,0,1,0-13.517,0,6.754,6.754,0,1,0-13.508,0,6.757,6.757,0,1,0-13.514,0,6.751,6.751,0,0,0-6.752-6.758V389.6a3.031,3.031,0,0,0,0-6.062h-.776c4.854-14.944,9.6-48.331-36.286-65.23.133-.107.222-.181.222-.181s-12.779-7.6-21.528-16.68c-6.96-7.229-8.068-10.893-10.061-11.648v-4.94h1.081s1.549-.012,1.549-1.4a1.433,1.433,0,0,0-1.463-1.419h-1.167V271.219h.406s1.108-.015,1.108-1.01a1.008,1.008,0,0,0-1.043-1h-.471V257.672A1.394,1.394,0,0,0,487,256.218a1.408,1.408,0,0,0-1.342,1.454v11.538h-.471a1,1,0,0,0-1.028,1c0,1,1.093,1.01,1.093,1.01h.406v10.813H484.5a1.424,1.424,0,0,0-1.451,1.419c0,1.392,1.537,1.4,1.537,1.4h1.078v4.94c-1.984.755-3.1,4.419-10.046,11.648-8.763,9.083-21.54,16.68-21.54,16.68-47.667,17.956-40.322,53.348-35.231,67.253a3.013,3.013,0,0,0,1.62,3.986c.53,1.167.889,1.836.889,1.836h.278v2.446a6.75,6.75,0,0,0-6.755,6.758,6.756,6.756,0,0,0-13.36-1.428V578.63h642.829V393.762a6.672,6.672,0,0,0-1.173-.118A6.752,6.752,0,0,0,1036.413,400.4Z" transform="translate(565.525 263.019)" opacity="0.62" fill="url(#linear-gradient-6)"/>
    <g id="Group_2373" data-name="Group 2373" transform="translate(1479.676 285.89)">
      <path id="Path_8668" data-name="Path 8668" d="M599.537,332.431l.041-14.49h.026V466.388H596.8l2.6,7.141h.2v57.459H596.8l2.749,8.479h.057v88.384l-3.722.026,3.666,7.889h.057v27.465H735.341c-1.873-32.146-4.064-89.17-1.477-140.171,1.112-21.773,3.083-42.393,6.3-59.447.424-2.178.845-4.3,1.3-6.36,5.348-24.3,23.633-36.718,40.5-37.3,23-.8,39.811,12.525,45.8,32.539.46,1.526.9,3.111,1.326,4.719.254.95.5,1.927.745,2.908.293,1.161.588,2.3.868,3.5.706,3.026,1.359,6.2,1.991,9.43l.157.989h.033c10.9,57.019,10.55,143.87,9.823,189.2H969.219V635.764l.609,0,3.666-7.889-4.274-.028V539.465l.609,0,2.751-8.479h-3.36V473.529h.694l2.667-7.141h-3.36V327.409l0-.319.059,6.46,7.45-11.978,9.178-14.742V290.958H949.884V247.687H936.855V213.558H918.128V157.191H857.893V143.7h-16.2c-.922-1.1-12.744-14.673-39.11-21.29v-7.288a114.793,114.793,0,0,0-32.839-3.558,113.621,113.621,0,0,0-24.1,3.106v7.6c3.093-.837,6.165-1.482,9.2-1.988-28.719,5.112-43.3,22.166-44.34,23.42H695.052v13.491H636.435v56.367H623.416v34.129H607.13v43.271H582.909V306.83l8.441,12.985ZM778.168,118.908a114.367,114.367,0,0,1,24.342,3.486,124.926,124.926,0,0,0-30.122-3.571c-.619-.005-1.251,0-1.88.01C773.164,118.777,775.73,118.808,778.168,118.908Z" transform="translate(-582.909 -111.5)" fill="url(#linear-gradient-7)"/>
    </g>
    <path id="Tower_Building_1_" data-name="Tower Building (1)" d="M409.272,281.91l-3.2,86.219h36.7L439.589,281.9c.139-.193,2.5-3.239,10.329-3.239,0,0-1.739-3.83-10.671-5.836l-2.353-63.665h1.349a2.28,2.28,0,1,0,0-4.56H436.73l-.75-16.571c.313-.4,2.761-3.17,10.273-3.17,0,0,.575-3.822-8.356-5.834V146.3h4.454v-5.913H437.9s2.142-15.13-10.008-22.587c.283.175.591.334.858.516h.015s.072-5.138-2.695-6.771a3.855,3.855,0,0,1,.416.234h.01s.275-5.834-.894-9.7c.015.049.039.085.051.134L424.228,63l-1.415,39.2.013-.031a36.122,36.122,0,0,0-.861,9.6h.01a4.056,4.056,0,0,1,.4-.223c-2.749,1.641-2.677,6.761-2.677,6.761h.018c.226-.154.491-.293.73-.442-12.009,7.483-9.882,22.513-9.882,22.513h-4.459V146.3h4.459v32.726c-8.937,2.011-8.359,5.834-8.359,5.834,8.087,0,10.334,3.247,10.334,3.247h.175l-.586,16.494h-1.521a2.28,2.28,0,0,0,0,4.56h1.356L409.6,272.824c-8.942,2.006-10.666,5.836-10.666,5.836C407.027,278.66,409.272,281.91,409.272,281.91Z" transform="translate(622.786 98.303)" opacity="0.62" fill="url(#linear-gradient-8)"/>
    <path id="Tower_Building_2_" data-name="Tower Building (2)" d="M615.272,281.91l-3.2,86.219h36.7L645.589,281.9c.139-.193,2.5-3.239,10.329-3.239,0,0-1.739-3.83-10.671-5.836l-2.353-63.665h1.349a2.28,2.28,0,1,0,0-4.56H642.73l-.75-16.571c.313-.4,2.761-3.17,10.273-3.17,0,0,.575-3.822-8.356-5.834V146.3h4.454v-5.913H643.9s2.142-15.13-10.008-22.587c.282.175.591.334.858.516h.015s.072-5.138-2.694-6.771a3.857,3.857,0,0,1,.416.234h.01s.275-5.834-.894-9.7c.015.049.038.085.051.134L630.228,63l-1.416,39.2.013-.031a36.123,36.123,0,0,0-.861,9.6h.01a4.076,4.076,0,0,1,.4-.223c-2.749,1.641-2.677,6.761-2.677,6.761h.018c.226-.154.491-.293.73-.442-12.009,7.483-9.882,22.513-9.882,22.513h-4.459V146.3h4.459v32.726c-8.937,2.011-8.359,5.834-8.359,5.834,8.086,0,10.334,3.247,10.334,3.247h.175l-.586,16.494h-1.521a2.28,2.28,0,0,0,0,4.56h1.356L615.6,272.824c-8.942,2.006-10.666,5.836-10.666,5.836C613.027,278.66,615.272,281.91,615.272,281.91Z" transform="translate(945.956 98.303)" opacity="0.62" fill="url(#linear-gradient-8)"/>
  </g>
</svg>
