<svg xmlns="http://www.w3.org/2000/svg" width="1696.941" height="80.503" viewBox="0 0 1696.941 80.503">
  <g id="Grass" transform="translate(-136.392 -770.342)">
    <g id="Group_2409" data-name="Group 2409" transform="translate(136.392 770.342)">
      <g id="Group_2380" data-name="Group 2380" transform="translate(0)">
        <path id="Path_8685" data-name="Path 8685" d="M13.6,376.6a107.65,107.65,0,0,1,1.356-20.967,118.012,118.012,0,0,1,5.212-20.168,116.713,116.713,0,0,1,8.6-18.732A105.682,105.682,0,0,1,40.48,300.092a138.752,138.752,0,0,0-8.151,18.292,131.119,131.119,0,0,0-5.253,19,129.63,129.63,0,0,0-2.338,19.3,139.21,139.21,0,0,0,.4,19.212Z" transform="translate(-13.528 -300.092)" fill="#52021f"/>
      </g>
      <g id="Group_2381" data-name="Group 2381" transform="translate(4.346 30.879)">
        <path id="Path_8686" data-name="Path 8686" d="M15.22,352.733a128.092,128.092,0,0,1,7.054-11.318c2.584-3.617,5.24-7.172,8.1-10.555,2.885-3.365,5.777-6.7,8.911-9.805,3.1-3.134,6.312-6.139,9.692-8.942-2.24,3.779-4.444,7.529-6.553,11.305-2.073,3.807-4.177,7.547-6.067,11.4-1.916,3.835-3.817,7.645-5.559,11.521-1.811,3.835-3.5,7.717-5.233,11.552Z" transform="translate(-15.22 -312.113)" fill="#52021f"/>
      </g>
      <g id="Group_2382" data-name="Group 2382" transform="translate(25.577 32.01)">
        <path id="Path_8687" data-name="Path 8687" d="M23.485,349.569a92.019,92.019,0,0,0,10.527-6.879,82.045,82.045,0,0,0,9.641-8.474,83.031,83.031,0,0,0,8.4-10.09,90.143,90.143,0,0,0,6.913-11.572,62.961,62.961,0,0,1-3.434,13.4,71.706,71.706,0,0,1-6.2,12.654,73.554,73.554,0,0,1-8.7,11.377,65.6,65.6,0,0,1-11.041,9.41Z" transform="translate(-23.485 -312.553)" fill="#52021f"/>
      </g>
      <g id="Group_2383" data-name="Group 2383" transform="translate(59.932 36.7)">
        <path id="Path_8688" data-name="Path 8688" d="M36.859,349.112a73.465,73.465,0,0,0,7.149-6.954,62.784,62.784,0,0,0,6.263-8.133,64.426,64.426,0,0,0,5.027-9.3,71.486,71.486,0,0,0,3.594-10.345,47.533,47.533,0,0,1,.213,11.313,55.121,55.121,0,0,1-2.327,11.351,56.684,56.684,0,0,1-4.752,10.825,50.24,50.24,0,0,1-7.2,9.618Z" transform="translate(-36.859 -314.379)" fill="#52021f"/>
      </g>
      <g id="Group_2384" data-name="Group 2384" transform="translate(91.804 49.518)">
        <path id="Path_8689" data-name="Path 8689" d="M59.777,345.429a33.71,33.71,0,0,1-4.6-5.759,40.967,40.967,0,0,1-3.275-6.5,39.3,39.3,0,0,1-2-6.848,31.825,31.825,0,0,1-.629-6.954c1.372,1.865,2.741,3.622,4.174,5.266a59.5,59.5,0,0,0,4.447,4.593,58.827,58.827,0,0,0,4.685,3.951c1.557,1.248,3.178,2.358,4.732,3.486Z" transform="translate(-49.266 -319.369)" fill="#52021f"/>
      </g>
    </g>
    <g id="Group_2581" data-name="Group 2581">
      <g id="Group_2385" data-name="Group 2385" transform="translate(387.238 788.786)">
        <path id="Path_8690" data-name="Path 8690" d="M151.94,358.6a27.314,27.314,0,0,0,11.007-7.521,36.448,36.448,0,0,0,7.419-12.441,52.015,52.015,0,0,0,2.79-15.2,93.949,93.949,0,0,0-.876-16.165,71.662,71.662,0,0,1,4.793,15.9,52.209,52.209,0,0,1,.254,17.19,42,42,0,0,1-6.6,16.754,34.142,34.142,0,0,1-14.488,12.215Z" transform="translate(-151.94 -307.272)" fill="#52021f"/>
      </g>
      <g id="Group_2386" data-name="Group 2386" transform="translate(416.463 789.444)">
        <path id="Path_8691" data-name="Path 8691" d="M163.317,360.764a85.835,85.835,0,0,0,6.723-11.783A79.4,79.4,0,0,0,174.877,336a80.767,80.767,0,0,0,2.589-13.928,86.025,86.025,0,0,0,.139-14.542,63.573,63.573,0,0,1,3.786,14.437,72.183,72.183,0,0,1,.56,15.21,73.923,73.923,0,0,1-2.69,15.243,66.642,66.642,0,0,1-6.124,14.447Z" transform="translate(-163.317 -307.528)" fill="#52021f"/>
      </g>
      <g id="Group_2387" data-name="Group 2387" transform="translate(489.33 774.653)">
        <path id="Path_8692" data-name="Path 8692" d="M235.316,372a117.706,117.706,0,0,1-15.451-14.7,129.583,129.583,0,0,1-12.556-17.041,127.659,127.659,0,0,1-9.494-18.69,115.949,115.949,0,0,1-6.132-19.8,154.963,154.963,0,0,0,9.628,18.015,145.817,145.817,0,0,0,11.824,16.294,144.1,144.1,0,0,0,13.771,14.347,157.257,157.257,0,0,0,15.338,12.325Z" transform="translate(-191.683 -301.77)" fill="#52021f"/>
      </g>
      <g id="Group_2388" data-name="Group 2388" transform="translate(477.604 797.405)">
        <path id="Path_8693" data-name="Path 8693" d="M211.578,358.494a73.032,73.032,0,0,1-9.34-10.355A83.069,83.069,0,0,1,195,336.379a81.532,81.532,0,0,1-5.1-12.633,71.443,71.443,0,0,1-2.785-13.119,113.979,113.979,0,0,0,6.355,11.482,100.667,100.667,0,0,0,7.545,10.368,99.177,99.177,0,0,0,8.611,9.163,119.024,119.024,0,0,0,9.4,8.017Z" transform="translate(-187.118 -310.627)" fill="#52021f"/>
      </g>
      <g id="Group_2389" data-name="Group 2389" transform="translate(456.649 807.045)">
        <path id="Path_8694" data-name="Path 8694" d="M178.961,352.7c1.282-2.913,2.574-5.862,3.684-8.909,1.192-3.029,2.158-6.157,3.065-9.348.938-3.193,1.575-6.473,2.2-9.813.581-3.347,1-6.758,1.313-10.249a61.025,61.025,0,0,1,2.615,10.242,71.91,71.91,0,0,1,.989,10.678,73.6,73.6,0,0,1-.627,10.845,62.16,62.16,0,0,1-2.448,10.684Z" transform="translate(-178.961 -314.38)" fill="#52021f"/>
      </g>
    </g>
    <g id="Group_2582" data-name="Group 2582">
      <g id="Group_2391" data-name="Group 2391" transform="translate(1410.51 775.31)">
        <path id="Path_8695" data-name="Path 8695" d="M550.288,375.105a102.338,102.338,0,0,1,2.933-20.658,112.052,112.052,0,0,1,6.864-19.5,110.354,110.354,0,0,1,10.232-17.7,99.9,99.9,0,0,1,13.237-15.218,129.222,129.222,0,0,0-9.851,17.208,122.692,122.692,0,0,0-6.9,18.233,121.077,121.077,0,0,0-3.907,18.819,128.882,128.882,0,0,0-1.043,18.947Z" transform="translate(-550.288 -302.026)" fill="#52021f"/>
      </g>
      <g id="Group_2392" data-name="Group 2392" transform="translate(1423.496 803.331)">
        <path id="Path_8696" data-name="Path 8696" d="M555.343,354.171a72.419,72.419,0,0,1,4.285-12.009,83.726,83.726,0,0,1,6.18-11.028A82.118,82.118,0,0,1,573.5,321.3a70.96,70.96,0,0,1,9.027-8.367c-2.112,3.488-4.056,7-5.782,10.578a108.084,108.084,0,0,0-4.544,10.866,106.962,106.962,0,0,0-3.3,11.071c-.94,3.7-1.629,7.426-2.255,11.128Z" transform="translate(-555.343 -312.934)" fill="#52021f"/>
      </g>
    </g>
    <g id="Group_2583" data-name="Group 2583">
      <g id="Group_2393" data-name="Group 2393" transform="translate(1792.798 776.438)">
        <path id="Path_8697" data-name="Path 8697" d="M740.587,375.431a85.27,85.27,0,0,0-.521-19.7,86.724,86.724,0,0,0-5.06-19.446,87.692,87.692,0,0,0-23.355-33.821A75.619,75.619,0,0,1,728.5,315.684a85.121,85.121,0,0,1,12.985,17.535,86.556,86.556,0,0,1,8.228,20.578,79.032,79.032,0,0,1,2.407,22.354Z" transform="translate(-711.65 -302.465)" fill="#52021f"/>
      </g>
      <g id="Group_2394" data-name="Group 2394" transform="translate(1777.046 802.802)">
        <path id="Path_8698" data-name="Path 8698" d="M733.356,359.75c-1.505-4.19-3.113-8.374-5-12.469a127.36,127.36,0,0,0-13.864-23.666c-2.774-3.74-5.78-7.354-8.973-10.887a86.92,86.92,0,0,1,11.809,8.169A99.145,99.145,0,0,1,727.879,330.9a100.657,100.657,0,0,1,9.065,11.575,88.182,88.182,0,0,1,7.144,12.98Z" transform="translate(-705.518 -312.728)" fill="#52021f"/>
      </g>
    </g>
  </g>
</svg>
