<svg id="Left_Big_Cloud" data-name="Left Big Cloud" xmlns="http://www.w3.org/2000/svg" xmlns:xlink="http://www.w3.org/1999/xlink" width="772.71" height="475.629" viewBox="0 0 772.71 475.629">
  <defs>
    <linearGradient id="linear-gradient" x1="0.025" y1="0.314" x2="0.21" y2="-0.202" gradientUnits="objectBoundingBox">
      <stop offset="0" stop-color="#fff"/>
      <stop offset="1" stop-color="#f8f9f9" stop-opacity="0"/>
    </linearGradient>
    <linearGradient id="linear-gradient-2" x1="0.258" y1="0.559" x2="0.565" y2="-1.554" xlink:href="#linear-gradient"/>
    <linearGradient id="linear-gradient-3" x1="2587.166" y1="0.874" x2="2627.792" y2="0.126" xlink:href="#linear-gradient"/>
  </defs>
  <g id="Group_2367" data-name="Group 2367" transform="translate(0 0)">
    <path id="Path_8659" data-name="Path 8659" d="M466.05-7.617V468.012a182.168,182.168,0,0,0,66.375-259.846,145.655,145.655,0,0,0,86.27-70.634,149.785,149.785,0,0,0,103.666,41.514A150.36,150.36,0,0,0,860.31,88.507a135.426,135.426,0,0,0,76.229,23.345,135.988,135.988,0,0,0,116.353-65.491,115.416,115.416,0,0,0,75.145,27.7A115.916,115.916,0,0,0,1238.76-7.617Z" transform="translate(-466.05 7.617)" opacity="0.42" fill="url(#linear-gradient)" style="mix-blend-mode: overlay;isolation: isolate"/>
    <path id="Path_8660" data-name="Path 8660" d="M586.607-7.617V108.669A145.867,145.867,0,0,0,643.5,50.6,149.794,149.794,0,0,0,747.167,92.116,150.358,150.358,0,0,0,885.116,1.574a135.421,135.421,0,0,0,76.229,23.348,135.516,135.516,0,0,0,88.287-32.539Z" transform="translate(-586.607 7.617)" opacity="0.42" fill="url(#linear-gradient-2)" style="mix-blend-mode: overlay;isolation: isolate"/>
    <path id="Path_8661" data-name="Path 8661" d="M766.8,91.251c.059-1.909.136-3.815.136-5.739q0-3.518-.136-7.005Z" transform="translate(-766.804 142.727)" opacity="0.42" fill="url(#linear-gradient-3)" style="mix-blend-mode: overlay;isolation: isolate"/>
  </g>
</svg>
