<svg xmlns="http://www.w3.org/2000/svg" width="258.205" height="427.093" viewBox="0 0 258.205 427.093">
  <path id="Tree_Right" d="M846.8,206.041l12.1-10.46c-32.433-.236-54.173,18.839-66.824,35.159,23.407-43.433,62.835-58.5,62.835-58.5C822.1,147.1,792.172,184.1,792.172,184.1l2.237-11.028c-23.119,14.758-22.11,43.05-18.141,62.1-19.8-50.436-61.635-41.82-56.4-40.474,5.824,1.5,9.569,7.447,9.569,7.447a49.065,49.065,0,0,0-22.171-2.594c-29.777,3.707-33.04,29.58-33.04,29.58,50.646-14.437,83.414,4.1,98.364,16.309-.1.131-.193.262-.29.4-7.547-4.745-20.15-9.682-40.112-9.856-33.345-.3-60.259,31.714-50.579,24.879s18.955-5.3,18.955-5.3-21.205.611-38.688,29.844c-7.812,13.06-6.895,27.394-3.5,39.264,5.906-10.332,19.114-24.809,44.826-45.105a136.129,136.129,0,0,1,22.338-14.306c-26.569,22.035-30.36,56.159-25.708,49.454a79.068,79.068,0,0,1,12.533-13.835c-4.056,4.583-9.176,14.046-8.891,32.552.473,30.422,33.063,39.2,33.063,39.2S712.927,289.963,772.6,253.453l.044.039a24.517,24.517,0,0,1,5.454-3.345c3.275,4.349,6.44,8.77,9.448,13.286a311.841,311.841,0,0,1,18.858,32.493,369.843,369.843,0,0,1,26.41,69.648C845.8,413.432,861.28,528.93,848.436,590.581l52.018-1.927c0-68.715-21.778-185.708-43.271-231.659-11.149-23.836-23.016-47.335-37.956-68.751a324.093,324.093,0,0,0-24.172-30.638c-2.862-3.2-5.816-6.306-8.808-9.371,62.827,3.712,100.607,41.111,107.763,54.3l.8-.2c2.042-34.042-29.341-47.774-29.341-47.774l11.064-.452c-14.593-15.852-32.027-20.7-48.108-20.581,2.813-.557,5.726-1.071,8.77-1.518,36.52-5.366,76.876,15.88,76.876,15.88C906.794,189.567,846.8,206.041,846.8,206.041Z" transform="translate(-655.869 -163.488)" fill="#52021f"/>
</svg>
