<svg xmlns="http://www.w3.org/2000/svg" width="1674.85" height="80.707" viewBox="0 0 1674.85 80.707">
  <g id="Bg_Clouds" data-name="Bg Clouds" transform="translate(-129.979 -188.513)">
    <path id="Path_8653" data-name="Path 8653" d="M408.879,128.068a38.612,38.612,0,0,0-64.042-13.589,29.529,29.529,0,0,0-37.774-8.164,52.637,52.637,0,0,0-88.644-4.061,38.605,38.605,0,0,0-58.1,15.885,29.487,29.487,0,0,0-47.4,11.441l-61.127,8.767H446.743Z" transform="translate(78.187 124.877)" fill="#fff" opacity="0.3" style="mix-blend-mode: overlay;isolation: isolate"/>
    <path id="Path_8654" data-name="Path 8654" d="M655.712,82.649A38.612,38.612,0,0,0,591.67,69.06,29.529,29.529,0,0,0,553.9,60.9a52.64,52.64,0,0,0-88.644-4.061,38.6,38.6,0,0,0-58.1,15.888,29.487,29.487,0,0,0-47.4,11.441l-61.127,8.767H693.576Z" transform="translate(464.131 153.99)" fill="#fff" opacity="0.3" style="mix-blend-mode: overlay;isolation: isolate"/>
    <path id="Path_8655" data-name="Path 8655" d="M587.9,130.4a38.611,38.611,0,0,1,64.042-13.589,29.53,29.53,0,0,1,37.774-8.164,52.639,52.639,0,0,1,88.644-4.061,38.6,38.6,0,0,1,58.1,15.888,29.489,29.489,0,0,1,47.407,11.441l61.127,8.767H550.042Z" transform="translate(859.836 128.538)" fill="#fff" opacity="0.3" style="mix-blend-mode: overlay;isolation: isolate"/>
  </g>
</svg>
