<svg xmlns="http://www.w3.org/2000/svg" xmlns:xlink="http://www.w3.org/1999/xlink" width="1599.507" height="298.978" viewBox="0 0 1599.507 298.978">
  <defs>
    <linearGradient id="linear-gradient" y1="0.5" x2="1" y2="0.5" gradientUnits="objectBoundingBox">
      <stop offset="0" stop-color="#571d0e"/>
      <stop offset="1" stop-color="#3b1409"/>
    </linearGradient>
    <linearGradient id="linear-gradient-5" x1="0.033" y1="0.491" x2="1.032" y2="0.491" xlink:href="#linear-gradient"/>
  </defs>
  <g id="Birds" transform="translate(-225.002 -191.833)">
    <path id="Path_8671" data-name="Path 8671" d="M546.534,107.485a39.411,39.411,0,0,0-29.348,10.578,53.389,53.389,0,0,0-10.111-7.4A48.324,48.324,0,0,0,490.83,104.9a1.153,1.153,0,0,0-.573,2.222l.013.005a46.009,46.009,0,0,1,23.3,19.97,4.193,4.193,0,0,0,7.383-.074,33.938,33.938,0,0,1,25.626-17.239,1.166,1.166,0,0,0,1.022-1.063A1.153,1.153,0,0,0,546.534,107.485Z" transform="translate(764.861 164.012)" fill="url(#linear-gradient)"/>
    <path id="Path_8672" data-name="Path 8672" d="M745.865,77.485a39.415,39.415,0,0,0-29.348,10.578,53.31,53.31,0,0,0-10.111-7.4A48.29,48.29,0,0,0,690.164,74.9a1.154,1.154,0,0,0-.575,2.222l.013.005A45.984,45.984,0,0,1,712.9,97.1a4.195,4.195,0,0,0,7.385-.074,33.929,33.929,0,0,1,25.624-17.239,1.166,1.166,0,0,0,1.022-1.063A1.151,1.151,0,0,0,745.865,77.485Z" transform="translate(1077.574 116.948)" fill="url(#linear-gradient)"/>
    <path id="Path_8673" data-name="Path 8673" d="M181.589,52.469a39.433,39.433,0,0,0-29.351,10.581,53.291,53.291,0,0,0-10.108-7.4,48.327,48.327,0,0,0-16.245-5.764,1.155,1.155,0,0,0-.573,2.225l.01,0a45.991,45.991,0,0,1,23.3,19.972,4.194,4.194,0,0,0,7.383-.074A33.93,33.93,0,0,1,181.63,54.765a1.153,1.153,0,0,0-.041-2.3Z" transform="translate(806.625 416.563)" fill="url(#linear-gradient)"/>
    <path id="Path_8675" data-name="Path 8675" d="M569.284,52.735a39.411,39.411,0,0,0-29.348,10.578,53.389,53.389,0,0,0-10.111-7.4,48.323,48.323,0,0,0-16.245-5.762,1.153,1.153,0,0,0-.573,2.222l.013.005a46.01,46.01,0,0,1,23.3,19.97,4.193,4.193,0,0,0,7.383-.074,33.938,33.938,0,0,1,25.626-17.239,1.166,1.166,0,0,0,1.022-1.063A1.153,1.153,0,0,0,569.284,52.735Z" transform="translate(914.891 348.91)" fill="url(#linear-gradient)"/>
    <path id="Path_8676" data-name="Path 8676" d="M128.673,138.909A39.424,39.424,0,0,0,100,151.216a53.4,53.4,0,0,0-10.532-6.792,48.3,48.3,0,0,0-16.558-4.786,1.154,1.154,0,0,0-.442,2.253l.013,0A46.016,46.016,0,0,1,96.93,160.446a4.195,4.195,0,0,0,7.367-.514A33.932,33.932,0,0,1,128.852,141.2a1.154,1.154,0,0,0-.18-2.291Z" transform="translate(153.347 217.383)" fill="url(#linear-gradient-5)"/>
  </g>
</svg>
