<svg xmlns="http://www.w3.org/2000/svg" width="248.816" height="413.202" viewBox="0 0 248.816 413.202">
  <path id="Men_Dancing" d="M259.045,226.654c-.478-.358-.955-.714-1.435-1.072-.629-1.893-.56-3.366,1.423-4.677,8.65-5.719,12.384-18.962,8.212-27.717-3.147-6.605-6.976-13.33-.876-20.4l5.229-.373a170.388,170.388,0,0,1,28.175,11.815l.3.48.562-.107c7.727,8.225,6.73,13.014-3.8,17.231a74.594,74.594,0,0,1-10.576,3.152c-9.058,2.15-7.175,11.126-10.431,16.83-2.672,4.68,2.134,6.774,4.879,9.518,10.5,10.514,23.376,17.977,33.145,29.906,9.379,11.452,20.888,22.373,35.84,27.906,5.941,2.2,12.23,2.62,16.41-1.244,3-2.776,1.214-8.242-1.219-12.688a22.609,22.609,0,0,1-2.413-16.039l1.692-2.082c2.764-4.172,4.341-9.133,8.312-12.5a.881.881,0,0,0,1-.259c1.555,0,2.993-.271,3.933-1.7l-.072.117c6.371-3.257,12.282.037,18.34,1.279,15.527,6.471,16.173,9.941,7.182,23.311-5.491,8.168-9.008,17.6-17.231,23.878-2.426,1.853.388,3.732,1.324,5.483,4.632,8.68,14.029,10.14,21.644,14.3a159.757,159.757,0,0,0,29.642,39.467c8.879,8.653,17.169,18.208,28.588,25.65.134-2.3.127-3.744.316-5.167,1.321-10.016,4.63-11.812,13.355-7.068a81.891,81.891,0,0,1,22.157,17.848c5.963,6.722,4.04,12.439-5.035,14.191-4.762.92-9.767.8-14.661.754-4.115-.035-6.61.781-5.627,5.71,1.858,9.324-6.6,12.347-11.544,16.887-2.528,2.321-6.55-1.993-9.352-4.222-2.338-1.861-5.075-3.754-5.045-7.269.005-.649.97-1.515,1.7-1.906,9.638-5.185,10.675-7.862,7.133-19.987-4.085,3.819-6.065,8.466-8.16,13.6-4.545-6.981-8.946-13.743-13.347-20.5-10.245-16.129-24.839-28.018-39.171-40.159-2.371-2.008-4.028-5.9-8.274-2.819-4.018,2.916-4.03,6.346-2.174,10.486,3.744,8.344,9.688,14.748,16.927,20.142,9.511,7.083,20.557,10.392,31.832,13.181a8.748,8.748,0,0,1-2.311,8.516c-1.013,1.055-3.08,2.137-2.159,3.63,7.16,11.583-4,12.049-10.178,16.469,8.814,7.707,18.738,13.989,25.933,23.311,4.528,5.869,9.314,11.534,12.347,18.323,2.645,5.924,5.727,12.907.806,18.241-5.625,6.1-12.362,12.337-22.376,7.844-3.615-1.622-7.618-3.087-8.69,3.247-.3,1.749-2.326,2.023-3.834,1.493-10.474-3.7-7.526,3.112-6.662,8.386,1.025,6.267,3.687,11.879,6.722,17.517-11.822-5.54-17.151-16.6-23.886-26.672-4.294-6.426-4.145-12.447-1.366-18.691,1.413-3.174,4.374-5.657,6.625-8.439-14.382-5-14.22-4.916-21.025,8.207-6.543,12.623-7.371,24.851,2.329,36.123,5.518,6.411,5.421,11.081-2.182,15.36-2.63,1.48-4.826,3.732-7.341,5.727,11.917,5.812,17.713,26.142,9.133,36.225-7.523,8.839-10.476,17.442-6.854,28.326a4.693,4.693,0,0,0-.236,1.6,3.061,3.061,0,0,1-1.784.169l-1.829.045-1.739.784-2.005.055-1.868.005.012-.687-1.831-.03-5.5.008-1.9,0-1.851.642a2.116,2.116,0,0,0-1.786.022q-7.419-.34-14.837-.677l-2.013-3.883c1.632-.694,3.259-1.4,4.9-2.077,9.767-4.01,10.3-5.742,4-14.524-2.428-3.381-3.018-7.14-3.217-11.088,1.212-2.953,1.883-26.306.212-27.792q-1-1.9-1.988-3.792l-1.241-1.948c-4.65-6.287-9.008-12.738-11.484-20.256q-.049-2.706-.092-5.416c.388-4.319.465-8.5-1.836-12.524-6.1-10.658-6.864-22.2-4.8-34.009,1.692-9.69.749-19.306-.313-29.563-5.919,14.168-18.611,20.087-30.264,27.418C290.9,449.654,284.741,455,287,464.832a4.832,4.832,0,0,1-2.506-.372c-5.63-1.764-10.352-24.87-.041-31.042-2.376-4.821-13.934-6.361-10.782-8.1,9.591-5.287-2.9-18.064-.3-20.425,1.916-1.739,3.14-1.107,5.267.649,11.934,9.852,30.57,10.1,42.574,1.356,4.931-3.595,5.068-6.167-.545-8.936-5.854-2.891-21.884-8.72-22.486-8.787-1.117-4.864,5.6-7.187,8.81-9.737,5.55-4.411,22.351-29.157,24.587-36.312,1.508-4.816,3.2-21.676,3.232-24.727.1-3.361-2.182-5.625-3.764-8.217-7.939-13.016-20.012-22.017-31.093-31.969-8.359-7.508-15.656-16.335-26.112-21.273v.08c-4.366-2.928-4.145-6.672-2.269-11,1.254-2.893,3.381-5.894-.1-9.036C267.459,233.366,264.479,228.555,259.045,226.654Z" transform="translate(-257.258 -172.417)" fill="#52021f"/>
</svg>
