<svg width="1412" height="967" viewBox="0 0 1412 967" fill="none" xmlns="http://www.w3.org/2000/svg">
<path opacity="0.62" d="M1060.33 565.118L1052.8 768H1139.18L1131.69 565.094C1132.02 564.64 1137.57 557.473 1156 557.473C1156 557.473 1151.91 548.46 1130.88 543.74L1125.35 393.93H1128.52C1129.94 393.93 1131.31 393.364 1132.32 392.358C1133.32 391.352 1133.89 389.987 1133.89 388.564C1133.89 387.142 1133.32 385.777 1132.32 384.771C1131.31 383.765 1129.94 383.199 1128.52 383.199H1124.96L1123.19 344.206C1123.93 343.265 1129.69 336.747 1147.37 336.747C1147.37 336.747 1148.73 327.753 1127.71 323.019V246.014H1138.19V232.1H1127.71C1127.71 232.1 1132.76 196.497 1104.16 178.95C1104.82 179.362 1105.55 179.736 1106.18 180.164H1106.21C1106.21 180.164 1106.38 168.074 1099.87 164.231C1100.21 164.395 1100.54 164.578 1100.85 164.782H1100.87C1100.87 164.782 1101.52 151.054 1098.77 141.957C1098.81 142.072 1098.86 142.157 1098.89 142.272L1095.53 50L1092.2 142.242L1092.23 142.169C1090.55 149.574 1089.87 157.172 1090.21 164.758H1090.23C1090.53 164.566 1090.85 164.391 1091.17 164.234C1084.7 168.095 1084.87 180.143 1084.87 180.143H1084.91C1085.44 179.781 1086.07 179.454 1086.63 179.103C1058.36 196.711 1063.37 232.078 1063.37 232.078H1052.88V246.014H1063.37V323.021C1042.34 327.753 1043.7 336.749 1043.7 336.749C1062.73 336.749 1068.02 344.39 1068.02 344.39H1068.43L1067.05 383.202H1063.47C1062.05 383.202 1060.68 383.767 1059.68 384.773C1058.67 385.779 1058.11 387.144 1058.11 388.567C1058.11 389.99 1058.67 391.354 1059.68 392.361C1060.68 393.367 1062.05 393.932 1063.47 393.932H1066.66L1061.1 543.738C1040.06 548.458 1036 557.47 1036 557.47C1055.05 557.47 1060.33 565.118 1060.33 565.118Z" fill="url(#paint0_linear_102_2)"/>
<path opacity="0.62" d="M277.332 565.118L269.801 768H356.18L348.689 565.094C349.016 564.64 354.573 557.473 373 557.473C373 557.473 368.907 548.46 347.884 543.74L342.346 393.93H345.521C346.944 393.93 348.309 393.364 349.315 392.358C350.322 391.352 350.887 389.987 350.887 388.564C350.887 387.142 350.322 385.777 349.315 384.771C348.309 383.765 346.944 383.199 345.521 383.199H341.96L340.194 344.206C340.931 343.265 346.693 336.747 364.374 336.747C364.374 336.747 365.727 327.753 344.706 323.019V246.014H355.19V232.1H344.713C344.713 232.1 349.755 196.497 321.158 178.95C321.822 179.362 322.549 179.736 323.177 180.164H323.213C323.213 180.164 323.382 168.074 316.872 164.231C317.209 164.395 317.536 164.578 317.851 164.782H317.874C317.874 164.782 318.522 151.054 315.77 141.957C315.806 142.072 315.86 142.157 315.89 142.272L312.534 50L309.201 142.242L309.232 142.169C307.55 149.574 306.868 157.172 307.205 164.758H307.229C307.532 164.566 307.847 164.391 308.17 164.234C301.7 168.095 301.869 180.143 301.869 180.143H301.912C302.444 179.781 303.067 179.454 303.63 179.103C275.365 196.711 280.371 232.078 280.371 232.078H269.876V246.014H280.371V323.021C259.336 327.753 260.696 336.749 260.696 336.749C279.728 336.749 285.019 344.39 285.019 344.39H285.431L284.052 383.202H280.472C279.049 383.202 277.684 383.767 276.677 384.773C275.671 385.779 275.106 387.144 275.106 388.567C275.106 389.99 275.671 391.354 276.677 392.361C277.684 393.367 279.049 393.932 280.472 393.932H283.664L278.104 543.738C257.058 548.458 253 557.47 253 557.47C272.048 557.47 277.332 565.118 277.332 565.118Z" fill="url(#paint1_linear_102_2)"/>
<g filter="url(#filter0_i_102_2)">
<path d="M1407.27 679.473C1407.22 677.263 1406.29 675.165 1404.69 673.639C1403.09 672.113 1400.95 671.283 1398.74 671.332V631.451H1403.01V622.889H1352.66V488.91C1352.38 489.047 1352.04 489.021 1352.04 488.645V429.466C1352.04 429.096 1352.38 429.045 1352.66 429.163V384.549H1368.73V376.01H1360.42V346.581C1360.03 345.338 1359.25 344.253 1358.2 343.487C1357.15 342.721 1355.88 342.314 1354.58 342.329V328.888H1361.8C1362.04 328.897 1362.28 328.856 1362.51 328.769C1362.74 328.681 1362.95 328.549 1363.13 328.379C1363.3 328.209 1363.44 328.005 1363.54 327.78C1363.63 327.555 1363.68 327.312 1363.68 327.067C1363.68 326.823 1363.63 326.58 1363.54 326.355C1363.44 326.13 1363.3 325.926 1363.13 325.756C1362.95 325.586 1362.74 325.454 1362.51 325.366C1362.28 325.279 1362.04 325.238 1361.8 325.247H1360.66C1360.66 311.337 1350.68 310.935 1350.7 310.962C1350.37 308.718 1349.27 306.657 1347.6 305.13C1345.92 303.602 1343.77 302.701 1341.5 302.58V296.114C1341.49 295.915 1341.4 295.729 1341.26 295.592C1341.12 295.456 1340.92 295.379 1340.73 295.379C1340.53 295.379 1340.34 295.456 1340.19 295.592C1340.05 295.729 1339.96 295.915 1339.95 296.114V302.568C1337.68 302.686 1335.53 303.586 1333.85 305.115C1332.18 306.643 1331.08 308.705 1330.75 310.95C1330.44 310.969 1330.13 311.004 1329.83 311.056C1329.93 311.036 1330.07 311.005 1330.16 310.993V243.293H1337.41V239.534H1330.16V226.002C1345.32 206.398 1333.02 169.93 1297.82 159.059H1297.86V151.017H1295.72V144.909H1297.86V142.647H1289.42C1289.42 142.647 1281.19 136.409 1279.37 129.986C1279.04 128.809 1278.78 127.614 1278.58 126.408H1280.23C1280.44 126.419 1280.64 126.389 1280.83 126.32C1281.02 126.25 1281.2 126.142 1281.34 126.003C1281.49 125.863 1281.61 125.695 1281.69 125.508C1281.77 125.322 1281.81 125.121 1281.81 124.918C1281.81 124.715 1281.77 124.514 1281.69 124.328C1281.61 124.141 1281.49 123.973 1281.34 123.833C1281.2 123.694 1281.02 123.586 1280.83 123.516C1280.64 123.447 1280.44 123.417 1280.23 123.428H1278.16C1278.11 123.094 1278.08 122.767 1278.05 122.447H1279.26C1279.42 122.457 1279.57 122.435 1279.72 122.383C1279.87 122.33 1280 122.249 1280.11 122.143C1280.23 122.037 1280.32 121.908 1280.38 121.766C1280.44 121.624 1280.47 121.471 1280.47 121.315C1280.47 121.16 1280.44 121.007 1280.38 120.865C1280.32 120.722 1280.23 120.594 1280.11 120.488C1280 120.382 1279.87 120.301 1279.72 120.248C1279.57 120.196 1279.42 120.174 1279.26 120.184H1277.87C1277.75 118.127 1277.75 116.729 1277.75 116.729C1279.23 116.597 1280.61 115.891 1281.58 114.76C1282.56 113.628 1283.05 112.162 1282.96 110.671C1282.94 109.301 1282.42 107.986 1281.5 106.973C1280.58 105.96 1279.32 105.321 1277.96 105.175L1277.97 104.934L1277.87 103.079H1279.26C1279.42 103.089 1279.57 103.067 1279.72 103.015C1279.87 102.963 1280 102.881 1280.11 102.775C1280.23 102.669 1280.32 102.541 1280.38 102.398C1280.44 102.256 1280.47 102.103 1280.47 101.948C1280.47 101.793 1280.44 101.639 1280.38 101.497C1280.32 101.355 1280.23 101.227 1280.11 101.121C1280 101.015 1279.87 100.933 1279.72 100.881C1279.57 100.828 1279.42 100.807 1279.26 100.817H1277.74L1277.67 99.5436H1280.23C1280.44 99.5517 1280.64 99.519 1280.83 99.4475C1281.01 99.3759 1281.19 99.2671 1281.33 99.1274C1281.48 98.9877 1281.59 98.8201 1281.67 98.6346C1281.75 98.4491 1281.79 98.2495 1281.79 98.0479C1281.79 97.8463 1281.75 97.6468 1281.67 97.4613C1281.59 97.2758 1281.48 97.1082 1281.33 96.9685C1281.19 96.8288 1281.01 96.7199 1280.83 96.6484C1280.64 96.5769 1280.44 96.5442 1280.23 96.5523H1277.5L1276.13 71.8878L1274.74 96.5523H1272.01C1271.81 96.5442 1271.61 96.5769 1271.42 96.6484C1271.23 96.7199 1271.06 96.8288 1270.92 96.9685C1270.77 97.1082 1270.66 97.2758 1270.58 97.4613C1270.5 97.6468 1270.46 97.8463 1270.46 98.0479C1270.46 98.2495 1270.5 98.4491 1270.58 98.6346C1270.66 98.8201 1270.77 98.9877 1270.92 99.1274C1271.06 99.2671 1271.23 99.3759 1271.42 99.4475C1271.61 99.519 1271.81 99.5517 1272.01 99.5436H1274.58L1274.52 100.817H1272.98C1272.83 100.807 1272.67 100.828 1272.53 100.881C1272.38 100.933 1272.25 101.015 1272.13 101.121C1272.02 101.227 1271.93 101.355 1271.87 101.497C1271.81 101.639 1271.78 101.793 1271.78 101.948C1271.78 102.103 1271.81 102.256 1271.87 102.398C1271.93 102.541 1272.02 102.669 1272.13 102.775C1272.25 102.881 1272.38 102.963 1272.53 103.015C1272.67 103.067 1272.83 103.089 1272.98 103.079H1274.38L1274.29 104.934V105.175C1272.93 105.32 1271.67 105.959 1270.74 106.972C1269.82 107.985 1269.3 109.301 1269.28 110.671C1269.19 112.162 1269.69 113.628 1270.66 114.76C1271.64 115.891 1273.01 116.597 1274.5 116.729C1274.5 116.729 1274.52 118.127 1274.38 120.184H1272.98C1272.83 120.174 1272.67 120.196 1272.53 120.248C1272.38 120.301 1272.25 120.382 1272.13 120.488C1272.02 120.594 1271.93 120.722 1271.87 120.865C1271.81 121.007 1271.78 121.16 1271.78 121.315C1271.78 121.471 1271.81 121.624 1271.87 121.766C1271.93 121.908 1272.02 122.037 1272.13 122.143C1272.25 122.249 1272.38 122.33 1272.53 122.383C1272.67 122.435 1272.83 122.457 1272.98 122.447H1274.2C1274.17 122.767 1274.14 123.095 1274.11 123.428H1272.01C1271.81 123.417 1271.61 123.447 1271.42 123.516C1271.23 123.586 1271.05 123.694 1270.9 123.833C1270.76 123.973 1270.64 124.141 1270.56 124.328C1270.48 124.514 1270.44 124.715 1270.44 124.918C1270.44 125.121 1270.48 125.322 1270.56 125.508C1270.64 125.695 1270.76 125.863 1270.9 126.003C1271.05 126.142 1271.23 126.25 1271.42 126.32C1271.61 126.389 1271.81 126.419 1272.01 126.408H1273.68C1273.48 127.613 1273.21 128.808 1272.88 129.986C1271.07 136.409 1262.83 142.647 1262.83 142.647H1254.4V144.909H1256.54V151.017H1254.4V158.98C1219.66 169.446 1208.41 204.627 1222.11 226.004V239.536H1214.85V243.295H1222.11V311.017L1222.31 311.068C1222.04 311.016 1221.77 310.981 1221.5 310.962C1221.18 308.716 1220.08 306.652 1218.4 305.123C1216.73 303.594 1214.57 302.695 1212.3 302.58V296.114C1212.29 295.916 1212.21 295.73 1212.06 295.595C1211.92 295.46 1211.73 295.387 1211.53 295.392C1211.33 295.387 1211.14 295.46 1211 295.596C1210.86 295.731 1210.78 295.917 1210.77 296.114V302.568C1208.5 302.683 1206.35 303.582 1204.67 305.111C1202.99 306.64 1201.9 308.704 1201.57 310.95C1201.57 310.926 1191.59 310.95 1191.59 325.235H1190.45C1190.21 325.226 1189.96 325.267 1189.73 325.354C1189.51 325.442 1189.3 325.574 1189.12 325.744C1188.94 325.914 1188.8 326.118 1188.71 326.343C1188.61 326.568 1188.56 326.811 1188.56 327.055C1188.56 327.3 1188.61 327.543 1188.71 327.768C1188.8 327.993 1188.94 328.197 1189.12 328.367C1189.3 328.537 1189.51 328.669 1189.73 328.757C1189.96 328.844 1190.21 328.885 1190.45 328.876H1197.67V342.319C1196.37 342.307 1195.1 342.713 1194.05 343.479C1192.99 344.245 1192.22 345.329 1191.83 346.571V376.01H1183.51V384.553H1199.62V438.267C1199.89 438.149 1200.22 438.173 1200.22 438.546V489.923C1200.22 490.289 1199.89 490.337 1199.62 490.238V573.94H1199.55V560.625H1192.39C1192.01 559.383 1191.24 558.298 1190.19 557.532C1189.14 556.767 1187.87 556.361 1186.57 556.377V542.927H1193.79C1194.03 542.936 1194.28 542.895 1194.51 542.808C1194.74 542.72 1194.94 542.588 1195.12 542.418C1195.3 542.248 1195.44 542.044 1195.53 541.819C1195.63 541.594 1195.68 541.351 1195.68 541.106C1195.68 540.862 1195.63 540.619 1195.53 540.394C1195.44 540.169 1195.3 539.965 1195.12 539.795C1194.94 539.625 1194.74 539.492 1194.51 539.405C1194.28 539.317 1194.03 539.277 1193.79 539.286H1192.67C1192.67 525.376 1182.69 524.974 1182.69 524.986C1182.35 522.745 1181.26 520.687 1179.58 519.162C1177.9 517.637 1175.75 516.738 1173.49 516.616V510.162C1173.48 509.964 1173.39 509.777 1173.25 509.641C1173.1 509.504 1172.91 509.428 1172.71 509.428C1172.52 509.428 1172.32 509.504 1172.18 509.641C1172.04 509.777 1171.95 509.964 1171.94 510.162V516.616C1169.68 516.738 1167.52 517.637 1165.85 519.162C1164.17 520.687 1163.07 522.745 1162.74 524.986C1162.76 524.974 1152.76 524.986 1152.76 539.286H1151.64C1151.39 539.277 1151.15 539.317 1150.92 539.405C1150.69 539.492 1150.48 539.625 1150.31 539.795C1150.13 539.965 1149.99 540.169 1149.9 540.394C1149.8 540.619 1149.75 540.862 1149.75 541.106C1149.75 541.351 1149.8 541.594 1149.9 541.819C1149.99 542.044 1150.13 542.248 1150.31 542.418C1150.48 542.588 1150.69 542.72 1150.92 542.808C1151.15 542.895 1151.39 542.936 1151.64 542.927H1158.86V556.372C1157.56 556.356 1156.29 556.762 1155.24 557.527C1154.19 558.293 1153.42 559.378 1153.03 560.62H1143.25C1142.87 559.375 1142.1 558.287 1141.05 557.521C1139.99 556.755 1138.72 556.351 1137.42 556.372V542.927H1144.64C1144.88 542.936 1145.13 542.895 1145.36 542.808C1145.58 542.72 1145.79 542.588 1145.97 542.418C1146.15 542.248 1146.29 542.044 1146.38 541.819C1146.48 541.594 1146.53 541.351 1146.53 541.106C1146.53 540.862 1146.48 540.619 1146.38 540.394C1146.29 540.169 1146.15 539.965 1145.97 539.795C1145.79 539.625 1145.58 539.492 1145.36 539.405C1145.13 539.317 1144.88 539.277 1144.64 539.286H1143.48C1143.48 525.376 1133.49 524.974 1133.49 524.986C1133.16 522.746 1132.07 520.689 1130.39 519.163C1128.72 517.638 1126.57 516.738 1124.31 516.616V510.162C1124.3 509.964 1124.21 509.777 1124.07 509.641C1123.92 509.504 1123.73 509.428 1123.53 509.428C1123.34 509.428 1123.14 509.504 1123 509.641C1122.86 509.777 1122.77 509.964 1122.76 510.162V516.616C1120.49 516.735 1118.34 517.633 1116.66 519.159C1114.99 520.684 1113.89 522.744 1113.56 524.986C1113.56 524.986 1103.58 524.986 1103.58 539.286H1102.46C1102.21 539.277 1101.97 539.317 1101.74 539.405C1101.51 539.492 1101.3 539.625 1101.13 539.795C1100.95 539.965 1100.81 540.169 1100.71 540.394C1100.62 540.619 1100.57 540.862 1100.57 541.106C1100.57 541.351 1100.62 541.594 1100.71 541.819C1100.81 542.044 1100.95 542.248 1101.13 542.418C1101.3 542.588 1101.51 542.72 1101.74 542.808C1101.97 542.895 1102.21 542.936 1102.46 542.927H1109.68V556.372C1108.37 556.357 1107.1 556.761 1106.05 557.527C1105 558.292 1104.22 559.377 1103.83 560.62H1094.07C1093.69 559.376 1092.91 558.29 1091.86 557.524C1090.81 556.758 1089.54 556.354 1088.24 556.372V542.927H1095.46C1095.7 542.936 1095.94 542.895 1096.17 542.808C1096.4 542.72 1096.61 542.588 1096.79 542.418C1096.96 542.248 1097.1 542.044 1097.2 541.819C1097.29 541.594 1097.34 541.351 1097.34 541.106C1097.34 540.862 1097.29 540.619 1097.2 540.394C1097.1 540.169 1096.96 539.965 1096.79 539.795C1096.61 539.625 1096.4 539.492 1096.17 539.405C1095.94 539.317 1095.7 539.277 1095.46 539.286H1094.32C1094.32 525.376 1084.34 524.974 1084.34 524.986C1084.01 522.744 1082.91 520.684 1081.24 519.159C1079.56 517.633 1077.41 516.735 1075.14 516.616V510.162C1075.14 509.958 1075.06 509.762 1074.92 509.618C1074.77 509.473 1074.58 509.392 1074.37 509.392C1074.17 509.392 1073.97 509.473 1073.83 509.618C1073.68 509.762 1073.6 509.958 1073.6 510.162V516.616C1071.34 516.736 1069.19 517.635 1067.51 519.16C1065.83 520.686 1064.74 522.744 1064.4 524.986C1064.4 524.986 1054.43 524.986 1054.43 539.286H1053.29C1053.04 539.277 1052.8 539.317 1052.57 539.405C1052.34 539.492 1052.13 539.625 1051.96 539.795C1051.78 539.965 1051.64 540.169 1051.55 540.394C1051.45 540.619 1051.4 540.862 1051.4 541.106C1051.4 541.351 1051.45 541.594 1051.55 541.819C1051.64 542.044 1051.78 542.248 1051.96 542.418C1052.13 542.588 1052.34 542.72 1052.57 542.808C1052.8 542.895 1053.04 542.936 1053.29 542.927H1060.51V556.372C1059.21 556.354 1057.94 556.758 1056.88 557.524C1055.83 558.29 1055.06 559.376 1054.67 560.62H1044.89C1044.5 559.378 1043.73 558.293 1042.68 557.527C1041.63 556.762 1040.36 556.356 1039.06 556.372V542.927H1046.27C1046.51 542.936 1046.76 542.895 1046.99 542.808C1047.22 542.72 1047.42 542.588 1047.6 542.418C1047.78 542.248 1047.92 542.044 1048.01 541.819C1048.11 541.594 1048.16 541.351 1048.16 541.106C1048.16 540.862 1048.11 540.619 1048.01 540.394C1047.92 540.169 1047.78 539.965 1047.6 539.795C1047.42 539.625 1047.22 539.492 1046.99 539.405C1046.76 539.317 1046.51 539.277 1046.27 539.286H1045.15C1045.15 525.376 1035.18 524.974 1035.18 524.986C1034.84 522.744 1033.74 520.686 1032.07 519.16C1030.39 517.635 1028.24 516.736 1025.97 516.616V510.162C1025.97 509.962 1025.88 509.772 1025.74 509.634C1025.59 509.496 1025.4 509.421 1025.2 509.426C1025.1 509.424 1025 509.441 1024.91 509.477C1024.82 509.513 1024.73 509.567 1024.66 509.636C1024.59 509.704 1024.53 509.786 1024.5 509.876C1024.46 509.967 1024.44 510.064 1024.43 510.162V516.616C1022.17 516.735 1020.02 517.633 1018.34 519.159C1016.66 520.684 1015.57 522.744 1015.24 524.986C1015.24 524.986 1005.26 524.986 1005.26 539.286H1004.12C1003.88 539.277 1003.63 539.317 1003.4 539.405C1003.18 539.492 1002.97 539.625 1002.79 539.795C1002.61 539.965 1002.47 540.169 1002.38 540.394C1002.28 540.619 1002.23 540.862 1002.23 541.106C1002.23 541.351 1002.28 541.594 1002.38 541.819C1002.47 542.044 1002.61 542.248 1002.79 542.418C1002.97 542.588 1003.18 542.72 1003.4 542.808C1003.63 542.895 1003.88 542.936 1004.12 542.927H1011.34V556.372C1010.04 556.354 1008.77 556.758 1007.72 557.524C1006.66 558.29 1005.89 559.376 1005.51 560.62H995.72C995.338 559.378 994.564 558.293 993.515 557.527C992.465 556.762 991.195 556.356 989.896 556.372C990.51 556.375 991.121 556.466 991.708 556.644V542.927H997.106C997.351 542.936 997.595 542.895 997.824 542.808C998.052 542.72 998.261 542.588 998.437 542.418C998.613 542.248 998.753 542.044 998.849 541.819C998.945 541.594 998.994 541.351 998.994 541.106C998.994 540.862 998.945 540.619 998.849 540.394C998.753 540.169 998.613 539.965 998.437 539.795C998.261 539.625 998.052 539.492 997.824 539.405C997.595 539.317 997.351 539.277 997.106 539.286H995.98C995.98 532.697 993.73 529.198 991.369 527.28C991.48 527.366 991.61 527.41 991.708 527.52V456.073H992.004V430.46H991.708V386.435C991.205 386.517 990.697 386.564 990.188 386.577C990.804 386.527 991.413 386.409 992.004 386.226V370.475C991.413 370.293 990.804 370.175 990.188 370.124C990.698 370.13 991.207 370.18 991.708 370.273V336.194C991.708 314.054 1053.35 258.086 990.293 227.691C990.293 213.478 983.209 206.468 976.095 203.019V182.044C976.095 177.977 972.966 175.287 968.825 173.908C968.88 173.927 968.943 173.927 968.991 173.944V118.223C968.991 118.223 969.917 108.467 961.906 108.467C953.895 108.467 954.821 118.223 954.821 118.223V173.939C954.876 173.93 954.929 173.918 954.982 173.903C950.834 175.282 947.719 177.97 947.719 182.039V203.019C940.615 206.468 933.521 213.478 933.521 227.691C918.011 235.166 910.067 244.234 906.871 253.97L906.895 253.865C863.486 189.882 798.007 175.713 798.007 175.713H798.373C799.296 174.956 800.041 174.004 800.554 172.926C801.067 171.847 801.336 170.669 801.34 169.475C801.241 167.234 800.282 165.118 798.661 163.567C797.041 162.016 794.885 161.151 792.642 161.151C790.399 161.151 788.242 162.016 786.622 163.567C785.001 165.118 784.042 167.234 783.943 169.475C783.941 169.878 783.97 170.28 784.03 170.678C783.967 170.635 783.912 170.604 783.852 170.56C783.905 170.2 783.936 169.837 783.946 169.472C783.886 167.218 782.936 165.078 781.302 163.523C779.668 161.969 777.484 161.125 775.229 161.177C773.05 161.18 770.949 161.988 769.331 163.447C769.393 163.391 769.417 163.305 769.48 163.249C744.252 148.042 720.341 125.113 720.146 124.923C720.354 124.935 720.56 124.96 720.765 124.997V107.577C720.765 96.2659 752.29 76.4819 720.043 60.9525C720.25 58.3663 719.669 55.7779 718.377 53.528C717.085 51.2781 715.142 49.4719 712.804 48.3471V37.6164C712.804 35.4722 711.074 34.1173 708.848 33.4315C708.946 33.4676 709.071 33.4507 709.17 33.4868V5.00077C709.17 5.00077 709.651 0 705.56 0C701.469 0 701.926 5.00077 701.926 5.00077V33.4868C702.037 33.4507 702.167 33.4628 702.278 33.4315C700.047 34.1125 698.309 35.465 698.309 37.6164V48.3471C695.968 49.4688 694.022 51.2739 692.727 53.5243C691.433 55.7747 690.851 58.3647 691.059 60.9525C658.811 76.4819 690.337 96.6148 690.337 107.577V124.997C690.586 124.943 690.841 124.914 691.097 124.911C691.097 124.911 667.075 147.982 641.722 163.252C641.785 163.302 641.802 163.382 641.864 163.43C640.249 161.985 638.159 161.184 635.992 161.18C633.739 161.127 631.557 161.971 629.926 163.526C628.295 165.082 627.349 167.222 627.295 169.475C627.298 169.839 627.323 170.202 627.37 170.563C627.307 170.606 627.252 170.637 627.192 170.681C627.258 170.283 627.293 169.88 627.298 169.477C627.192 167.24 626.229 165.128 624.608 163.582C622.988 162.036 620.833 161.173 618.593 161.173C616.353 161.173 614.199 162.036 612.578 163.582C610.957 165.128 609.994 167.24 609.889 169.477C609.895 170.67 610.163 171.848 610.674 172.926C611.186 174.004 611.928 174.956 612.849 175.715C612.849 175.715 547.625 189.82 504.233 253.518C504.264 253.617 504.269 253.723 504.307 253.826C501.08 244.145 493.148 235.125 477.713 227.689C477.713 213.476 470.628 206.466 463.514 203.017V182.044C463.514 177.953 460.366 175.263 456.189 173.891C456.263 173.915 456.35 173.922 456.429 173.946V118.223C456.429 118.223 457.356 108.467 449.325 108.467C441.295 108.467 442.24 118.223 442.24 118.223V173.939C442.295 173.93 442.349 173.918 442.402 173.903C438.253 175.282 435.139 177.97 435.139 182.039V203.019C428.054 206.468 420.94 213.478 420.94 227.691C357.889 258.088 419.542 314.064 419.542 336.194V370.263C420.037 370.17 420.54 370.12 421.044 370.114C420.27 370.159 419.505 370.306 418.77 370.552V386.137C419.505 386.383 420.27 386.531 421.044 386.575C420.54 386.562 420.039 386.515 419.542 386.433V430.46H418.77V456.073H419.542V527.369C419.626 527.304 419.715 527.244 419.807 527.191C417.477 529.077 415.27 532.574 415.27 539.288H414.127C413.883 539.279 413.639 539.32 413.41 539.407C413.181 539.495 412.973 539.628 412.797 539.798C412.62 539.967 412.48 540.171 412.385 540.396C412.289 540.622 412.239 540.864 412.239 541.109C412.239 541.354 412.289 541.596 412.385 541.821C412.48 542.047 412.62 542.25 412.797 542.42C412.973 542.59 413.181 542.723 413.41 542.81C413.639 542.898 413.883 542.938 414.127 542.929H419.542V556.647C420.123 556.467 420.727 556.376 421.335 556.375C420.036 556.359 418.766 556.764 417.717 557.53C416.667 558.295 415.893 559.38 415.511 560.622H405.731C405.349 559.38 404.575 558.295 403.526 557.53C402.476 556.764 401.206 556.359 399.907 556.375V542.927H407.127C407.371 542.936 407.615 542.895 407.844 542.808C408.073 542.72 408.281 542.588 408.458 542.418C408.634 542.248 408.774 542.044 408.87 541.819C408.965 541.594 409.015 541.351 409.015 541.106C409.015 540.862 408.965 540.619 408.87 540.394C408.774 540.169 408.634 539.965 408.458 539.795C408.281 539.625 408.073 539.492 407.844 539.405C407.615 539.317 407.371 539.277 407.127 539.286H406.003C406.003 525.376 396.033 524.974 396.033 524.986C395.698 522.744 394.599 520.687 392.921 519.162C391.244 517.636 389.091 516.737 386.828 516.616V510.162C386.828 509.957 386.746 509.761 386.601 509.616C386.457 509.471 386.26 509.39 386.055 509.39C385.85 509.39 385.654 509.471 385.509 509.616C385.364 509.761 385.283 509.957 385.283 510.162V516.616C383.02 516.737 380.867 517.636 379.191 519.161C377.515 520.687 376.418 522.744 376.085 524.986C376.085 524.986 366.107 524.986 366.107 539.286H364.984C364.739 539.277 364.495 539.317 364.266 539.405C364.038 539.492 363.829 539.625 363.653 539.795C363.477 539.965 363.337 540.169 363.241 540.394C363.145 540.619 363.096 540.862 363.096 541.106C363.096 541.351 363.145 541.594 363.241 541.819C363.337 542.044 363.477 542.248 363.653 542.418C363.829 542.588 364.038 542.72 364.266 542.808C364.495 542.895 364.739 542.936 364.984 542.927H372.203V556.372C370.904 556.356 369.635 556.762 368.585 557.527C367.535 558.293 366.761 559.378 366.379 560.62H356.599C356.216 559.375 355.44 558.287 354.386 557.521C353.333 556.756 352.059 556.352 350.756 556.372V542.927H357.976C358.22 542.936 358.464 542.895 358.693 542.808C358.922 542.72 359.13 542.588 359.307 542.418C359.483 542.248 359.623 542.044 359.719 541.819C359.814 541.594 359.864 541.351 359.864 541.106C359.864 540.862 359.814 540.619 359.719 540.394C359.623 540.169 359.483 539.965 359.307 539.795C359.13 539.625 358.922 539.492 358.693 539.405C358.464 539.317 358.22 539.277 357.976 539.286H356.833C356.833 525.376 346.862 524.974 346.875 524.986C346.54 522.743 345.441 520.684 343.762 519.159C342.084 517.634 339.93 516.735 337.665 516.616V510.162C337.661 509.964 337.579 509.775 337.436 509.637C337.294 509.499 337.103 509.423 336.904 509.426C336.704 509.421 336.509 509.496 336.363 509.634C336.217 509.772 336.132 509.962 336.125 510.162V516.616C333.861 516.735 331.708 517.634 330.032 519.16C328.355 520.685 327.258 522.744 326.927 524.986C326.927 524.986 316.949 524.986 316.949 539.286H315.811C315.566 539.277 315.322 539.317 315.094 539.405C314.865 539.492 314.657 539.625 314.48 539.795C314.304 539.965 314.164 540.169 314.068 540.394C313.972 540.619 313.923 540.862 313.923 541.106C313.923 541.351 313.972 541.594 314.068 541.819C314.164 542.044 314.304 542.248 314.48 542.418C314.657 542.588 314.865 542.72 315.094 542.808C315.322 542.895 315.566 542.936 315.811 542.927H323.031V556.372C321.73 556.357 320.459 556.762 319.408 557.528C318.356 558.293 317.58 559.377 317.195 560.62H307.434C307.051 559.375 306.275 558.287 305.221 557.521C304.167 556.756 302.893 556.352 301.591 556.372V542.927H308.81C309.055 542.936 309.299 542.895 309.528 542.808C309.756 542.72 309.965 542.588 310.141 542.418C310.317 542.248 310.458 542.044 310.553 541.819C310.649 541.594 310.698 541.351 310.698 541.106C310.698 540.862 310.649 540.619 310.553 540.394C310.458 540.169 310.317 539.965 310.141 539.795C309.965 539.625 309.756 539.492 309.528 539.405C309.299 539.317 309.055 539.277 308.81 539.286H307.672C307.672 525.376 297.695 524.974 297.695 524.986C297.364 522.744 296.268 520.684 294.591 519.159C292.914 517.633 290.761 516.735 288.497 516.616V510.162C288.491 509.962 288.407 509.773 288.262 509.635C288.118 509.497 287.924 509.422 287.724 509.426C287.626 509.424 287.528 509.441 287.437 509.477C287.345 509.513 287.262 509.567 287.191 509.636C287.12 509.704 287.064 509.786 287.025 509.876C286.986 509.967 286.965 510.064 286.964 510.162V516.616C284.7 516.735 282.547 517.633 280.87 519.159C279.193 520.684 278.097 522.744 277.766 524.986C277.766 524.986 267.789 524.986 267.789 539.286H266.646C266.401 539.277 266.157 539.317 265.928 539.405C265.7 539.492 265.491 539.625 265.315 539.795C265.139 539.965 264.999 540.169 264.903 540.394C264.807 540.619 264.758 540.862 264.758 541.106C264.758 541.351 264.807 541.594 264.903 541.819C264.999 542.044 265.139 542.248 265.315 542.418C265.491 542.588 265.7 542.72 265.928 542.808C266.157 542.895 266.401 542.936 266.646 542.927H273.865V556.372C272.563 556.352 271.289 556.756 270.235 557.521C269.182 558.287 268.405 559.375 268.022 560.62H258.266C257.879 559.378 257.101 558.294 256.049 557.529C254.997 556.764 253.726 556.358 252.426 556.372V542.927H259.645C259.89 542.936 260.134 542.895 260.362 542.808C260.591 542.72 260.8 542.588 260.976 542.418C261.152 542.248 261.292 542.044 261.388 541.819C261.484 541.594 261.533 541.351 261.533 541.106C261.533 540.862 261.484 540.619 261.388 540.394C261.292 540.169 261.152 539.965 260.976 539.795C260.8 539.625 260.591 539.492 260.362 539.405C260.134 539.317 259.89 539.277 259.645 539.286H258.507C258.507 525.376 248.529 524.974 248.529 524.986C248.196 522.745 247.098 520.687 245.422 519.162C243.746 517.637 241.595 516.738 239.332 516.616V510.162C239.321 509.964 239.234 509.777 239.09 509.641C238.945 509.504 238.754 509.428 238.556 509.428C238.357 509.428 238.166 509.504 238.021 509.641C237.877 509.777 237.79 509.964 237.779 510.162V516.616C235.516 516.738 233.365 517.637 231.689 519.162C230.013 520.687 228.915 522.745 228.582 524.986C228.594 524.974 218.604 524.986 218.604 539.286H217.48C217.236 539.277 216.992 539.317 216.763 539.405C216.534 539.492 216.326 539.625 216.15 539.795C215.973 539.965 215.833 540.169 215.737 540.394C215.642 540.619 215.592 540.862 215.592 541.106C215.592 541.351 215.642 541.594 215.737 541.819C215.833 542.044 215.973 542.248 216.15 542.418C216.326 542.588 216.534 542.72 216.763 542.808C216.992 542.895 217.236 542.936 217.48 542.927H224.7V556.372C223.398 556.353 222.125 556.756 221.071 557.522C220.018 558.288 219.242 559.375 218.859 560.62H211.695V573.935H211.64V484.436H220.912V475.881H211.64V384.549H227.725V376.01H219.41V346.581C219.026 345.34 218.252 344.256 217.203 343.49C216.154 342.724 214.886 342.316 213.587 342.329V328.888H220.818C221.063 328.897 221.307 328.856 221.535 328.769C221.764 328.681 221.973 328.549 222.149 328.379C222.325 328.209 222.465 328.005 222.561 327.78C222.657 327.555 222.706 327.312 222.706 327.067C222.706 326.823 222.657 326.58 222.561 326.355C222.465 326.13 222.325 325.926 222.149 325.756C221.973 325.586 221.764 325.454 221.535 325.366C221.307 325.279 221.063 325.238 220.818 325.247H219.68C219.68 311.337 209.702 310.935 209.722 310.962C209.39 308.715 208.29 306.653 206.61 305.125C204.93 303.597 202.773 302.698 200.505 302.58V296.114C200.494 295.918 200.408 295.733 200.266 295.599C200.123 295.464 199.934 295.389 199.738 295.389C199.542 295.389 199.353 295.464 199.211 295.599C199.068 295.733 198.983 295.918 198.972 296.114V302.568C196.706 302.686 194.551 303.586 192.874 305.115C191.198 306.643 190.102 308.705 189.774 310.95C189.465 310.969 189.157 311.004 188.852 311.056C188.951 311.036 189.093 311.005 189.18 310.993V243.293H196.418V239.534H189.18V226.002C204.355 206.398 192.036 169.93 156.836 159.059H156.867V151.017H154.74V144.909H156.867V142.647H148.444C148.444 142.647 140.204 136.409 138.392 129.986C138.064 128.808 137.796 127.613 137.588 126.408H139.259C139.461 126.419 139.664 126.389 139.855 126.32C140.046 126.25 140.22 126.142 140.368 126.003C140.516 125.863 140.633 125.695 140.714 125.508C140.794 125.322 140.835 125.121 140.835 124.918C140.835 124.715 140.794 124.514 140.714 124.328C140.633 124.141 140.516 123.973 140.368 123.833C140.22 123.694 140.046 123.586 139.855 123.516C139.664 123.447 139.461 123.417 139.259 123.428H137.175C137.131 123.094 137.1 122.767 137.069 122.447H138.286C138.441 122.457 138.596 122.435 138.742 122.383C138.888 122.33 139.022 122.249 139.135 122.143C139.248 122.037 139.338 121.908 139.4 121.766C139.462 121.624 139.494 121.471 139.494 121.315C139.494 121.16 139.462 121.007 139.4 120.865C139.338 120.722 139.248 120.594 139.135 120.488C139.022 120.382 138.888 120.301 138.742 120.248C138.596 120.196 138.441 120.174 138.286 120.184H136.888C136.751 118.127 136.765 116.729 136.765 116.729C138.253 116.597 139.63 115.891 140.604 114.76C141.579 113.628 142.073 112.162 141.983 110.671C141.964 109.301 141.444 107.986 140.522 106.973C139.599 105.96 138.337 105.321 136.975 105.175L136.994 104.934L136.888 103.079H138.286C138.441 103.089 138.596 103.067 138.742 103.015C138.888 102.963 139.022 102.881 139.135 102.775C139.248 102.669 139.338 102.541 139.4 102.398C139.462 102.256 139.494 102.103 139.494 101.948C139.494 101.793 139.462 101.639 139.4 101.497C139.338 101.355 139.248 101.227 139.135 101.121C139.022 101.015 138.888 100.933 138.742 100.881C138.596 100.828 138.441 100.807 138.286 100.817H136.753L136.691 99.5436H139.237C139.438 99.5517 139.639 99.519 139.828 99.4475C140.016 99.3759 140.189 99.2671 140.334 99.1274C140.479 98.9877 140.595 98.8201 140.674 98.6346C140.753 98.4491 140.794 98.2495 140.794 98.0479C140.794 97.8463 140.753 97.6468 140.674 97.4613C140.595 97.2758 140.479 97.1082 140.334 96.9685C140.189 96.8288 140.016 96.7199 139.828 96.6484C139.639 96.5769 139.438 96.5442 139.237 96.5523H136.506L135.146 71.8878L133.767 96.5523H131.028C130.827 96.5442 130.626 96.5769 130.437 96.6484C130.249 96.7199 130.077 96.8288 129.931 96.9685C129.786 97.1082 129.67 97.2758 129.591 97.4613C129.512 97.6468 129.471 97.8463 129.471 98.0479C129.471 98.2495 129.512 98.4491 129.591 98.6346C129.67 98.8201 129.786 98.9877 129.931 99.1274C130.077 99.2671 130.249 99.3759 130.437 99.4475C130.626 99.519 130.827 99.5517 131.028 99.5436H133.594L133.531 100.817H132.017C131.863 100.807 131.707 100.828 131.561 100.881C131.415 100.933 131.282 101.015 131.169 101.121C131.055 101.227 130.965 101.355 130.904 101.497C130.842 101.639 130.81 101.793 130.81 101.948C130.81 102.103 130.842 102.256 130.904 102.398C130.965 102.541 131.055 102.669 131.169 102.775C131.282 102.881 131.415 102.963 131.561 103.015C131.707 103.067 131.863 103.089 132.017 103.079H133.396L133.31 104.934V105.175C131.947 105.321 130.686 105.96 129.763 106.973C128.84 107.986 128.32 109.301 128.302 110.671C128.211 112.162 128.706 113.628 129.68 114.76C130.655 115.891 132.032 116.597 133.519 116.729C133.519 116.729 133.531 118.127 133.396 120.184H132.017C131.863 120.174 131.707 120.196 131.561 120.248C131.415 120.301 131.282 120.382 131.169 120.488C131.055 120.594 130.965 120.722 130.904 120.865C130.842 121.007 130.81 121.16 130.81 121.315C130.81 121.471 130.842 121.624 130.904 121.766C130.965 121.908 131.055 122.037 131.169 122.143C131.282 122.249 131.415 122.33 131.561 122.383C131.707 122.435 131.863 122.457 132.017 122.447H133.221L133.127 123.428H131.031C130.828 123.417 130.625 123.447 130.434 123.516C130.243 123.586 130.069 123.694 129.921 123.833C129.774 123.973 129.656 124.141 129.576 124.328C129.495 124.514 129.454 124.715 129.454 124.918C129.454 125.121 129.495 125.322 129.576 125.508C129.656 125.695 129.774 125.863 129.921 126.003C130.069 126.142 130.243 126.25 130.434 126.32C130.625 126.389 130.828 126.419 131.031 126.408H132.701C132.493 127.613 132.225 128.808 131.897 129.986C130.085 136.409 121.845 142.647 121.845 142.647H113.422V144.909H115.554V151.017H113.422V158.98C78.6791 169.446 67.4285 204.627 81.1289 226.004V239.536H73.878V243.295H81.1289V311.017L81.3335 311.068C81.0655 311.016 80.7946 310.981 80.5225 310.962C80.1921 308.717 79.0948 306.655 77.4168 305.127C75.7389 303.599 73.5837 302.699 71.3175 302.58V296.114C71.3065 295.918 71.221 295.733 71.0784 295.599C70.9359 295.464 70.7472 295.389 70.551 295.389C70.3548 295.389 70.1661 295.464 70.0236 295.599C69.881 295.733 69.7955 295.918 69.7845 296.114V302.568C67.5178 302.683 65.3615 303.582 63.6839 305.111C62.0064 306.64 60.9117 308.704 60.5868 310.95C60.5868 310.926 50.6093 310.95 50.6093 325.235H49.471C49.2264 325.226 48.9824 325.267 48.7538 325.354C48.5252 325.442 48.3165 325.574 48.1403 325.744C47.9641 325.914 47.8239 326.118 47.7282 326.343C47.6324 326.568 47.5831 326.811 47.5831 327.055C47.5831 327.3 47.6324 327.543 47.7282 327.768C47.8239 327.993 47.9641 328.197 48.1403 328.367C48.3165 328.537 48.5252 328.669 48.7538 328.757C48.9824 328.844 49.2264 328.885 49.471 328.876H56.6906V342.319C55.3885 342.303 54.1163 342.709 53.0634 343.475C52.0105 344.242 51.2333 345.327 50.8475 346.571V376.01H42.533V384.553H58.6182V475.881H49.3266V484.436H58.6182V622.891H8.24961V631.454H11.6909V671.344H12.514C11.4145 671.294 10.3163 671.467 9.28567 671.854C8.25505 672.24 7.31343 672.831 6.51768 673.591C5.72193 674.352 5.08856 675.266 4.65583 676.277C4.22311 677.289 4 678.379 4 679.479C4 680.58 4.22311 681.669 4.65583 682.681C5.08856 683.693 5.72193 684.607 6.51768 685.367C7.31343 686.128 8.25505 686.719 9.28567 687.105C10.3163 687.491 11.4145 687.665 12.514 687.615H11.6909C11.6909 687.615 11.9124 687.701 12.2781 687.855L12.4322 687.923C12.8028 688.084 13.3106 688.312 13.9411 688.62C14.059 688.671 14.213 688.758 14.3357 688.818C14.9662 689.133 15.6906 689.516 16.5016 689.973C16.6989 690.084 16.9276 690.233 17.1393 690.351C17.9551 690.832 18.8383 691.376 19.7865 692.002C20.0657 692.182 20.3665 692.392 20.6577 692.589C21.6034 693.239 22.6046 693.968 23.649 694.755C23.9955 695.019 24.3469 695.306 24.7006 695.583C25.7403 696.418 26.8208 697.344 27.9158 698.333C28.3104 698.692 28.7075 699.055 29.119 699.428C30.214 700.461 31.3258 701.594 32.4449 702.797C32.8708 703.255 33.2919 703.693 33.7179 704.169C34.8297 705.43 35.9487 706.816 37.063 708.26C45.0984 718.632 52.7054 733.736 56.0288 755.428H53.964C52.482 755.428 51.0607 756.017 50.0127 757.065C48.9648 758.113 48.3761 759.534 48.3761 761.016C48.3761 762.498 48.9648 763.919 50.0127 764.967C51.0607 766.015 52.482 766.604 53.964 766.604H57.3139C57.6099 770.592 57.7952 774.733 57.7952 779.104V958H1353.46V779.125C1353.46 744.507 1363.33 722.444 1373.93 708.614C1375.16 707.014 1376.39 705.486 1377.62 704.102C1377.98 703.707 1378.34 703.341 1378.68 702.959C1379.86 701.686 1381.04 700.473 1382.2 699.385C1382.56 699.05 1382.91 698.73 1383.26 698.422C1384.4 697.39 1385.51 696.432 1386.59 695.566C1386.92 695.313 1387.25 695.053 1387.55 694.805C1388.62 693.982 1389.64 693.24 1390.61 692.579C1390.89 692.394 1391.17 692.197 1391.43 692.023C1392.4 691.382 1393.29 690.82 1394.12 690.339C1394.32 690.228 1394.54 690.086 1394.73 689.98C1395.56 689.517 1396.29 689.128 1396.93 688.813C1397.04 688.75 1397.19 688.671 1397.3 688.62C1397.94 688.312 1398.44 688.084 1398.82 687.923L1398.97 687.855C1399.34 687.701 1399.56 687.615 1399.56 687.615H1398.73C1399.83 687.642 1400.92 687.453 1401.94 687.059C1402.96 686.664 1403.9 686.072 1404.69 685.316C1405.49 684.559 1406.12 683.654 1406.56 682.651C1407.01 681.649 1407.25 680.569 1407.27 679.473Z" fill="#CC5E43"/>
<path opacity="0.68" d="M719.437 161.18C718.918 161.231 718.405 161.33 717.904 161.476C718.385 161.336 718.877 161.237 719.375 161.18H719.512C720.099 161.238 720.678 161.355 721.242 161.526C720.654 161.348 720.049 161.232 719.437 161.18Z" fill="url(#paint2_linear_102_2)"/>
<path d="M469.329 272.703H526.957C526.957 272.703 539.485 249.658 512.004 239.307L511.81 239.447C511.938 239.359 512 239.307 512 239.307C508.443 237.146 505.142 234.59 502.159 231.688C498.98 228.385 498.472 226.712 497.567 226.365V224.097H498.058C498.058 224.097 498.762 224.097 498.762 223.459C498.762 223.373 498.745 223.287 498.711 223.208C498.677 223.128 498.628 223.056 498.566 222.996C498.504 222.935 498.431 222.888 498.35 222.857C498.27 222.826 498.184 222.811 498.097 222.814H497.567V217.865H497.753C497.753 217.865 498.25 217.858 498.25 217.403C498.25 217.342 498.238 217.282 498.214 217.226C498.19 217.169 498.155 217.119 498.112 217.076C498.068 217.033 498.017 216.999 497.96 216.977C497.904 216.954 497.843 216.943 497.782 216.944H497.565V211.674C497.573 211.589 497.563 211.503 497.536 211.423C497.509 211.342 497.465 211.268 497.408 211.205C497.35 211.142 497.281 211.092 497.203 211.057C497.125 211.023 497.041 211.005 496.955 211.005C496.87 211.005 496.786 211.023 496.708 211.057C496.63 211.092 496.56 211.142 496.503 211.205C496.446 211.268 496.402 211.342 496.375 211.423C496.348 211.503 496.338 211.589 496.346 211.674V216.944H496.129C496.068 216.943 496.007 216.954 495.95 216.976C495.893 216.999 495.841 217.033 495.797 217.075C495.753 217.118 495.718 217.169 495.694 217.225C495.67 217.281 495.657 217.342 495.657 217.403C495.657 217.858 496.167 217.865 496.167 217.865H496.351V222.814H495.82C495.734 222.811 495.648 222.826 495.567 222.857C495.487 222.888 495.413 222.935 495.351 222.996C495.289 223.056 495.24 223.128 495.206 223.208C495.173 223.287 495.155 223.373 495.155 223.459C495.155 224.097 495.86 224.097 495.86 224.097H496.351V226.358C495.446 226.698 494.935 228.376 491.758 231.68C488.776 234.582 485.476 237.138 481.919 239.299C481.919 239.299 481.982 239.355 482.09 239.437C481.982 239.355 481.913 239.299 481.913 239.299C454.428 249.654 466.953 272.703 466.953 272.703H469.329ZM511.791 239.46C511.716 239.516 511.643 239.568 511.522 239.646L511.336 239.751C511.516 239.64 511.684 239.534 511.791 239.456V239.46ZM510.939 239.978C510.883 240.007 510.857 240.027 510.799 240.057C510.763 240.08 510.697 240.103 510.658 240.126C510.753 240.072 510.857 240.02 510.939 239.974V239.978ZM509.73 240.564C509.612 240.617 509.54 240.663 509.412 240.719C509.284 240.775 509.13 240.815 509.009 240.863C509.268 240.757 509.515 240.659 509.73 240.554V240.564ZM508.111 241.187C507.885 241.262 507.718 241.338 507.473 241.417C507.228 241.496 506.932 241.561 506.66 241.636C507.193 241.484 507.662 241.334 508.112 241.183L508.111 241.187ZM506.36 241.715C505.688 241.889 504.971 242.053 504.158 242.204C504.073 242.217 503.975 242.227 503.887 242.243C504.795 242.085 505.617 241.904 506.36 241.71V241.715ZM496.82 242.793C498.128 242.793 499.317 242.737 500.434 242.649C500.332 242.659 500.248 242.672 500.146 242.678C499.117 242.754 498.007 242.793 496.82 242.793C495.726 242.793 494.71 242.754 493.749 242.699C493.563 242.686 493.399 242.666 493.219 242.649C494.334 242.733 495.516 242.788 496.821 242.788L496.82 242.793ZM489.749 242.233H489.732C488.873 242.093 488.126 241.915 487.426 241.732C488.127 241.907 488.89 242.077 489.749 242.228V242.233ZM487.002 241.614C486.805 241.558 486.582 241.506 486.396 241.451C486.173 241.382 486.022 241.309 485.815 241.242C486.191 241.359 486.567 241.487 487.003 241.609L487.002 241.614ZM484.777 240.864C484.679 240.825 484.545 240.785 484.453 240.747C484.315 240.688 484.236 240.638 484.109 240.58C484.315 240.668 484.538 240.76 484.777 240.858V240.864ZM483.312 240.192C483.247 240.159 483.142 240.113 483.08 240.081C482.988 240.029 482.94 239.993 482.857 239.947C482.988 240.016 483.156 240.104 483.312 240.187V240.192ZM482.513 239.736C482.467 239.707 482.385 239.665 482.349 239.634C482.245 239.566 482.186 239.52 482.12 239.471C482.214 239.534 482.362 239.633 482.513 239.731V239.736Z" fill="url(#paint3_linear_102_2)"/>
<path d="M887.425 272.703H945.051C945.051 272.703 957.577 249.658 930.094 239.306C930.094 239.306 930.026 239.363 929.921 239.44C930.026 239.361 930.092 239.306 930.092 239.306C926.535 237.146 923.233 234.59 920.251 231.688C917.069 228.385 916.564 226.712 915.658 226.365V224.097H916.153C916.153 224.097 916.857 224.097 916.857 223.459C916.857 223.373 916.84 223.287 916.806 223.207C916.773 223.128 916.723 223.056 916.661 222.996C916.599 222.935 916.526 222.888 916.445 222.857C916.365 222.826 916.279 222.811 916.193 222.813H915.658V217.865H915.844C915.844 217.865 916.346 217.858 916.346 217.403C916.345 217.342 916.332 217.281 916.308 217.225C916.284 217.169 916.249 217.118 916.205 217.075C916.161 217.032 916.109 216.999 916.052 216.976C915.996 216.954 915.935 216.943 915.874 216.944H915.657V211.673C915.665 211.588 915.656 211.502 915.63 211.421C915.603 211.34 915.56 211.265 915.502 211.202C915.445 211.138 915.375 211.087 915.297 211.053C915.219 211.018 915.134 211 915.049 211C914.963 211 914.879 211.018 914.801 211.053C914.722 211.087 914.652 211.138 914.595 211.202C914.538 211.265 914.495 211.34 914.468 211.421C914.441 211.502 914.432 211.588 914.441 211.673V216.944H914.224C914.163 216.943 914.102 216.954 914.045 216.976C913.988 216.999 913.936 217.032 913.892 217.075C913.849 217.118 913.814 217.169 913.789 217.225C913.765 217.281 913.753 217.342 913.752 217.403C913.752 217.858 914.253 217.865 914.253 217.865H914.44V222.813H913.909C913.822 222.811 913.736 222.825 913.655 222.856C913.574 222.888 913.501 222.935 913.438 222.995C913.376 223.055 913.326 223.127 913.292 223.207C913.258 223.287 913.241 223.372 913.24 223.459C913.24 224.097 913.945 224.097 913.945 224.097H914.44V226.357C913.535 226.698 913.024 228.376 909.847 231.68C906.864 234.583 903.563 237.138 900.006 239.299L900.2 239.443C900.082 239.357 900.003 239.299 900.003 239.299C872.512 249.654 885.044 272.703 885.044 272.703H887.425ZM929.875 239.474C929.81 239.523 929.747 239.565 929.652 239.634C929.61 239.664 929.524 239.706 929.481 239.739C929.635 239.636 929.787 239.533 929.875 239.468V239.474ZM929.141 239.946C929.062 239.991 929.014 240.027 928.922 240.08C928.857 240.115 928.749 240.161 928.676 240.197C928.839 240.104 929.01 240.016 929.14 239.94L929.141 239.946ZM927.922 240.566C927.788 240.628 927.702 240.683 927.552 240.745C927.45 240.788 927.297 240.831 927.195 240.873C927.456 240.763 927.702 240.661 927.922 240.554V240.566ZM926.198 241.234C925.985 241.307 925.831 241.382 925.603 241.451C925.416 241.507 925.189 241.562 924.99 241.618C925.434 241.487 925.818 241.359 926.198 241.229V241.234ZM924.579 241.729C923.878 241.913 923.124 242.09 922.265 242.23H922.252C923.111 242.077 923.878 241.906 924.579 241.723V241.729ZM915.177 242.794C916.481 242.794 917.671 242.738 918.778 242.65C918.599 242.667 918.434 242.686 918.248 242.7C917.291 242.756 916.272 242.794 915.177 242.794C913.991 242.794 912.881 242.755 911.86 242.68C911.758 242.673 911.674 242.66 911.576 242.653C912.687 242.733 913.876 242.788 915.177 242.788V242.794ZM908.102 242.241C908.02 242.228 907.924 242.218 907.846 242.205C907.03 242.054 906.316 241.89 905.641 241.716C906.381 241.9 907.193 242.085 908.102 242.234V242.241ZM905.34 241.635C905.068 241.562 904.776 241.494 904.527 241.418C904.278 241.341 904.124 241.267 903.904 241.192C904.346 241.336 904.808 241.487 905.338 241.628L905.34 241.635ZM902.956 240.851C902.848 240.809 902.695 240.763 902.593 240.724C902.491 240.684 902.409 240.632 902.301 240.583C902.5 240.661 902.724 240.753 902.956 240.845V240.851ZM901.334 240.124C901.298 240.105 901.235 240.078 901.2 240.059C901.141 240.03 901.112 240.009 901.059 239.98L901.334 240.124ZM900.665 239.757L900.475 239.648C900.348 239.567 900.279 239.514 900.203 239.462C900.305 239.525 900.482 239.639 900.665 239.75V239.757Z" fill="url(#paint4_linear_102_2)"/>
<path d="M944.297 585.461V506.082C944.297 493.73 954.748 484.154 954.748 484.154V476.467H951.887V442.331H954.748V434.647H946.584V377.307C946.562 373.812 947.278 370.351 948.685 367.152C950.092 363.952 952.158 361.085 954.748 358.738V351.057H951.887V316.915H954.748V309.23H940.679V281.046H945.173V272.702H884.922V281.046H889.422V309.226H875.345V316.911H878.199V351.053H875.345V358.739H875.535C878.125 361.086 880.191 363.953 881.598 367.153C883.005 370.352 883.721 373.813 883.7 377.308V434.647H875.344V442.332H878.198V476.467H875.344V484.154C875.344 484.154 885.805 493.73 885.805 506.082V525.284H526.204V506.082C526.204 493.73 536.655 484.154 536.655 484.154V476.467H533.801V442.331H536.655V434.647H528.305V377.307C528.284 373.812 529 370.351 530.407 367.152C531.814 363.952 533.88 361.085 536.47 358.738H536.66V351.057H533.806V316.915H536.66V309.23H522.579V281.046H527.079V272.702H466.829V281.046H471.328V309.226H457.253V316.911H460.113V351.053H457.253V358.739C459.843 361.086 461.909 363.953 463.316 367.153C464.723 370.352 465.439 373.813 465.418 377.308V434.647H457.253V442.332H460.113V476.467H457.253V484.154C457.253 484.154 467.706 493.73 467.706 506.082V585.461H436L438.051 589.391V607.284L440.542 611.348V647.707H438.051V665.598L440.542 669.665V705.746H438.051V723.636C438.051 723.636 461.195 728.955 461.195 744.048H456.865V751.274H462.253V758.498H456.865V765.717H461.194V958.409H950.809V765.722H955.137V758.503H949.75V751.279H955.137V744.053H950.809C950.809 728.959 973.949 723.641 973.949 723.641V705.746H971.458V669.665L973.949 665.598V647.699H971.458V611.34L973.949 607.277V589.397L976 585.468L944.297 585.461Z" fill="url(#paint5_linear_102_2)"/>
</g>
<defs>
<filter id="filter0_i_102_2" x="4" y="0" width="1403.27" height="962.409" filterUnits="userSpaceOnUse" color-interpolation-filters="sRGB">
<feFlood flood-opacity="0" result="BackgroundImageFix"/>
<feBlend mode="normal" in="SourceGraphic" in2="BackgroundImageFix" result="shape"/>
<feColorMatrix in="SourceAlpha" type="matrix" values="0 0 0 0 0 0 0 0 0 0 0 0 0 0 0 0 0 0 127 0" result="hardAlpha"/>
<feOffset dy="4"/>
<feGaussianBlur stdDeviation="2"/>
<feComposite in2="hardAlpha" operator="arithmetic" k2="-1" k3="1"/>
<feColorMatrix type="matrix" values="0 0 0 0 0 0 0 0 0 0 0 0 0 0 0 0 0 0 0.25 0"/>
<feBlend mode="normal" in2="shape" result="effect1_innerShadow_102_2"/>
</filter>
<linearGradient id="paint0_linear_102_2" x1="1036" y1="217.294" x2="1207.26" y2="236.385" gradientUnits="userSpaceOnUse">
<stop stop-color="#AD381C"/>
<stop offset="1" stop-color="#AD381C" stop-opacity="0"/>
</linearGradient>
<linearGradient id="paint1_linear_102_2" x1="253" y1="217.294" x2="424.258" y2="236.385" gradientUnits="userSpaceOnUse">
<stop stop-color="#AD381C"/>
<stop offset="1" stop-color="#AD381C" stop-opacity="0"/>
</linearGradient>
<linearGradient id="paint2_linear_102_2" x1="717.904" y1="104.824" x2="717.94" y2="1018.22" gradientUnits="userSpaceOnUse">
<stop stop-color="#AD381C"/>
<stop offset="1" stop-color="#AD381C" stop-opacity="0"/>
</linearGradient>
<linearGradient id="paint3_linear_102_2" x1="496.956" y1="264.621" x2="496.956" y2="885.735" gradientUnits="userSpaceOnUse">
<stop stop-color="#9E331A"/>
<stop offset="1" stop-color="#AD381C"/>
</linearGradient>
<linearGradient id="paint4_linear_102_2" x1="915.047" y1="264.62" x2="915.047" y2="885.787" gradientUnits="userSpaceOnUse">
<stop stop-color="#9E331A"/>
<stop offset="1" stop-color="#AD381C"/>
</linearGradient>
<linearGradient id="paint5_linear_102_2" x1="706" y1="264.474" x2="706" y2="885.724" gradientUnits="userSpaceOnUse">
<stop stop-color="#9E331A"/>
<stop offset="1" stop-color="#AD381C"/>
</linearGradient>
</defs>
</svg>
