<svg xmlns="http://www.w3.org/2000/svg" width="258.203" height="427.093" viewBox="0 0 258.203 427.093">
  <path id="Tree_left" d="M57.313,206.041l-12.1-10.46c32.434-.236,54.173,18.839,66.824,35.159-23.407-43.433-62.835-58.5-62.835-58.5,32.809-25.138,62.73,11.863,62.73,11.863L109.7,173.075c23.119,14.758,22.11,43.05,18.141,62.1,19.8-50.436,61.633-41.82,56.4-40.474-5.823,1.5-9.569,7.447-9.569,7.447a49.054,49.054,0,0,1,22.169-2.594c29.78,3.707,33.04,29.58,33.04,29.58-50.644-14.437-83.414,4.1-98.361,16.309.1.131.193.262.29.4,7.547-4.745,20.15-9.682,40.109-9.856,33.348-.3,60.261,31.714,50.582,24.879s-18.955-5.3-18.955-5.3,21.205.611,38.689,29.844c7.809,13.06,6.892,27.394,3.5,39.264-5.906-10.332-19.117-24.809-44.828-45.105a135.908,135.908,0,0,0-22.338-14.306c26.572,22.035,30.363,56.159,25.708,49.454a78.967,78.967,0,0,0-12.531-13.835c4.056,4.583,9.176,14.046,8.888,32.552-.47,30.422-33.06,39.2-33.06,39.2S191.18,289.963,131.5,253.453l-.041.039a24.516,24.516,0,0,0-5.454-3.345c-3.275,4.349-6.44,8.77-9.448,13.286A311.809,311.809,0,0,0,97.7,295.925a369.841,369.841,0,0,0-26.41,69.648C58.307,413.432,42.827,528.93,55.671,590.581L3.653,588.654c0-68.715,21.778-185.708,43.271-231.659,11.151-23.836,23.016-47.335,37.956-68.751a324.526,324.526,0,0,1,24.172-30.638c2.864-3.2,5.816-6.306,8.811-9.371-62.827,3.712-100.609,41.111-107.763,54.3l-.8-.2C7.255,268.3,38.637,254.563,38.637,254.563l-11.066-.452c14.6-15.852,32.028-20.7,48.108-20.581-2.81-.557-5.723-1.071-8.767-1.518-36.52-5.366-76.876,15.88-76.876,15.88C-2.684,189.567,57.313,206.041,57.313,206.041Z" transform="translate(9.964 -163.488)" fill="#52021f"/>
</svg>
