<svg xmlns="http://www.w3.org/2000/svg" width="281.605" height="398.665" viewBox="0 0 281.605 398.665">
  <path id="women_dancing" d="M611.616,367.719c1.721,4.095,5.073,7.58,4.65,12.471.562,9.874,1.746,19.763-.863,29.546-2.207,6.9-6.133,12.822-10.526,18.477-7.532,8.4-10.48,10.142-23.978,11.541-6.175.326-11.889-1.744-17.957-3.9-1.05,7.789.075,14.927,1.433,22.052q.119,1.918.241,3.839c2,22.726,6.754,44.682,18.1,64.8l-.067-.132,1.99,3.752-.027-.045c1,3.622,3.356,6.389,5.762,9.123,2.943,5.227,8.23,7.877,12.633,11.494,2.5,4.413,9.514,7.851,3.073,14.2-4.9,3.453-10.83,1.107-16.039,2.829l-3.622.406-2.162.505q-6.165.59-12.327,1.177c-3.232-.577-6.421-.639-9.474.831l-12.909.03c-8.959-5.336-13.561,1.421-18.684,6.73l-3.595-.206-2.1.784-4.4-.08-2.595-1.659q-.011-3.653-.025-7.312l-.01.02c1.179-.667,1.513-1.286-.1-1.8-8.24-2.562-15.885,2.48-23.973,1.878a.527.527,0,0,0-.814-.214c-2.162-2.791-3.975-6.135-8.414-5.334a6.653,6.653,0,0,0-5.62,1.662c-4.473-.368-8.571.709-12.929-3.513-3.707-3.587-10.364-7.026-16.278-.4A9.033,9.033,0,0,1,439,563.3c-4.714-2.2-2.933-5.3-1.709-8.429,1.1-2.814-1.241-3.222-2.764-3.61-6.861-1.739-13.78-3.418-20.953-2.465-2.786.371-6.279,1.132-7.1,3.7-3.816,11.9-14.183,12.85-23.734,14.006-13.561,1.644-26.354-1.941-37.708-9.553-11.665-7.822-12.7-18.447-3.152-28.809a68.7,68.7,0,0,1,16.86-12.812q27.675-15.752,55.546-31.16a223.551,223.551,0,0,0,42.154-29.625c.833-.617,1.672-1.231,2.508-1.846q1.765-1.213,3.535-2.426l3.784-3.488,2-1.844-.047.214c4.65-3.573,17.445-21.1,17.935-24.478,6.045-13.407,9.6-28.968,9.292-34.1-5.56.709-17.467,4.851-17.442,2.948.04-3.169,28.757-14.638,33.708-28.093,2.15-5.846-.356-9.364-5.742-12.606-5.476-3.3-8.227-1.184-11.506,2.6-7.429,8.576-15,17.024-22.51,25.525l-11.3,7.212c-13.753,1.01-15,11.7-16.92,21.866-3.906,5.274,6.406,5.879,3.553,10.81-2.814,1.214-5.608,3.346-8.444,3.406-3.505.075-13.793,6.521-7.366-6.337,2.468-4.938-6.083-18.676-11.476-21.077-6.8-3.025-16.98-4.185-16.78-13.377.2-9.337,10.81-9.277,17.474-12.046,7.366-3.063,15.231-4.814,23.4-3.871,3.9,5.058,1.662,10.65,1.433,16.574,8.919-9.454,19.813-16.154,28.652-25.237l.067-.087c3.6-3.219,14.327-17.084,14.521-18.641l1.8-5.02c1.824-3.269,2.112-5.848,5.473-9.81,3.47-2.438,7.108-4.677,10.372-7.369,3.846-3.167,6-8.282,3.712-12.16-2.142-3.632-6.274-7.931-12.215-5.262-1.239-7.3-5.916-13.865-3.816-21.945,1.707-6.575-3.834-5.369-7.993-6.284,7.329-.075,9.379-7.5,14.412-9.718a22.673,22.673,0,0,1,24.274,3.926c6.043,5.645,14.648,10.118,16.382,20.02,6.354-6.767,7.128-15.656,9.929-23.647,1.361-3.881-1.552-6.366-3.968-8.7-6.421-6.19-12.962-12.255-19.455-18.37l-1.8-.97.336,2.237c1.572,3.339,1.167,5.55-3.172,4.886a21.206,21.206,0,0,1-11.235-5.983c-2.794-2.627-3.672-4.563,1.649-5.886,7.563-1.881,13.322-15.32,10.586-23.112-1.826-5.2-4.53-10.208-4.033-15.935.515-5.911,3.045-9.2,9.708-7.018a79.884,79.884,0,0,1,27.819,15.895c5.63,4.9,4.829,10.581-2.159,13.554A54.757,54.757,0,0,1,540.2,213.04c-4.1.463-5.906,2.488-7.07,5.978-1.249,3.744,1.025,5.715,3.515,7.677q11.942,9.408,23.868,18.835c2.428,3.341,5.486,6.332,5.953,10.757l-.552,3.607a53.909,53.909,0,0,0-5.088,14.88q-1.127,2.739-2.252,5.473l-3.769,7.279c-9.046,16.8-8.449,18.805,7.292,28.988,7.668,4.961,15.042,10.377,22.547,15.586,5.707,3.961,6.09,4.5,9.006,6.534C603.784,345.531,604.921,358.442,611.616,367.719Zm-45.8-7.5c-.139-6.481-11.232-16.805-17.9-16.87-2.615-.025-2.941,1.6-3.279,3.458-1.582,8.653-1.162,17.139,2.264,25.326.667,1.6,1.187,3.344,3.772,3.229C556.528,375.105,565.935,365.9,565.813,360.221Z" transform="translate(-335.422 -179.348)" fill="#52021f"/>
</svg>
