<svg id="Layer_2" data-name="Layer 2" xmlns="http://www.w3.org/2000/svg" width="53" height="53" viewBox="0 0 53 53">
  <g id="arrow-forward">
    <rect id="Rectangle_175" data-name="Rectangle 175" width="53" height="53" transform="translate(0 53) rotate(-90)" fill="#f5e181" opacity="0"/>
    <path id="Path_823" data-name="Path 823" d="M37.3,22.761H10.971l8.059,9.68a2.223,2.223,0,1,1-3.419,2.842L4.511,21.962a2.642,2.642,0,0,1-.2-.333c0-.111-.111-.178-.155-.289a2.133,2.133,0,0,1,0-1.6c0-.111.111-.178.155-.289a2.642,2.642,0,0,1,.2-.333L15.611,5.8a2.223,2.223,0,1,1,3.419,2.842l-8.059,9.68H37.3a2.22,2.22,0,0,1,0,4.44Z" transform="translate(4.514 6.101)" fill="#f5e181"/>
  </g>
</svg>
