<svg xmlns="http://www.w3.org/2000/svg" xmlns:xlink="http://www.w3.org/1999/xlink" width="129.042" height="182.539" viewBox="0 0 129.042 182.539">
  <defs>
    <radialGradient id="radial-gradient" cx="0.795" cy="0.819" r="0.638" gradientTransform="translate(-0.105) scale(0.974 1)" gradientUnits="objectBoundingBox">
      <stop offset="0.002" stop-color="#f44f78"/>
      <stop offset="0.397" stop-color="#e4305d"/>
      <stop offset="0.763" stop-color="#d81b4a"/>
      <stop offset="1" stop-color="#d41343"/>
    </radialGradient>
    <radialGradient id="radial-gradient-2" cx="0.75" cy="0.75" r="0.5" gradientTransform="translate(0.001)" gradientUnits="objectBoundingBox">
      <stop offset="0.882" stop-opacity="0.2"/>
      <stop offset="1" stop-opacity="0"/>
    </radialGradient>
    <radialGradient id="radial-gradient-3" cx="0.795" cy="0.819" r="0.638" gradientTransform="translate(-0.18) scale(0.974 1)" xlink:href="#radial-gradient"/>
    <radialGradient id="radial-gradient-4" cx="0.75" cy="0.75" r="0.5" gradientTransform="translate(0.002)" xlink:href="#radial-gradient-2"/>
    <radialGradient id="radial-gradient-5" cx="0.75" cy="0.75" r="0.5" gradientTransform="translate(0.002)" xlink:href="#radial-gradient-2"/>
    <radialGradient id="radial-gradient-6" cx="0.75" cy="0.75" r="0.5" gradientTransform="translate(0.002)" xlink:href="#radial-gradient-2"/>
  </defs>
  <g id="Headline_Artist_-_sostik" data-name="Headline Artist - sostik" transform="translate(-526.083 -4199.702)">
    <path id="Path_1079" data-name="Path 1079" d="M78.88,11.447c-33.111,10.013-57.616,40.8-51.99,74.93q.225,1.363.467,2.718c3.441,19.272,8.485,36.782,14.843,51.533s13.907,26.45,22.215,34.433h52.408c8.308-7.982,15.856-19.683,22.215-34.433s11.4-32.261,14.843-51.533q.177-.992.348-1.989c5.933-34.541-18.252-65.688-51.838-75.7A40.912,40.912,0,0,0,78.88,11.447Z" transform="translate(500 4190)" fill="#f39033"/>
    <path id="Path_1080" data-name="Path 1080" d="M84.451,24.493C54.18,34.054,32.111,62.33,36.669,93.747q.386,2.662.835,5.29c3.17,18.542,7.816,35.388,13.673,49.579s12.81,25.448,20.463,33.128h48.275c7.652-7.68,14.606-18.937,20.463-33.128s10.5-31.038,13.673-49.579q.393-2.295.753-4.617c4.94-31.779-16.96-60.407-47.667-69.967A37.938,37.938,0,0,0,84.451,24.493Z" transform="translate(494.88 4183.317)" fill="#f25c27"/>
    <path id="Path_1081" data-name="Path 1081" d="M92.088,36.788c-26.436,9.069-45.207,34.037-42.039,61.8q.56,4.911,1.311,9.712c2.812,17.868,6.934,34.1,12.13,47.777S74.855,180.6,81.643,188h42.828c6.789-7.4,12.958-18.248,18.154-31.923s9.318-29.909,12.13-47.777q.709-4.5,1.3-9.114c3.614-28.08-15.174-53.374-41.994-62.444A34.107,34.107,0,0,0,92.088,36.788Z" transform="translate(487.893 4177.058)" fill="#fdae38"/>
    <path id="Path_1082" data-name="Path 1082" d="M110,79V99.956a3.411,3.411,0,0,0,3.411,3.411h41.425a3.411,3.411,0,0,0,3.411-3.411V79" transform="translate(456.981 4154.475)" fill="none" stroke="#f70303" stroke-linecap="round" stroke-width="7"/>
    <path id="Path_1083" data-name="Path 1083" d="M110,241.368V220.411A3.411,3.411,0,0,1,113.411,217h41.425a3.411,3.411,0,0,1,3.411,3.411v20.956" transform="translate(456.981 4083.73)" fill="none" stroke="#f70303" stroke-linecap="round" stroke-width="7"/>
    <circle id="Ellipse_74" data-name="Ellipse 74" cx="11" cy="11" r="11" transform="translate(580 4226)" fill="#f60403"/>
    <line id="Line_33" data-name="Line 33" y2="40.451" transform="translate(591.105 4257.843)" fill="none" stroke="#f70303" stroke-width="7"/>
    <path id="Path_1084" data-name="Path 1084" d="M120.349,292.353a2.514,2.514,0,0,1,4.906,0,4.644,4.644,0,0,1,0,2.029L122.8,305.308l-2.453-10.926A4.644,4.644,0,0,1,120.349,292.353Z" transform="translate(451.733 4046.107)" fill="#fa0200"/>
    <path id="Path_1085" data-name="Path 1085" d="M137.349,292.353a2.514,2.514,0,0,1,4.906,0,4.643,4.643,0,0,1,0,2.029L139.8,305.308l-2.453-10.926A4.643,4.643,0,0,1,137.349,292.353Z" transform="translate(443.018 4046.107)" fill="#fa0200"/>
    <path id="Path_1086" data-name="Path 1086" d="M154.349,292.353a2.514,2.514,0,0,1,4.906,0,4.644,4.644,0,0,1,0,2.029L156.8,305.308l-2.453-10.926A4.643,4.643,0,0,1,154.349,292.353Z" transform="translate(434.303 4046.107)" fill="#fa0200"/>
    <path id="Path_1087" data-name="Path 1087" d="M171.349,292.353a2.514,2.514,0,0,1,4.906,0,4.643,4.643,0,0,1,0,2.029L173.8,305.308l-2.453-10.926A4.643,4.643,0,0,1,171.349,292.353Z" transform="translate(425.588 4046.107)" fill="#fa0200"/>
    <path id="Path_1088" data-name="Path 1088" d="M188.349,292.353a2.514,2.514,0,0,1,4.906,0,4.643,4.643,0,0,1,0,2.029L190.8,305.308l-2.453-10.926A4.643,4.643,0,0,1,188.349,292.353Z" transform="translate(416.873 4046.107)" fill="#fa0200"/>
    <path id="Path_1089" data-name="Path 1089" d="M115.884,335.912a25.345,25.345,0,0,1,2.559,2.137s-.389.2-.389.2c-.516.336-.479.472-.676,1.084s-.309.7-.088,1.273l.2.39a24.063,24.063,0,0,1-2.934.022,2.322,2.322,0,0,1-1.471-.479,1.342,1.342,0,0,1-.111-1.666,4.414,4.414,0,0,0,1.059-2.26c-.067-.519.093-1.014.676-1.082A1.993,1.993,0,0,1,115.884,335.912Zm-1.427,6.2a25.362,25.362,0,0,1,2.818-1.777s.069.433.069.433c.16.595.3.6.819.979s.57.511,1.182.477l.433-.068a24.064,24.064,0,0,1-.886,2.8,2.329,2.329,0,0,1-.909,1.253,1.34,1.34,0,0,1-1.614-.409c-.547-.733-1.246-1.6-1.82-1.706-.514-.1-.934-.4-.819-.979A2,2,0,0,1,114.457,342.116Zm5.454,3.276a25.271,25.271,0,0,1-.817-3.233s.433.069.433.069c.614.031.664-.1,1.182-.478s.661-.385.819-.978l.068-.434a24.055,24.055,0,0,1,2.385,1.709,2.327,2.327,0,0,1,.909,1.253,1.341,1.341,0,0,1-.887,1.411c-.866.294-1.9.693-2.183,1.205-.251.46-.671.766-1.183.478a2,2,0,0,1-.727-1Zm4.8-4.18a25.274,25.274,0,0,1-3.324-.221s.2-.39.2-.39c.22-.575.11-.663-.088-1.273s-.162-.749-.676-1.083l-.39-.2a24.059,24.059,0,0,1,2.361-1.744,2.321,2.321,0,0,1,1.47-.479,1.342,1.342,0,0,1,1.066,1.281,4.415,4.415,0,0,0,.471,2.451c.359.381.52.875.088,1.273A1.992,1.992,0,0,1,124.708,341.212Zm-2.489-5.859a25.232,25.232,0,0,1-1.237,3.1s-.309-.309-.309-.309c-.479-.387-.6-.309-1.237-.309s-.761-.078-1.237.309l-.309.309a24.025,24.025,0,0,1-.927-2.786,2.32,2.32,0,0,1,0-1.548,1.339,1.339,0,0,1,1.546-.619,4.408,4.408,0,0,0,2.474.31c.473-.224.992-.225,1.237.31a1.992,1.992,0,0,1,0,1.238Z" transform="translate(455.579 4024.038)" fill="url(#radial-gradient)"/>
    <path id="Path_1090" data-name="Path 1090" d="M126.344,344.021a3.016,3.016,0,1,1-4.888-2.367c.006,0,.009-.009.015-.012a.4.4,0,0,0,.048-.038h0a3,3,0,0,1,3.612,0s0,0,0,0h0a.137.137,0,0,1,.024.021.524.524,0,0,1,.06.048,3.009,3.009,0,0,1,1.119,2.347Z" transform="translate(451.694 4020.162)" fill="url(#radial-gradient-2)"/>
    <path id="Path_1091" data-name="Path 1091" d="M126.361,344.373a2.68,2.68,0,1,1-4.345-2.1c.005,0,.008-.008.014-.011a.414.414,0,0,0,.043-.034h0a2.672,2.672,0,0,1,3.211,0s0,0,0,0h0a.148.148,0,0,1,.021.018.421.421,0,0,1,.054.043,2.674,2.674,0,0,1,.995,2.086Z" transform="translate(451.342 4019.809)" fill="#fff"/>
    <path id="Path_1092" data-name="Path 1092" d="M196.884,340.912a25.348,25.348,0,0,1,2.559,2.137s-.389.2-.389.2c-.516.336-.479.472-.676,1.084s-.309.7-.088,1.273l.2.39a24.057,24.057,0,0,1-2.934.022,2.323,2.323,0,0,1-1.471-.479,1.342,1.342,0,0,1-.111-1.666,4.414,4.414,0,0,0,1.059-2.26c-.067-.519.093-1.014.676-1.082A1.993,1.993,0,0,1,196.884,340.912Zm-1.427,6.2a25.355,25.355,0,0,1,2.818-1.777s.069.433.069.433c.16.595.3.6.819.979s.57.511,1.182.477l.433-.068a24.06,24.06,0,0,1-.886,2.8,2.329,2.329,0,0,1-.909,1.252,1.34,1.34,0,0,1-1.614-.409c-.547-.733-1.246-1.6-1.82-1.706-.514-.1-.934-.4-.819-.979A2,2,0,0,1,195.457,347.116Zm5.454,3.276a25.265,25.265,0,0,1-.817-3.233s.433.069.433.069c.614.031.664-.1,1.182-.478s.661-.385.819-.978l.068-.434a24.055,24.055,0,0,1,2.385,1.709,2.327,2.327,0,0,1,.909,1.253,1.341,1.341,0,0,1-.887,1.411c-.866.294-1.9.693-2.183,1.205-.251.46-.671.766-1.183.478a2,2,0,0,1-.727-1Zm4.8-4.18a25.269,25.269,0,0,1-3.324-.221s.2-.39.2-.39c.22-.575.11-.663-.088-1.273s-.162-.749-.676-1.083l-.39-.2a24.058,24.058,0,0,1,2.361-1.744,2.321,2.321,0,0,1,1.47-.479,1.342,1.342,0,0,1,1.066,1.281,4.415,4.415,0,0,0,.471,2.451c.359.381.52.875.088,1.273A1.991,1.991,0,0,1,205.708,346.212Zm-2.489-5.859a25.232,25.232,0,0,1-1.237,3.1s-.309-.309-.309-.309c-.479-.387-.6-.309-1.237-.309s-.761-.078-1.237.309l-.309.309a24.025,24.025,0,0,1-.927-2.786,2.32,2.32,0,0,1,0-1.548,1.339,1.339,0,0,1,1.546-.619,4.408,4.408,0,0,0,2.474.31c.473-.224.992-.225,1.237.31a1.992,1.992,0,0,1,0,1.238Z" transform="translate(414.055 4021.475)" fill="url(#radial-gradient-3)"/>
    <path id="Path_1093" data-name="Path 1093" d="M207.344,349.021a3.016,3.016,0,1,1-4.888-2.367c.006,0,.009-.009.015-.012a.4.4,0,0,0,.048-.038h0a3,3,0,0,1,3.612,0s0,0,0,0h0a.137.137,0,0,1,.024.021.525.525,0,0,1,.06.048,3.009,3.009,0,0,1,1.119,2.347Z" transform="translate(410.17 4017.599)" fill="url(#radial-gradient-4)"/>
    <path id="Path_1094" data-name="Path 1094" d="M207.361,349.373a2.68,2.68,0,1,1-4.345-2.1c.005,0,.008-.008.014-.011a.412.412,0,0,0,.043-.034h0a2.672,2.672,0,0,1,3.211,0s0,0,0,0h0a.147.147,0,0,1,.021.018.421.421,0,0,1,.054.043,2.674,2.674,0,0,1,.995,2.086Z" transform="translate(409.818 4017.246)" fill="#fff"/>
    <path id="Path_1095" data-name="Path 1095" d="M144.776,348.808a29.184,29.184,0,0,1,2.947,2.46s-.449.229-.449.229c-.594.387-.551.544-.779,1.248s-.356.808-.1,1.466l.229.449a27.718,27.718,0,0,1-3.378.026,2.673,2.673,0,0,1-1.694-.551,1.546,1.546,0,0,1-.127-1.919c.608-.861,1.3-1.933,1.219-2.6-.077-.6.107-1.168.779-1.246A2.3,2.3,0,0,1,144.776,348.808Zm-1.643,7.145a29.2,29.2,0,0,1,3.245-2.046s.079.5.079.5c.184.684.347.692.944,1.126s.657.588,1.361.55l.5-.079a27.637,27.637,0,0,1-1.02,3.225,2.68,2.68,0,0,1-1.047,1.442,1.542,1.542,0,0,1-1.859-.471c-.63-.845-1.434-1.838-2.1-1.965-.592-.111-1.076-.463-.943-1.126A2.3,2.3,0,0,1,143.132,355.952Zm6.28,3.772a29.2,29.2,0,0,1-.941-3.722s.5.079.5.079c.707.036.765-.116,1.361-.55s.762-.444.944-1.127l.079-.5a27.61,27.61,0,0,1,2.746,1.968,2.679,2.679,0,0,1,1.047,1.442,1.545,1.545,0,0,1-1.021,1.624c-1,.339-2.189.8-2.514,1.388-.289.529-.772.882-1.362.55a2.3,2.3,0,0,1-.837-1.154Zm5.524-4.813a29.13,29.13,0,0,1-3.827-.254s.229-.449.229-.449c.253-.662.127-.764-.1-1.466s-.186-.862-.779-1.248l-.448-.227a27.687,27.687,0,0,1,2.718-2.009,2.673,2.673,0,0,1,1.694-.551,1.543,1.543,0,0,1,1.227,1.475c.014,1.055.081,2.331.542,2.823.413.439.6,1.008.1,1.466A2.3,2.3,0,0,1,154.936,354.911Zm-2.866-6.747a29.2,29.2,0,0,1-1.424,3.565s-.356-.357-.356-.357c-.551-.445-.687-.356-1.425-.356s-.877-.089-1.425.356l-.356.357a27.638,27.638,0,0,1-1.069-3.209,2.673,2.673,0,0,1,0-1.782,1.543,1.543,0,0,1,1.781-.713c1.006.312,2.239.642,2.849.356.544-.258,1.142-.259,1.424.357a2.3,2.3,0,0,1,0,1.426Z" transform="translate(441.013 4021.234)" fill="#f8b701"/>
    <path id="Path_1096" data-name="Path 1096" d="M156.82,358.145a3.472,3.472,0,1,1-5.629-2.725c.007,0,.011-.011.018-.014a.476.476,0,0,0,.056-.043h0a3.462,3.462,0,0,1,4.16,0s0,0,0,0h0a.193.193,0,0,1,.028.024.549.549,0,0,1,.07.056,3.467,3.467,0,0,1,1.288,2.7Z" transform="translate(436.539 4016.771)" fill="url(#radial-gradient-5)"/>
    <path id="Path_1097" data-name="Path 1097" d="M156.84,358.551a3.086,3.086,0,1,1-5-2.423c.006,0,.009-.009.016-.012a.457.457,0,0,0,.049-.039h0a3.077,3.077,0,0,1,3.7,0s0,0,0,0h0a.132.132,0,0,1,.025.021.5.5,0,0,1,.062.049,3.078,3.078,0,0,1,1.145,2.4Z" transform="translate(436.133 4016.365)" fill="#fff"/>
    <path id="Path_1098" data-name="Path 1098" d="M175.636,336.658a19.989,19.989,0,0,1,2.017,1.683s-.307.157-.307.157c-.406.265-.377.372-.533.853s-.244.553-.069,1l.156.307a19.06,19.06,0,0,1-2.312.018,1.832,1.832,0,0,1-1.159-.377,1.058,1.058,0,0,1-.087-1.313,3.478,3.478,0,0,0,.834-1.781c-.053-.409.073-.8.533-.852A1.568,1.568,0,0,1,175.636,336.658Zm-1.124,4.888a19.921,19.921,0,0,1,2.221-1.4s.054.342.054.342c.126.468.237.474.646.771s.449.4.931.376l.341-.054a18.974,18.974,0,0,1-.7,2.206,1.833,1.833,0,0,1-.716.987,1.055,1.055,0,0,1-1.272-.323c-.431-.578-.981-1.257-1.434-1.344-.4-.077-.736-.317-.645-.771A1.574,1.574,0,0,1,174.511,341.546Zm4.3,2.581a19.984,19.984,0,0,1-.644-2.547s.341.054.341.054c.484.024.523-.079.932-.376s.521-.3.645-.771l.054-.342a18.975,18.975,0,0,1,1.879,1.347,1.835,1.835,0,0,1,.716.987,1.057,1.057,0,0,1-.7,1.112c-.682.232-1.5.545-1.72.949-.2.362-.528.6-.932.376a1.574,1.574,0,0,1-.573-.789Zm3.779-3.293a19.93,19.93,0,0,1-2.619-.174s.156-.307.156-.307c.174-.453.087-.523-.069-1s-.128-.59-.533-.853l-.307-.155a19.033,19.033,0,0,1,1.86-1.375,1.832,1.832,0,0,1,1.159-.377,1.056,1.056,0,0,1,.84,1.009,3.485,3.485,0,0,0,.37,1.931c.283.3.41.69.07,1A1.568,1.568,0,0,1,182.588,340.834Zm-1.961-4.616a19.91,19.91,0,0,1-.975,2.439s-.244-.244-.244-.244c-.377-.305-.47-.244-.975-.244s-.6-.061-.974.244l-.244.244a18.786,18.786,0,0,1-.731-2.2,1.827,1.827,0,0,1,0-1.22,1.055,1.055,0,0,1,1.218-.488,3.479,3.479,0,0,0,1.949.244c.372-.176.782-.177.975.244a1.574,1.574,0,0,1,0,.976Z" transform="translate(424.605 4030.687)" fill="#f8b701"/>
    <path id="Path_1099" data-name="Path 1099" d="M183.877,343.047a2.376,2.376,0,1,1-3.851-1.865s.007-.007.012-.009a.381.381,0,0,0,.038-.03h0a2.369,2.369,0,0,1,2.846,0s0,0,0,0h0a.123.123,0,0,1,.019.017.355.355,0,0,1,.047.038,2.369,2.369,0,0,1,.882,1.85Z" transform="translate(421.544 4027.633)" fill="url(#radial-gradient-6)"/>
    <path id="Path_1100" data-name="Path 1100" d="M183.89,343.324a2.112,2.112,0,1,1-3.423-1.658s.006-.006.011-.009a.28.28,0,0,0,.034-.026h0a2.105,2.105,0,0,1,2.53,0s0,0,0,0h0a.1.1,0,0,1,.017.015.314.314,0,0,1,.042.034,2.106,2.106,0,0,1,.783,1.644Z" transform="translate(421.267 4027.355)" fill="#fff"/>
  </g>
</svg>
