<svg xmlns="http://www.w3.org/2000/svg" width="382.608" height="55.883" viewBox="0 0 382.608 55.883">
  <g id="Sponsor_box_outline_design" data-name="Sponsor box outline design" transform="translate(0.277 55.883) rotate(-90)">
    <g id="Group_2528" data-name="Group 2528" transform="translate(4.286 297.202)">
      <path id="Path_8828" data-name="Path 8828" d="M0,.181c3.308-.6,6.7.368,9.8,1.658a38.144,38.144,0,0,1,14.915,10.74,28,28,0,0,1,6.553,17,12.606,12.606,0,0,1-1.2,6.142,6.447,6.447,0,0,1-4.92,3.543c-3.761.309-6.513-3.422-8.084-6.855C12.824,23.131,14.342,9.07,0,.181" transform="translate(1.979 45.569)" fill="#ea4c31" stroke="#ea4c31" stroke-miterlimit="10" stroke-width="0.55"/>
      <path id="Path_8829" data-name="Path 8829" d="M0,39.1c3.306.594,6.7-.367,9.8-1.66A38.065,38.065,0,0,0,24.717,26.7a27.986,27.986,0,0,0,6.549-17,12.524,12.524,0,0,0-1.2-6.138A6.428,6.428,0,0,0,25.142.018c-3.761-.308-6.514,3.423-8.081,6.856C12.822,16.151,14.338,30.21,0,39.1" fill="#ea4c31" stroke="#ea4c31" stroke-miterlimit="10" stroke-width="0.55"/>
      <path id="Path_8830" data-name="Path 8830" d="M0,6.184A83.357,83.357,0,0,1,22.61.357C28.2-.269,34.062-.28,39.172,2.058c3.5,1.6,6.8,5.231,5.68,8.919A6.7,6.7,0,0,1,39.893,15.2a15.879,15.879,0,0,1-6.758-.182C22.434,12.934,10.824,7.472,0,6.184" transform="translate(6.237 36.488)" fill="#ea4c31" stroke="#ea4c31" stroke-miterlimit="10" stroke-width="0.55"/>
    </g>
    <g id="Group_2529" data-name="Group 2529" transform="translate(0 350.863)">
      <path id="Path_8831" data-name="Path 8831" d="M1.192,27.362s-.1-.429-.235-1.177-.306-1.817-.448-3.1S.229,20.305.144,18.7,0,15.389,0,13.679c.007-.854.008-1.71.036-2.551.01-.843.074-1.67.106-2.47.085-1.605.21-3.1.367-4.384.139-1.283.312-2.349.447-3.1S1.192,0,1.192,0s.105.426.237,1.174.307,1.817.448,3.1.283,2.779.365,4.384c.034.8.1,1.628.107,2.47s.03,1.7.036,2.551c0,1.71-.056,3.422-.148,5.023s-.21,3.1-.364,4.382-.312,2.353-.444,3.1S1.192,27.362,1.192,27.362Z" transform="translate(5.367)" fill="#53b278"/>
      <path id="Path_8832" data-name="Path 8832" d="M0,0S.279.131.731.4s1.088.656,1.8,1.171A37.785,37.785,0,0,1,7.4,5.716a37.664,37.664,0,0,1,4.153,4.867c.514.715.9,1.35,1.169,1.8s.394.73.394.73-.278-.133-.73-.4-1.089-.653-1.8-1.169A37.6,37.6,0,0,1,5.716,7.4,37.771,37.771,0,0,1,1.568,2.532C1.052,1.816.66,1.184.4.73S0,0,0,0Z" transform="translate(0 7.121)" fill="#53b278"/>
      <path id="Path_8833" data-name="Path 8833" d="M0,13.117s.133-.276.4-.73.655-1.087,1.171-1.8A37.771,37.771,0,0,1,5.716,5.716a37.5,37.5,0,0,1,4.868-4.149c.714-.518,1.351-.909,1.8-1.173s.73-.394.73-.394-.129.279-.394.73-.655,1.089-1.169,1.8A37.515,37.515,0,0,1,7.4,7.4,38.149,38.149,0,0,1,2.531,11.55a20.957,20.957,0,0,1-1.8,1.17C.279,12.984,0,13.117,0,13.117Z" transform="translate(0 7.121)" fill="#53b278"/>
    </g>
    <g id="Group_2530" data-name="Group 2530" transform="translate(0 299.137)">
      <path id="Path_8834" data-name="Path 8834" d="M1.192,27.362s-.1-.429-.235-1.179-.306-1.818-.448-3.1S.229,20.305.144,18.7,0,15.391,0,13.678c.007-.853.008-1.709.036-2.551.01-.844.074-1.67.106-2.473.085-1.6.21-3.1.367-4.38.139-1.284.312-2.352.447-3.1S1.192,0,1.192,0s.105.425.237,1.173.307,1.818.448,3.1.283,2.779.365,4.38c.034.8.1,1.629.107,2.473s.03,1.7.036,2.551c0,1.713-.056,3.423-.148,5.025s-.21,3.1-.364,4.382-.312,2.354-.444,3.1S1.192,27.362,1.192,27.362Z" transform="translate(5.367)" fill="#53b278"/>
      <path id="Path_8835" data-name="Path 8835" d="M0,0S.279.131.731.4s1.088.657,1.8,1.171A37.969,37.969,0,0,1,7.4,5.716a37.668,37.668,0,0,1,4.153,4.868c.514.713.9,1.348,1.169,1.8s.394.733.394.733-.278-.132-.73-.4-1.089-.655-1.8-1.169A37.87,37.87,0,0,1,5.716,7.4a38.005,38.005,0,0,1-4.148-4.87C1.052,1.818.66,1.183.4.73S0,0,0,0Z" transform="translate(0 7.121)" fill="#53b278"/>
      <path id="Path_8836" data-name="Path 8836" d="M0,13.117s.133-.276.4-.731.655-1.086,1.171-1.8a37.856,37.856,0,0,1,4.148-4.87,37.634,37.634,0,0,1,4.868-4.153c.714-.516,1.351-.906,1.8-1.17s.73-.394.73-.394-.129.278-.394.73-.655,1.089-1.169,1.8A37.82,37.82,0,0,1,7.4,7.4,38.135,38.135,0,0,1,2.531,11.55c-.712.516-1.347.906-1.8,1.171S0,13.117,0,13.117Z" transform="translate(0 7.121)" fill="#53b278"/>
    </g>
    <g id="Group_2532" data-name="Group 2532" transform="translate(40.849 316.112)">
      <path id="Path_8837" data-name="Path 8837" d="M.33,0C.219.11.111.22,0,.329" transform="translate(5.019 4.687)" fill="#53b278"/>
      <g id="Group_2531" data-name="Group 2531">
        <path id="Path_8838" data-name="Path 8838" d="M5.019,0A5.072,5.072,0,0,0,0,5.016a5.1,5.1,0,0,0,5.015,5.017,5.07,5.07,0,0,0,5.015-5.017A5.1,5.1,0,0,0,5.019,0Z" fill="#53b278"/>
      </g>
    </g>
    <g id="Group_2534" data-name="Group 2534" transform="translate(40.849 353.762)">
      <path id="Path_8839" data-name="Path 8839" d="M.33,0C.219.11.111.222,0,.329" transform="translate(5.019 4.683)" fill="#53b278"/>
      <g id="Group_2533" data-name="Group 2533">
        <path id="Path_8840" data-name="Path 8840" d="M5.019,0A5.068,5.068,0,0,0,0,5.012a5.1,5.1,0,0,0,5.015,5.017,5.072,5.072,0,0,0,5.015-5.017A5.1,5.1,0,0,0,5.019,0Z" fill="#53b278"/>
      </g>
    </g>
    <g id="Group_2535" data-name="Group 2535" transform="translate(4.286 198.134)">
      <path id="Path_8841" data-name="Path 8841" d="M0,.182c3.308-.6,6.7.367,9.8,1.655a38.144,38.144,0,0,1,14.915,10.74,28.01,28.01,0,0,1,6.553,17,12.616,12.616,0,0,1-1.2,6.143,6.449,6.449,0,0,1-4.92,3.543c-3.761.308-6.513-3.423-8.084-6.856C12.824,23.132,14.342,9.068,0,.182" transform="translate(1.979 45.57)" fill="#ea4c31" stroke="#ea4c31" stroke-miterlimit="10" stroke-width="0.55"/>
      <path id="Path_8842" data-name="Path 8842" d="M0,39.1c3.306.6,6.7-.365,9.8-1.659A38.11,38.11,0,0,0,24.717,26.7a27.994,27.994,0,0,0,6.549-17,12.526,12.526,0,0,0-1.2-6.139A6.423,6.423,0,0,0,25.142.018c-3.761-.308-6.514,3.424-8.081,6.854C12.822,16.149,14.338,30.21,0,39.1" fill="#ea4c31" stroke="#ea4c31" stroke-miterlimit="10" stroke-width="0.55"/>
      <path id="Path_8843" data-name="Path 8843" d="M0,6.185A83.359,83.359,0,0,1,22.61.357c5.585-.625,11.452-.639,16.561,1.7,3.5,1.6,6.8,5.233,5.68,8.92A6.711,6.711,0,0,1,39.893,15.2a15.9,15.9,0,0,1-6.758-.184C22.434,12.935,10.824,7.473,0,6.185" transform="translate(6.237 36.487)" fill="#ea4c31" stroke="#ea4c31" stroke-miterlimit="10" stroke-width="0.55"/>
    </g>
    <g id="Group_2536" data-name="Group 2536" transform="translate(0 251.793)">
      <path id="Path_8844" data-name="Path 8844" d="M1.192,27.364s-.1-.428-.235-1.178-.306-1.816-.448-3.1S.229,20.309.144,18.7,0,15.393,0,13.681c.007-.855.008-1.709.036-2.551.01-.841.074-1.67.106-2.474.085-1.6.21-3.1.367-4.379.139-1.285.312-2.352.447-3.1S1.192,0,1.192,0s.105.429.237,1.178.307,1.816.448,3.1.283,2.778.365,4.379c.034.8.1,1.633.107,2.474s.03,1.7.036,2.551c0,1.711-.056,3.423-.148,5.023s-.21,3.1-.364,4.383-.312,2.352-.444,3.1S1.192,27.364,1.192,27.364Z" transform="translate(5.367)" fill="#53b278"/>
      <path id="Path_8845" data-name="Path 8845" d="M0,0S.279.132.731.4s1.088.657,1.8,1.172A37.86,37.86,0,0,1,7.4,5.716a37.664,37.664,0,0,1,4.153,4.867c.514.715.9,1.35,1.169,1.8s.394.732.394.732-.278-.133-.73-.4-1.089-.654-1.8-1.17A37.782,37.782,0,0,1,5.716,7.4,37.859,37.859,0,0,1,1.568,2.531C1.052,1.817.66,1.184.4.731S0,0,0,0Z" transform="translate(0 7.123)" fill="#53b278"/>
      <path id="Path_8846" data-name="Path 8846" d="M0,13.118s.133-.276.4-.732.655-1.086,1.171-1.8a37.93,37.93,0,0,1,4.148-4.87,37.71,37.71,0,0,1,4.868-4.152c.714-.516,1.351-.906,1.8-1.17s.73-.4.73-.4-.129.279-.394.731-.655,1.088-1.169,1.8A37.667,37.667,0,0,1,7.4,7.4,38.043,38.043,0,0,1,2.531,11.55a21.355,21.355,0,0,1-1.8,1.172C.279,12.985,0,13.118,0,13.118Z" transform="translate(0 7.123)" fill="#53b278"/>
    </g>
    <g id="Group_2537" data-name="Group 2537" transform="translate(0 200.069)">
      <path id="Path_8847" data-name="Path 8847" d="M1.192,27.363s-.1-.428-.235-1.178-.306-1.818-.448-3.1S.229,20.308.144,18.7,0,15.392,0,13.68c.007-.856.008-1.709.036-2.55.01-.844.074-1.671.106-2.474.085-1.6.21-3.1.367-4.381.139-1.283.312-2.352.447-3.1S1.192,0,1.192,0s.105.429.237,1.174.307,1.819.448,3.1.283,2.779.365,4.381c.034.8.1,1.63.107,2.474s.03,1.694.036,2.55c0,1.711-.056,3.421-.148,5.023s-.21,3.1-.364,4.382-.312,2.351-.444,3.1S1.192,27.363,1.192,27.363Z" transform="translate(5.367)" fill="#53b278"/>
      <path id="Path_8848" data-name="Path 8848" d="M0,0S.279.131.731.4s1.088.657,1.8,1.171A37.789,37.789,0,0,1,7.4,5.716a37.666,37.666,0,0,1,4.153,4.868c.514.714.9,1.349,1.169,1.8s.394.733.394.733-.278-.132-.73-.4-1.089-.654-1.8-1.167A37.9,37.9,0,0,1,5.716,7.4a37.7,37.7,0,0,1-4.148-4.87C1.052,1.817.66,1.184.4.731S0,0,0,0Z" transform="translate(0 7.122)" fill="#53b278"/>
      <path id="Path_8849" data-name="Path 8849" d="M0,13.117s.133-.278.4-.73.655-1.086,1.171-1.8a37.851,37.851,0,0,1,4.148-4.87,37.693,37.693,0,0,1,4.868-4.15c.714-.518,1.351-.907,1.8-1.172s.73-.394.73-.394-.129.279-.394.731-.655,1.089-1.169,1.8A37.735,37.735,0,0,1,7.4,7.4a37.842,37.842,0,0,1-4.871,4.147,20.856,20.856,0,0,1-1.8,1.173C.279,12.985,0,13.117,0,13.117Z" transform="translate(0 7.122)" fill="#53b278"/>
    </g>
    <g id="Group_2539" data-name="Group 2539" transform="translate(40.849 217.046)">
      <path id="Path_8850" data-name="Path 8850" d="M.33,0,0,.329" transform="translate(5.019 4.685)" fill="#53b278"/>
      <g id="Group_2538" data-name="Group 2538">
        <path id="Path_8851" data-name="Path 8851" d="M5.019,0A5.073,5.073,0,0,0,0,5.015a5.1,5.1,0,0,0,5.015,5.018,5.072,5.072,0,0,0,5.015-5.018A5.1,5.1,0,0,0,5.019,0Z" fill="#53b278"/>
      </g>
    </g>
    <g id="Group_2541" data-name="Group 2541" transform="translate(40.849 254.69)">
      <path id="Path_8852" data-name="Path 8852" d="M.33,0,0,.33" transform="translate(5.019 4.688)" fill="#53b278"/>
      <g id="Group_2540" data-name="Group 2540" transform="translate(0 0)">
        <path id="Path_8853" data-name="Path 8853" d="M5.019,0A5.073,5.073,0,0,0,0,5.018a5.1,5.1,0,0,0,5.015,5.017,5.072,5.072,0,0,0,5.015-5.017A5.1,5.1,0,0,0,5.019,0Z" fill="#53b278"/>
      </g>
    </g>
    <g id="Group_2542" data-name="Group 2542" transform="translate(4.286 99.066)">
      <path id="Path_8854" data-name="Path 8854" d="M0,.18C3.308-.414,6.7.548,9.8,1.839a38.144,38.144,0,0,1,14.915,10.74,28.01,28.01,0,0,1,6.553,17,12.607,12.607,0,0,1-1.2,6.141,6.448,6.448,0,0,1-4.92,3.544c-3.761.306-6.513-3.423-8.084-6.855C12.824,23.133,14.342,9.071,0,.18" transform="translate(1.979 45.57)" fill="#ea4c31" stroke="#ea4c31" stroke-miterlimit="10" stroke-width="0.55"/>
      <path id="Path_8855" data-name="Path 8855" d="M0,39.1c3.306.6,6.7-.365,9.8-1.658A38.112,38.112,0,0,0,24.717,26.7a27.994,27.994,0,0,0,6.549-17,12.526,12.526,0,0,0-1.2-6.139A6.427,6.427,0,0,0,25.142.018c-3.761-.306-6.514,3.423-8.081,6.856C12.822,16.151,14.338,30.212,0,39.1" fill="#ea4c31" stroke="#ea4c31" stroke-miterlimit="10" stroke-width="0.55"/>
      <path id="Path_8856" data-name="Path 8856" d="M0,6.184A83.357,83.357,0,0,1,22.61.357c5.585-.625,11.452-.638,16.561,1.7,3.5,1.6,6.8,5.234,5.68,8.921A6.71,6.71,0,0,1,39.893,15.2a15.879,15.879,0,0,1-6.758-.182C22.434,12.935,10.824,7.472,0,6.184" transform="translate(6.237 36.489)" fill="#ea4c31" stroke="#ea4c31" stroke-miterlimit="10" stroke-width="0.55"/>
    </g>
    <g id="Group_2543" data-name="Group 2543" transform="translate(0 152.727)">
      <path id="Path_8857" data-name="Path 8857" d="M1.192,27.363s-.1-.428-.235-1.178-.306-1.818-.448-3.1S.229,20.308.144,18.7,0,15.393,0,13.68c.007-.855.008-1.708.036-2.55.01-.844.074-1.672.106-2.474.085-1.6.21-3.1.367-4.38.139-1.283.312-2.351.447-3.1S1.192,0,1.192,0s.105.429.237,1.176.307,1.818.448,3.1.283,2.778.365,4.38c.034.8.1,1.63.107,2.474s.03,1.695.036,2.55c0,1.713-.056,3.421-.148,5.025s-.21,3.1-.364,4.382-.312,2.351-.444,3.1S1.192,27.363,1.192,27.363Z" transform="translate(5.367)" fill="#53b278"/>
      <path id="Path_8858" data-name="Path 8858" d="M0,0S.279.13.731.4s1.088.656,1.8,1.171A37.594,37.594,0,0,1,7.4,5.715a37.6,37.6,0,0,1,4.153,4.869c.514.713.9,1.348,1.169,1.8s.394.733.394.733-.278-.132-.73-.4-1.089-.654-1.8-1.167A37.887,37.887,0,0,1,5.716,7.4a37.853,37.853,0,0,1-4.148-4.87C1.052,1.817.66,1.182.4.73S0,0,0,0Z" transform="translate(0 7.123)" fill="#53b278"/>
      <path id="Path_8859" data-name="Path 8859" d="M0,13.117s.133-.279.4-.731.655-1.087,1.171-1.8a37.852,37.852,0,0,1,4.148-4.87,37.515,37.515,0,0,1,4.868-4.15c.714-.517,1.351-.907,1.8-1.172s.73-.393.73-.393-.129.278-.394.73-.655,1.089-1.169,1.8A37.894,37.894,0,0,1,7.4,7.4a37.829,37.829,0,0,1-4.871,4.146,21.413,21.413,0,0,1-1.8,1.173C.279,12.985,0,13.117,0,13.117Z" transform="translate(0 7.123)" fill="#53b278"/>
    </g>
    <g id="Group_2544" data-name="Group 2544" transform="translate(0 101.001)">
      <path id="Path_8860" data-name="Path 8860" d="M1.192,27.364s-.1-.429-.235-1.179-.306-1.818-.448-3.1S.229,20.308.144,18.7,0,15.393,0,13.68c.007-.855.008-1.709.036-2.552.01-.842.074-1.669.106-2.471.085-1.6.21-3.1.367-4.38.139-1.284.312-2.351.447-3.1S1.192,0,1.192,0s.105.428.237,1.175.307,1.818.448,3.1.283,2.778.365,4.38c.034.8.1,1.63.107,2.471s.03,1.7.036,2.552c0,1.713-.056,3.422-.148,5.025s-.21,3.1-.364,4.382-.312,2.351-.444,3.1S1.192,27.364,1.192,27.364Z" transform="translate(5.367)" fill="#53b278"/>
      <path id="Path_8861" data-name="Path 8861" d="M0,0S.279.13.731.4s1.088.657,1.8,1.172A37.667,37.667,0,0,1,7.4,5.716a37.667,37.667,0,0,1,4.153,4.868c.514.714.9,1.349,1.169,1.8s.394.733.394.733-.278-.132-.73-.4-1.089-.654-1.8-1.169A37.979,37.979,0,0,1,5.716,7.4a37.853,37.853,0,0,1-4.148-4.87C1.052,1.818.66,1.184.4.732S0,0,0,0Z" transform="translate(0 7.122)" fill="#53b278"/>
      <path id="Path_8862" data-name="Path 8862" d="M0,13.118s.133-.279.4-.731a20.959,20.959,0,0,1,1.171-1.8A37.78,37.78,0,0,1,5.716,5.716a37.588,37.588,0,0,1,4.868-4.149C11.3,1.049,11.935.659,12.387.4s.73-.4.73-.4-.129.28-.394.732-.655,1.089-1.169,1.8A37.818,37.818,0,0,1,7.4,7.4a37.936,37.936,0,0,1-4.871,4.147c-.712.516-1.347.908-1.8,1.173S0,13.118,0,13.118Z" transform="translate(0 7.122)" fill="#53b278"/>
    </g>
    <g id="Group_2546" data-name="Group 2546" transform="translate(40.849 117.98)">
      <path id="Path_8863" data-name="Path 8863" d="M.33,0C.219.112.111.218,0,.329" transform="translate(5.019 4.684)" fill="#53b278"/>
      <g id="Group_2545" data-name="Group 2545" transform="translate(0 0)">
        <path id="Path_8864" data-name="Path 8864" d="M5.019,0A5.071,5.071,0,0,0,0,5.013a5.1,5.1,0,0,0,5.015,5.018,5.072,5.072,0,0,0,5.015-5.018A5.1,5.1,0,0,0,5.019,0Z" fill="#53b278"/>
      </g>
    </g>
    <g id="Group_2548" data-name="Group 2548" transform="translate(40.849 155.624)">
      <path id="Path_8865" data-name="Path 8865" d="M.33,0,0,.329" transform="translate(5.019 4.688)" fill="#53b278"/>
      <g id="Group_2547" data-name="Group 2547" transform="translate(0 0)">
        <path id="Path_8866" data-name="Path 8866" d="M5.019,0A5.072,5.072,0,0,0,0,5.017a5.1,5.1,0,0,0,5.015,5.017,5.072,5.072,0,0,0,5.015-5.017A5.1,5.1,0,0,0,5.019,0Z" fill="#53b278"/>
      </g>
    </g>
    <g id="Group_2549" data-name="Group 2549" transform="translate(4.286)">
      <path id="Path_8867" data-name="Path 8867" d="M0,.181c3.308-.6,6.7.368,9.8,1.658A38.1,38.1,0,0,1,24.718,12.581a28,28,0,0,1,6.553,17,12.6,12.6,0,0,1-1.2,6.139,6.445,6.445,0,0,1-4.92,3.546c-3.761.3-6.513-3.423-8.084-6.856C12.824,23.132,14.342,9.069,0,.181" transform="translate(1.979 45.569)" fill="#ea4c31" stroke="#ea4c31" stroke-miterlimit="10" stroke-width="0.55"/>
      <path id="Path_8868" data-name="Path 8868" d="M0,39.1c3.306.6,6.7-.365,9.8-1.658A38.132,38.132,0,0,0,24.717,26.7a28,28,0,0,0,6.549-17,12.534,12.534,0,0,0-1.2-6.142A6.424,6.424,0,0,0,25.142.018c-3.761-.307-6.514,3.422-8.081,6.855C12.822,16.152,14.338,30.212,0,39.1" fill="#ea4c31" stroke="#ea4c31" stroke-miterlimit="10" stroke-width="0.55"/>
      <path id="Path_8869" data-name="Path 8869" d="M0,6.184A83.316,83.316,0,0,1,22.61.357c5.585-.625,11.452-.638,16.561,1.7,3.5,1.6,6.8,5.233,5.68,8.921a6.711,6.711,0,0,1-4.959,4.22,15.879,15.879,0,0,1-6.758-.182C22.434,12.933,10.824,7.472,0,6.184" transform="translate(6.237 36.489)" fill="#ea4c31" stroke="#ea4c31" stroke-miterlimit="10" stroke-width="0.55"/>
    </g>
    <g id="Group_2550" data-name="Group 2550" transform="translate(0 53.661)">
      <path id="Path_8870" data-name="Path 8870" d="M1.192,27.362s-.1-.428-.235-1.178-.306-1.817-.448-3.1S.229,20.307.144,18.7,0,15.391,0,13.679c.007-.855.008-1.708.036-2.553.01-.841.074-1.667.106-2.47.085-1.6.21-3.1.367-4.38.139-1.284.312-2.351.447-3.1S1.192,0,1.192,0s.105.428.237,1.175.307,1.817.448,3.1.283,2.78.365,4.38c.034.8.1,1.63.107,2.47s.03,1.7.036,2.553c0,1.711-.056,3.421-.148,5.025s-.21,3.1-.364,4.382-.312,2.352-.444,3.1S1.192,27.362,1.192,27.362Z" transform="translate(5.367)" fill="#53b278"/>
      <path id="Path_8871" data-name="Path 8871" d="M0,0S.279.13.731.4s1.088.655,1.8,1.17A37.789,37.789,0,0,1,7.4,5.716a37.735,37.735,0,0,1,4.153,4.866c.514.715.9,1.351,1.169,1.8s.394.732.394.732-.278-.132-.73-.4-1.089-.654-1.8-1.169A37.8,37.8,0,0,1,5.716,7.4,37.774,37.774,0,0,1,1.568,2.532C1.052,1.818.66,1.182.4.732S0,0,0,0Z" transform="translate(0 7.122)" fill="#53b278"/>
      <path id="Path_8872" data-name="Path 8872" d="M0,13.117s.133-.278.4-.73a21.114,21.114,0,0,1,1.171-1.8,40.271,40.271,0,0,1,9.016-9.021c.714-.517,1.351-.907,1.8-1.171s.73-.394.73-.394-.129.279-.394.732-.655,1.086-1.169,1.8A37.742,37.742,0,0,1,7.4,7.4a37.846,37.846,0,0,1-4.871,4.147,21.412,21.412,0,0,1-1.8,1.173C.279,12.985,0,13.117,0,13.117Z" transform="translate(0 7.122)" fill="#53b278"/>
    </g>
    <g id="Group_2551" data-name="Group 2551" transform="translate(0 1.935)">
      <path id="Path_8873" data-name="Path 8873" d="M1.192,27.363s-.1-.428-.235-1.178-.306-1.818-.448-3.1S.229,20.308.144,18.7,0,15.392,0,13.68c.007-.855.008-1.711.036-2.553.01-.842.074-1.669.106-2.471.085-1.6.21-3.1.367-4.379.139-1.284.312-2.354.447-3.1S1.192,0,1.192,0s.105.426.237,1.175.307,1.818.448,3.1.283,2.778.365,4.379c.034.8.1,1.63.107,2.471s.03,1.7.036,2.553c0,1.711-.056,3.42-.148,5.025s-.21,3.1-.364,4.381-.312,2.352-.444,3.1S1.192,27.363,1.192,27.363Z" transform="translate(5.367)" fill="#53b278"/>
      <path id="Path_8874" data-name="Path 8874" d="M0,0S.279.13.731.394s1.088.659,1.8,1.173A37.789,37.789,0,0,1,7.4,5.716a37.883,37.883,0,0,1,4.153,4.865c.514.717.9,1.352,1.169,1.8s.394.73.394.73-.278-.129-.73-.393-1.089-.654-1.8-1.17A37.872,37.872,0,0,1,5.716,7.4,37.784,37.784,0,0,1,1.568,2.53C1.052,1.817.66,1.182.4.731S0,0,0,0Z" transform="translate(0 7.122)" fill="#53b278"/>
      <path id="Path_8875" data-name="Path 8875" d="M0,13.115s.133-.276.4-.728a21.125,21.125,0,0,1,1.171-1.8,40.245,40.245,0,0,1,9.016-9.022c.714-.516,1.351-.906,1.8-1.171s.73-.394.73-.394-.129.279-.394.731-.655,1.086-1.169,1.8A37.745,37.745,0,0,1,7.4,7.4a37.919,37.919,0,0,1-4.871,4.146c-.712.517-1.347.909-1.8,1.174S0,13.115,0,13.115Z" transform="translate(0 7.122)" fill="#53b278"/>
    </g>
    <g id="Group_2553" data-name="Group 2553" transform="translate(40.849 18.913)">
      <path id="Path_8876" data-name="Path 8876" d="M.33,0C.219.109.111.219,0,.33" transform="translate(5.019 4.684)" fill="#53b278"/>
      <g id="Group_2552" data-name="Group 2552">
        <path id="Path_8877" data-name="Path 8877" d="M5.019,0A5.072,5.072,0,0,0,0,5.015a5.1,5.1,0,0,0,5.015,5.013,5.068,5.068,0,0,0,5.015-5.013A5.1,5.1,0,0,0,5.019,0Z" fill="#53b278"/>
      </g>
    </g>
    <g id="Group_2555" data-name="Group 2555" transform="translate(40.849 56.558)">
      <path id="Path_8878" data-name="Path 8878" d="M.33,0C.219.107.111.218,0,.329" transform="translate(5.019 4.687)" fill="#53b278"/>
      <g id="Group_2554" data-name="Group 2554" transform="translate(0 0)">
        <path id="Path_8879" data-name="Path 8879" d="M5.019,0A5.071,5.071,0,0,0,0,5.016,5.1,5.1,0,0,0,5.019,10.03a5.069,5.069,0,0,0,5.015-5.015A5.1,5.1,0,0,0,5.019,0Z" fill="#53b278"/>
      </g>
    </g>
  </g>
</svg>
