<svg xmlns="http://www.w3.org/2000/svg" width="71.834" height="1248.327" viewBox="0 0 71.834 1248.327">
  <g id="Group_2587" data-name="Group 2587" transform="translate(-133.668 -6557.25)">
    <g id="Group_2438" data-name="Group 2438" transform="translate(133.668 6507.68)">
      <g id="Group_2420" data-name="Group 2420" transform="translate(18.472 49.569)">
        <rect id="Rectangle_972" data-name="Rectangle 972" width="16.419" height="751.276" transform="translate(0 0)" fill="#ea4c31"/>
      </g>
      <g id="Group_2421" data-name="Group 2421" transform="translate(0 49.569)">
        <rect id="Rectangle_973" data-name="Rectangle 973" width="8.21" height="751.276" transform="translate(0 0)" fill="#ea4c31"/>
      </g>
      <g id="Group_2422" data-name="Group 2422" transform="translate(15.865 743.543)">
        <path id="Path_8712" data-name="Path 8712" d="M924.541,310.751a27.984,27.984,0,1,0,27.984-27.978A27.985,27.985,0,0,0,924.541,310.751Zm38.634,0a10.648,10.648,0,1,1-10.65-10.648A10.647,10.647,0,0,1,963.175,310.751Z" transform="translate(-924.541 -282.773)" fill="#ea4c31"/>
      </g>
      <g id="Group_2423" data-name="Group 2423" transform="translate(15.865 693.976)">
        <path id="Path_8713" data-name="Path 8713" d="M924.541,286.6a27.984,27.984,0,1,0,27.984-27.978A27.985,27.985,0,0,0,924.541,286.6Zm38.634,0a10.648,10.648,0,1,1-10.65-10.65A10.648,10.648,0,0,1,963.175,286.6Z" transform="translate(-924.541 -258.622)" fill="#ea4c31"/>
      </g>
      <g id="Group_2424" data-name="Group 2424" transform="translate(15.865 644.404)">
        <path id="Path_8714" data-name="Path 8714" d="M924.541,262.449a27.984,27.984,0,1,0,27.984-27.98A27.981,27.981,0,0,0,924.541,262.449Zm38.634,0a10.648,10.648,0,1,1-10.65-10.65A10.652,10.652,0,0,1,963.175,262.449Z" transform="translate(-924.541 -234.469)" fill="#ea4c31"/>
      </g>
      <g id="Group_2425" data-name="Group 2425" transform="translate(15.865 594.835)">
        <path id="Path_8715" data-name="Path 8715" d="M924.541,238.3a27.984,27.984,0,1,0,27.984-27.98A27.983,27.983,0,0,0,924.541,238.3Zm38.634,0a10.648,10.648,0,1,1-10.65-10.648A10.648,10.648,0,0,1,963.175,238.3Z" transform="translate(-924.541 -210.317)" fill="#ea4c31"/>
      </g>
      <g id="Group_2426" data-name="Group 2426" transform="translate(15.865 545.267)">
        <path id="Path_8716" data-name="Path 8716" d="M924.541,214.142a27.984,27.984,0,1,0,27.984-27.976A27.982,27.982,0,0,0,924.541,214.142Zm38.634,0a10.648,10.648,0,1,1-10.65-10.648A10.65,10.65,0,0,1,963.175,214.142Z" transform="translate(-924.541 -186.166)" fill="#ea4c31"/>
      </g>
      <g id="Group_2427" data-name="Group 2427" transform="translate(15.865 495.698)">
        <path id="Path_8717" data-name="Path 8717" d="M924.541,189.99a27.984,27.984,0,1,0,27.984-27.976A27.985,27.985,0,0,0,924.541,189.99Zm38.634,0a10.648,10.648,0,1,1-10.65-10.644A10.649,10.649,0,0,1,963.175,189.99Z" transform="translate(-924.541 -162.014)" fill="#ea4c31"/>
      </g>
      <g id="Group_2428" data-name="Group 2428" transform="translate(15.865 446.126)">
        <path id="Path_8718" data-name="Path 8718" d="M924.541,165.843a27.984,27.984,0,1,0,27.984-27.982A27.983,27.983,0,0,0,924.541,165.843Zm38.634,0a10.648,10.648,0,1,1-10.65-10.65A10.651,10.651,0,0,1,963.175,165.843Z" transform="translate(-924.541 -137.861)" fill="#ea4c31"/>
      </g>
      <g id="Group_2429" data-name="Group 2429" transform="translate(15.865 396.554)">
        <path id="Path_8719" data-name="Path 8719" d="M924.541,141.69a27.984,27.984,0,1,0,27.984-27.982A27.985,27.985,0,0,0,924.541,141.69Zm38.634,0a10.648,10.648,0,1,1-10.65-10.648A10.65,10.65,0,0,1,963.175,141.69Z" transform="translate(-924.541 -113.708)" fill="#ea4c31"/>
      </g>
      <g id="Group_2430" data-name="Group 2430" transform="translate(15.865 346.985)">
        <path id="Path_8720" data-name="Path 8720" d="M924.541,117.54a27.984,27.984,0,1,0,27.984-27.984A27.983,27.983,0,0,0,924.541,117.54Zm38.634,0a10.648,10.648,0,1,1-10.65-10.65A10.648,10.648,0,0,1,963.175,117.54Z" transform="translate(-924.541 -89.556)" fill="#ea4c31"/>
      </g>
      <g id="Group_2431" data-name="Group 2431" transform="translate(15.865 297.417)">
        <path id="Path_8721" data-name="Path 8721" d="M924.541,93.387A27.984,27.984,0,1,0,952.525,65.4,27.985,27.985,0,0,0,924.541,93.387Zm38.634,0a10.648,10.648,0,1,1-10.65-10.648A10.652,10.652,0,0,1,963.175,93.387Z" transform="translate(-924.541 -65.405)" fill="#ea4c31"/>
      </g>
      <g id="Group_2432" data-name="Group 2432" transform="translate(15.865 247.846)">
        <path id="Path_8722" data-name="Path 8722" d="M924.541,69.239a27.984,27.984,0,1,0,27.984-27.987A27.983,27.983,0,0,0,924.541,69.239Zm38.634,0a10.648,10.648,0,1,1-10.65-10.652A10.649,10.649,0,0,1,963.175,69.239Z" transform="translate(-924.541 -41.252)" fill="#ea4c31"/>
      </g>
      <g id="Group_2433" data-name="Group 2433" transform="translate(15.865 198.276)">
        <path id="Path_8723" data-name="Path 8723" d="M924.541,45.084A27.984,27.984,0,1,0,952.525,17.1,27.984,27.984,0,0,0,924.541,45.084Zm38.634,0a10.648,10.648,0,1,1-10.65-10.648A10.649,10.649,0,0,1,963.175,45.084Z" transform="translate(-924.541 -17.1)" fill="#ea4c31"/>
      </g>
      <g id="Group_2434" data-name="Group 2434" transform="translate(15.865 148.707)">
        <path id="Path_8724" data-name="Path 8724" d="M924.541,20.937A27.984,27.984,0,1,0,952.525-7.052,27.985,27.985,0,0,0,924.541,20.937Zm38.634,0a10.648,10.648,0,1,1-10.65-10.652A10.648,10.648,0,0,1,963.175,20.937Z" transform="translate(-924.541 7.052)" fill="#ea4c31"/>
      </g>
      <g id="Group_2435" data-name="Group 2435" transform="translate(15.865 99.139)">
        <path id="Path_8725" data-name="Path 8725" d="M924.541-3.219a27.982,27.982,0,0,0,27.984,27.98A27.979,27.979,0,0,0,980.51-3.219,27.984,27.984,0,0,0,952.525-31.2,27.987,27.987,0,0,0,924.541-3.219Zm38.634,0a10.651,10.651,0,0,1-10.65,10.646A10.648,10.648,0,0,1,941.88-3.219,10.65,10.65,0,0,1,952.525-13.87,10.654,10.654,0,0,1,963.175-3.219Z" transform="translate(-924.541 31.203)" fill="#ea4c31"/>
      </g>
      <g id="Group_2436" data-name="Group 2436" transform="translate(15.865 49.57)">
        <path id="Path_8726" data-name="Path 8726" d="M924.541-27.371A27.985,27.985,0,0,0,952.525.61a27.982,27.982,0,0,0,27.984-27.98,27.984,27.984,0,0,0-27.984-27.984A27.987,27.987,0,0,0,924.541-27.371Zm38.634,0a10.648,10.648,0,0,1-10.65,10.644A10.645,10.645,0,0,1,941.88-27.371a10.65,10.65,0,0,1,10.646-10.65A10.653,10.653,0,0,1,963.175-27.371Z" transform="translate(-924.541 55.355)" fill="#ea4c31"/>
      </g>
    </g>
    <g id="Group_2457" data-name="Group 2457" transform="translate(133.668 7006.07)">
      <g id="Group_2439" data-name="Group 2439" transform="translate(18.472 291.049)">
        <rect id="Rectangle_974" data-name="Rectangle 974" width="16.419" height="507.577" fill="#ea4c31"/>
      </g>
      <g id="Group_2440" data-name="Group 2440" transform="translate(0 291.049)">
        <rect id="Rectangle_975" data-name="Rectangle 975" width="8.21" height="507.577" fill="#ea4c31"/>
      </g>
      <g id="Group_2441" data-name="Group 2441" transform="translate(15.865 743.543)">
        <path id="Path_8728" data-name="Path 8728" d="M924.541,671.835a27.984,27.984,0,1,0,27.984-27.98A27.986,27.986,0,0,0,924.541,671.835Zm38.634,0a10.648,10.648,0,1,1-10.65-10.652A10.65,10.65,0,0,1,963.175,671.835Z" transform="translate(-924.541 -643.855)" fill="#ea4c31"/>
      </g>
      <g id="Group_2442" data-name="Group 2442" transform="translate(15.865 693.978)">
        <path id="Path_8729" data-name="Path 8729" d="M924.541,647.681a27.984,27.984,0,1,0,27.984-27.976A27.986,27.986,0,0,0,924.541,647.681Zm38.634,0a10.648,10.648,0,1,1-10.65-10.65A10.648,10.648,0,0,1,963.175,647.681Z" transform="translate(-924.541 -619.705)" fill="#ea4c31"/>
      </g>
      <g id="Group_2443" data-name="Group 2443" transform="translate(15.865 644.406)">
        <path id="Path_8730" data-name="Path 8730" d="M924.541,623.532a27.984,27.984,0,1,0,27.984-27.98A27.986,27.986,0,0,0,924.541,623.532Zm38.634,0a10.648,10.648,0,1,1-10.65-10.65A10.648,10.648,0,0,1,963.175,623.532Z" transform="translate(-924.541 -595.552)" fill="#ea4c31"/>
      </g>
      <g id="Group_2444" data-name="Group 2444" transform="translate(15.865 594.837)">
        <path id="Path_8731" data-name="Path 8731" d="M924.541,599.38a27.984,27.984,0,1,0,27.984-27.98A27.984,27.984,0,0,0,924.541,599.38Zm38.634,0a10.648,10.648,0,1,1-10.65-10.648A10.648,10.648,0,0,1,963.175,599.38Z" transform="translate(-924.541 -571.4)" fill="#ea4c31"/>
      </g>
      <g id="Group_2445" data-name="Group 2445" transform="translate(15.865 545.267)">
        <path id="Path_8732" data-name="Path 8732" d="M924.541,575.226a27.984,27.984,0,1,0,27.984-27.978A27.982,27.982,0,0,0,924.541,575.226Zm38.634,0a10.648,10.648,0,1,1-10.65-10.648A10.65,10.65,0,0,1,963.175,575.226Z" transform="translate(-924.541 -547.248)" fill="#ea4c31"/>
      </g>
      <g id="Group_2446" data-name="Group 2446" transform="translate(15.865 495.698)">
        <path id="Path_8733" data-name="Path 8733" d="M924.541,551.076a27.984,27.984,0,1,0,27.984-27.98A27.984,27.984,0,0,0,924.541,551.076Zm38.634,0a10.648,10.648,0,1,1-10.65-10.648A10.651,10.651,0,0,1,963.175,551.076Z" transform="translate(-924.541 -523.096)" fill="#ea4c31"/>
      </g>
      <g id="Group_2447" data-name="Group 2447" transform="translate(15.865 446.128)">
        <path id="Path_8734" data-name="Path 8734" d="M924.541,526.924a27.984,27.984,0,1,0,27.984-27.98A27.983,27.983,0,0,0,924.541,526.924Zm38.634,0a10.648,10.648,0,1,1-10.65-10.65A10.648,10.648,0,0,1,963.175,526.924Z" transform="translate(-924.541 -498.944)" fill="#ea4c31"/>
      </g>
      <g id="Group_2448" data-name="Group 2448" transform="translate(15.865 396.558)">
        <path id="Path_8735" data-name="Path 8735" d="M924.541,502.772a27.984,27.984,0,1,0,27.984-27.98A27.983,27.983,0,0,0,924.541,502.772Zm38.634,0a10.648,10.648,0,1,1-10.65-10.65A10.647,10.647,0,0,1,963.175,502.772Z" transform="translate(-924.541 -474.792)" fill="#ea4c31"/>
      </g>
      <g id="Group_2449" data-name="Group 2449" transform="translate(15.865 346.985)">
        <path id="Path_8736" data-name="Path 8736" d="M924.541,478.622a27.984,27.984,0,1,0,27.984-27.984A27.985,27.985,0,0,0,924.541,478.622Zm38.634,0a10.648,10.648,0,1,1-10.65-10.648A10.65,10.65,0,0,1,963.175,478.622Z" transform="translate(-924.541 -450.638)" fill="#ea4c31"/>
      </g>
      <g id="Group_2450" data-name="Group 2450" transform="translate(15.865 297.421)">
        <path id="Path_8737" data-name="Path 8737" d="M924.541,454.471a27.984,27.984,0,1,0,27.984-27.982A27.982,27.982,0,0,0,924.541,454.471Zm38.634,0a10.648,10.648,0,1,1-10.65-10.652A10.649,10.649,0,0,1,963.175,454.471Z" transform="translate(-924.541 -426.489)" fill="#ea4c31"/>
      </g>
    </g>
  </g>
</svg>
