<svg xmlns="http://www.w3.org/2000/svg" width="76.785" height="76.785" viewBox="0 0 76.785 76.785">
  <g id="Group_2681" data-name="Group 2681" transform="translate(-1113.608 -921.963)">
    <circle id="Ellipse_71" data-name="Ellipse 71" cx="38" cy="38" r="38" transform="translate(1114 922.355)" fill="#fff"/>
    <g id="instagram_1_" data-name="instagram (1)" transform="translate(1113.608 921.963)">
      <path id="Path_14119" data-name="Path 14119" d="M221.7,214.349A7.349,7.349,0,1,1,214.349,207,7.348,7.348,0,0,1,221.7,214.349Zm0,0" transform="translate(-175.956 -175.956)" fill="#52021f"/>
      <path id="Path_14120" data-name="Path 14120" d="M170.744,140.56a7.3,7.3,0,0,0-4.184-4.184,12.2,12.2,0,0,0-4.093-.759c-2.325-.106-3.022-.129-8.909-.129s-6.584.022-8.909.128a12.206,12.206,0,0,0-4.093.759,7.3,7.3,0,0,0-4.185,4.184,12.2,12.2,0,0,0-.759,4.094c-.106,2.325-.129,3.022-.129,8.909s.023,6.583.129,8.909a12.2,12.2,0,0,0,.759,4.093,7.3,7.3,0,0,0,4.184,4.184,12.182,12.182,0,0,0,4.094.759c2.325.106,3.021.128,8.908.128s6.585-.022,8.909-.128a12.182,12.182,0,0,0,4.094-.759,7.3,7.3,0,0,0,4.184-4.184,12.207,12.207,0,0,0,.759-4.093c.106-2.325.128-3.022.128-8.909s-.022-6.584-.128-8.909A12.182,12.182,0,0,0,170.744,140.56Zm-17.186,24.322a11.32,11.32,0,1,1,11.32-11.32A11.32,11.32,0,0,1,153.558,164.882Zm11.768-20.443a2.646,2.646,0,1,1,2.646-2.646A2.646,2.646,0,0,1,165.326,144.439Zm0,0" transform="translate(-115.166 -115.169)" fill="#52021f"/>
      <path id="Path_14121" data-name="Path 14121" d="M38.392,0A38.392,38.392,0,1,0,76.785,38.392,38.4,38.4,0,0,0,38.392,0ZM60.305,47.481a16.175,16.175,0,0,1-1.025,5.351,11.272,11.272,0,0,1-6.448,6.448,16.185,16.185,0,0,1-5.351,1.025c-2.351.107-3.1.133-9.089.133s-6.738-.026-9.09-.133a16.186,16.186,0,0,1-5.351-1.025A11.272,11.272,0,0,1,17.5,52.833a16.171,16.171,0,0,1-1.025-5.351c-.108-2.351-.134-3.1-.134-9.09s.025-6.738.133-9.089A16.176,16.176,0,0,1,17.5,23.952,11.28,11.28,0,0,1,23.952,17.5,16.189,16.189,0,0,1,29.3,16.48c2.351-.107,3.1-.133,9.089-.133s6.738.026,9.089.134A16.193,16.193,0,0,1,52.833,17.5a11.276,11.276,0,0,1,6.448,6.448A16.173,16.173,0,0,1,60.306,29.3c.107,2.351.132,3.1.132,9.089S60.413,45.131,60.305,47.481Zm0,0" fill="#52021f"/>
    </g>
  </g>
</svg>
