<svg xmlns="http://www.w3.org/2000/svg" width="77" height="76" viewBox="0 0 77 76">
  <g id="Group_2682" data-name="Group 2682" transform="translate(-1262 -922.355)">
    <ellipse id="Ellipse_70" data-name="Ellipse 70" cx="38.5" cy="38" rx="38.5" ry="38" transform="translate(1262 922.355)" fill="#52021f"/>
    <g id="Layer_2" data-name="Layer 2" transform="translate(1279.094 937.849)">
      <g id="linkedin" transform="translate(0.001 0)">
        <rect id="Rectangle_1127" data-name="Rectangle 1127" width="42" height="43" transform="translate(41.906 42.506) rotate(180)" fill="#fff" opacity="0"/>
        <path id="Path_14122" data-name="Path 14122" d="M19.626,8.4A10.291,10.291,0,0,0,9.3,18.673V29.052a1.589,1.589,0,0,0,1.589,1.589H14.6a1.589,1.589,0,0,0,1.589-1.589V18.673a3.424,3.424,0,0,1,3.8-3.407,3.53,3.53,0,0,1,3.089,3.53V29.052a1.589,1.589,0,0,0,1.589,1.589h3.707a1.589,1.589,0,0,0,1.589-1.589V18.673A10.291,10.291,0,0,0,19.626,8.4Z" transform="translate(7.117 6.428)" fill="#fff"/>
        <rect id="Rectangle_1128" data-name="Rectangle 1128" width="7.943" height="20.652" rx="0.9" transform="translate(5.296 16.417)" fill="#fff"/>
        <circle id="Ellipse_72" data-name="Ellipse 72" cx="4" cy="4" r="4" transform="translate(4.905 5.506)" fill="#fff"/>
      </g>
    </g>
  </g>
</svg>
