<svg xmlns="http://www.w3.org/2000/svg" xmlns:xlink="http://www.w3.org/1999/xlink" width="425.805" height="425.804" viewBox="0 0 425.805 425.804">
  <defs>
    <linearGradient id="linear-gradient" y1="0.5" x2="1" y2="0.5" gradientUnits="objectBoundingBox">
      <stop offset="0" stop-color="#821b00"/>
      <stop offset="1" stop-color="#bf2e0a"/>
    </linearGradient>
  </defs>
  <g id="Group_2679" data-name="Group 2679" transform="translate(-11917.098 -1059.184)">
    <path id="Path_14123" data-name="Path 14123" d="M450.757,450.756c-17.969-19.027-4.338-51.264,14.09-71.23,12.16-11.991,35.194-38.778,25.344-54.157l9.168-9.168a29.742,29.742,0,0,0,0-42.064l-9.168-9.168c9.85-15.379-13.184-42.166-25.344-54.157-18.429-19.966-32.06-52.2-14.09-71.23-19.027,17.969-51.264,4.338-71.23-14.09-11.991-12.16-38.778-35.194-54.157-25.344L316.2,90.978a29.745,29.745,0,0,0-42.064,0l-9.168,9.169c-15.379-9.85-42.166,13.184-54.157,25.344-19.966,18.429-52.2,32.06-71.23,14.09,17.969,19.027,4.338,51.264-14.09,71.23C113.332,222.8,90.3,249.59,100.148,264.969l-9.169,9.168a29.745,29.745,0,0,0,0,42.064l9.169,9.168c-9.85,15.379,13.184,42.166,25.344,54.157,18.429,19.966,32.06,52.2,14.09,71.23,19.027-17.969,51.264-4.338,71.23,14.09,11.991,12.16,38.778,35.194,54.157,25.344l9.168,9.168a29.743,29.743,0,0,0,42.064,0l9.168-9.168c15.379,9.85,42.166-13.184,54.157-25.344C399.492,446.418,431.73,432.787,450.757,450.756Z" transform="translate(11834.831 976.917)" fill="#ffe66b"/>
    <path id="Path_14124" data-name="Path 14124" d="M436.026,436.026c-16.651-17.63-4.02-47.5,13.056-66,11.268-11.111,32.612-35.934,23.486-50.184l8.5-8.5a27.561,27.561,0,0,0,0-38.977l-8.5-8.5c9.126-14.25-12.218-39.073-23.486-50.184-17.076-18.5-29.707-48.373-13.056-66-17.63,16.651-47.5,4.02-66-13.056-11.111-11.267-35.934-32.612-50.184-23.486l-8.5-8.5a27.561,27.561,0,0,0-38.977,0l-8.5,8.5c-14.25-9.126-39.073,12.218-50.184,23.486-18.5,17.076-48.373,29.706-66,13.056,16.651,17.63,4.02,47.5-13.056,66-11.267,11.111-32.612,35.934-23.486,50.184l-8.5,8.5a27.561,27.561,0,0,0,0,38.977l8.5,8.5c-9.126,14.25,12.218,39.073,23.486,50.184,17.076,18.5,29.707,48.373,13.056,66,17.63-16.651,47.5-4.02,66,13.056,11.111,11.268,35.934,32.612,50.184,23.486l8.5,8.5a27.561,27.561,0,0,0,38.977,0l8.5-8.5c14.25,9.126,39.073-12.218,50.184-23.486C388.523,432.006,418.4,419.375,436.026,436.026Z" transform="translate(11838.146 980.231)" fill="url(#linear-gradient)"/>
    <path id="Path_14125" data-name="Path 14125" d="M421.249,421.248c-15.328-16.229-3.7-43.73,12.019-60.761,10.373-10.228,30.021-33.078,21.62-46.2l7.82-7.821a25.369,25.369,0,0,0,0-35.88l-7.82-7.821c8.4-13.118-11.247-35.968-21.62-46.2-15.719-17.033-27.347-44.532-12.019-60.761-16.229,15.328-43.73,3.7-60.761-12.019-10.228-10.373-33.078-30.021-46.2-21.62l-7.821-7.821a25.371,25.371,0,0,0-35.88,0l-7.821,7.821c-13.118-8.4-35.968,11.247-46.2,21.62-17.033,15.719-44.532,27.347-60.761,12.019,15.328,16.229,3.7,43.728-12.019,60.761-10.373,10.228-30.021,33.078-21.62,46.2l-7.821,7.821a25.371,25.371,0,0,0,0,35.88l7.821,7.821c-8.4,13.118,11.247,35.968,21.62,46.2,15.719,17.031,27.347,44.532,12.019,60.761,16.229-15.328,43.728-3.7,60.761,12.019,10.228,10.373,33.078,30.021,46.2,21.62l7.821,7.82a25.369,25.369,0,0,0,35.88,0l7.821-7.82c13.118,8.4,35.968-11.247,46.2-21.62C377.519,417.548,405.02,405.92,421.249,421.248Z" transform="translate(11841.47 983.556)" fill="#fff" stroke="#db2d00" stroke-miterlimit="10" stroke-width="2"/>
  </g>
</svg>
