<svg id="_2nd_Building" data-name="2nd Building" xmlns="http://www.w3.org/2000/svg" width="1182.268" height="807.135" viewBox="0 0 1182.268 807.135">
  <path id="Path_8662" data-name="Path 8662" d="M1298.768,660.022a7.034,7.034,0,0,0-7.187-6.859V619.554h3.6V612.34h-42.426V499.462c-.229.115-.516.094-.516-.224V449.38c0-.313.286-.354.516-.255V411.537H1266.3v-7.2H1259.3V379.548a5.1,5.1,0,0,0-4.922-3.583V364.642h6.083a1.536,1.536,0,1,0,0-3.068h-.958c0-11.719-8.406-12.057-8.391-12.036a8.281,8.281,0,0,0-7.75-7.062v-5.437a.655.655,0,0,0-1.307,0v5.437a8.268,8.268,0,0,0-7.75,7.062,7.6,7.6,0,0,0-.781.088c.088-.016.208-.042.282-.052V292.529h6.109v-3.167h-6.109v-11.4c12.781-16.515,2.406-47.249-27.25-56.4h.036v-6.776h-1.807V209.64h1.807v-1.906h-7.109s-6.932-5.255-8.468-10.666a27.867,27.867,0,0,1-.667-3.016h1.4a1.257,1.257,0,1,0,0-2.51h-1.75c-.042-.281-.068-.557-.094-.828h1.026a.954.954,0,1,0,0-1.906h-1.177c-.1-1.734-.1-2.911-.1-2.911a4.829,4.829,0,0,0,4.4-5.1c0-3.167-2.516-4.25-4.219-4.63l.016-.2-.089-1.562h1.177a.954.954,0,1,0,0-1.906h-1.281l-.062-1.073h2.161a1.262,1.262,0,1,0,0-2.521h-2.3l-1.156-20.781-1.167,20.781h-2.3a1.261,1.261,0,1,0,0,2.521h2.161l-.047,1.073h-1.3a.954.954,0,1,0,0,1.906h1.177l-.073,1.562v.2c-1.708.38-4.219,1.464-4.219,4.63a4.829,4.829,0,0,0,4.4,5.1s.016,1.177-.1,2.911h-1.177a.954.954,0,1,0,0,1.906h1.026q-.039.406-.078.828h-1.766a1.256,1.256,0,1,0,0,2.51h1.406a30.669,30.669,0,0,1-.677,3.016c-1.526,5.411-8.468,10.666-8.468,10.666h-7.1v1.906h1.8v5.146h-1.8v6.708c-29.27,8.818-38.749,38.458-27.208,56.468v11.4h-6.115v3.167h6.115v57.056l.167.042a5.675,5.675,0,0,0-.682-.088,8.254,8.254,0,0,0-7.75-7.062v-5.437a.637.637,0,0,0-.651-.609.627.627,0,0,0-.641.609v5.437a8.253,8.253,0,0,0-7.75,7.062c0-.021-8.406,0-8.406,12.036h-.963a1.535,1.535,0,1,0,0,3.068h6.088v11.323a5.106,5.106,0,0,0-4.922,3.583v24.791h-7.005v7.2h13.568v45.254c.229-.1.505-.078.505.234v43.286c0,.307-.276.349-.505.266V571.1h-.068V559.878h-6.031a5.063,5.063,0,0,0-4.906-3.578V544.972h6.073a1.536,1.536,0,1,0,0-3.068h-.948c0-11.719-8.406-12.057-8.406-12.047a8.282,8.282,0,0,0-7.75-7.052v-5.437a.654.654,0,0,0-1.307,0v5.437a8.282,8.282,0,0,0-7.75,7.052c.016-.01-8.406,0-8.406,12.047h-.948a1.536,1.536,0,1,0,0,3.068h6.073V556.3a5.063,5.063,0,0,0-4.906,3.578H1076.3a5.057,5.057,0,0,0-4.917-3.578V544.972h6.083a1.536,1.536,0,1,0,0-3.068h-.948c0-11.719-8.417-12.057-8.417-12.047a8.266,8.266,0,0,0-7.734-7.052v-5.437a.654.654,0,0,0-1.307,0v5.437a8.268,8.268,0,0,0-7.75,7.052s-8.406,0-8.406,12.047h-.948a1.536,1.536,0,1,0,0,3.068h6.073V556.3a5.092,5.092,0,0,0-4.922,3.578h-8.224a5.062,5.062,0,0,0-4.917-3.578V544.972h6.083a1.535,1.535,0,1,0,0-3.068h-.958c0-11.719-8.406-12.057-8.406-12.047a8.268,8.268,0,0,0-7.75-7.052v-5.437a.649.649,0,0,0-1.3,0v5.437a8.278,8.278,0,0,0-7.75,7.052s-8.4,0-8.4,12.047h-.963a1.535,1.535,0,1,0,0,3.068h6.083V556.3a5.067,5.067,0,0,0-4.916,3.578h-8.239a5.059,5.059,0,0,0-4.906-3.578V544.972h6.072a1.536,1.536,0,1,0,0-3.068h-.948c0-11.719-8.4-12.057-8.4-12.047a8.278,8.278,0,0,0-7.75-7.052v-5.437a.643.643,0,0,0-.656-.62.629.629,0,0,0-.641.62v5.437a8.268,8.268,0,0,0-7.75,7.052s-8.406,0-8.406,12.047h-.958a1.536,1.536,0,1,0,0,3.068H965.2V556.3a5.062,5.062,0,0,0-4.917,3.578h-8.239a5.064,5.064,0,0,0-4.906-3.578,5.335,5.335,0,0,1,1.526.229V544.972h4.547a1.536,1.536,0,1,0,0-3.068h-.948c0-5.552-1.9-8.5-3.885-10.114.094.073.193.109.286.193V471.8h.25V450.218h-.25V413.126a9.607,9.607,0,0,1-1.281.12,7.176,7.176,0,0,0,1.531-.3V399.673a7.178,7.178,0,0,0-1.531-.3,7.567,7.567,0,0,1,1.281.125V370.8c0-18.645,51.936-65.806-1.193-91.415,0-11.974-5.969-17.88-11.953-20.786V240.921c0-3.427-2.63-5.693-6.125-6.854.047.016.1.016.141.031V187.156s.781-8.219-5.969-8.219-5.969,8.219-5.969,8.219V234.1a1.237,1.237,0,0,0,.135-.031c-3.495,1.161-6.12,3.427-6.12,6.854V258.6c-5.984,2.906-11.953,8.812-11.953,20.786-13.067,6.3-19.76,13.937-22.453,22.14l.021-.089c-36.572-53.905-91.738-65.842-91.738-65.842h.307a6.826,6.826,0,0,0,2.5-5.255,7.336,7.336,0,0,0-14.656,0,6.578,6.578,0,0,0,.073,1.016c-.052-.036-.1-.062-.151-.1a7.591,7.591,0,0,0,.078-.917,7.179,7.179,0,0,0-7.344-6.989,7.436,7.436,0,0,0-4.969,1.911c.052-.047.073-.12.125-.167-21.255-12.812-41.4-32.13-41.567-32.291a4.294,4.294,0,0,1,.521.063V178.188c0-9.526,26.557-26.2-.615-39.28,0-6.125-3.047-9.125-6.1-10.62v-9.042c0-1.807-1.458-2.948-3.333-3.526.083.031.188.016.271.047v-24s.4-4.213-3.047-4.213-3.062,4.213-3.062,4.213v24c.094-.031.2-.021.3-.047-1.88.573-3.344,1.714-3.344,3.526v9.042c-3.063,1.495-6.109,4.495-6.109,10.62-27.161,13.083-.6,30.046-.6,39.28v14.677a3.212,3.212,0,0,1,.641-.073s-20.239,19.437-41.6,32.3c.052.042.068.109.12.151a7.441,7.441,0,0,0-4.948-1.9,7.162,7.162,0,0,0-7.328,6.989,7.6,7.6,0,0,0,.062.917c-.052.037-.1.063-.151.1a6.575,6.575,0,0,0,.089-1.016,7.342,7.342,0,0,0-14.666,0,6.855,6.855,0,0,0,2.495,5.255s-54.957,11.885-91.519,65.551c.026.083.031.172.063.26-2.719-8.156-9.4-15.755-22.406-22.02,0-11.974-5.969-17.88-11.953-20.786V240.921c0-3.443-2.651-5.713-6.172-6.87.063.021.135.026.2.047V187.156s.781-8.219-5.984-8.219c-6.739,0-5.969,8.219-5.969,8.219V234.1a1.241,1.241,0,0,0,.135-.031c-3.495,1.161-6.12,3.427-6.12,6.854V258.6c-5.969,2.906-11.953,8.812-11.953,20.786-53.124,25.609-1.177,72.769-1.177,91.415v28.7a7.232,7.232,0,0,1,1.266-.125,7.351,7.351,0,0,0-1.917.37v13.13a7.353,7.353,0,0,0,1.917.37,9.139,9.139,0,0,1-1.266-.12v37.093h-.651V471.8h.651v60.066a2.115,2.115,0,0,1,.224-.151c-1.963,1.589-3.823,4.536-3.823,10.193h-.964a1.535,1.535,0,1,0,0,3.068h4.562v11.557a5.147,5.147,0,0,1,1.51-.229,5.063,5.063,0,0,0-4.906,3.578h-8.239a5.058,5.058,0,0,0-4.906-3.578V544.972h6.073a1.536,1.536,0,1,0,0-3.068h-.948c0-11.719-8.4-12.057-8.4-12.047a8.288,8.288,0,0,0-7.755-7.052v-5.437a.652.652,0,0,0-1.3,0v5.437a8.278,8.278,0,0,0-7.75,7.052s-8.406,0-8.406,12.047h-.948a1.536,1.536,0,1,0,0,3.068h6.073V556.3a5.059,5.059,0,0,0-4.906,3.578h-8.239a5.069,5.069,0,0,0-4.922-3.578V544.972h6.088a1.536,1.536,0,1,0,0-3.068h-.963c0-11.719-8.4-12.057-8.391-12.047a8.284,8.284,0,0,0-7.76-7.052v-5.437a.633.633,0,0,0-.641-.62.643.643,0,0,0-.656.62v5.437a8.273,8.273,0,0,0-7.75,7.052s-8.406,0-8.406,12.047h-.958a1.535,1.535,0,1,0,0,3.068H385.3V556.3a5.086,5.086,0,0,0-4.917,3.578h-8.224a5.069,5.069,0,0,0-4.922-3.578V544.972h6.083a1.535,1.535,0,1,0,0-3.068h-.958c0-11.719-8.406-12.057-8.406-12.047a8.268,8.268,0,0,0-7.75-7.052v-5.437a.638.638,0,0,0-.651-.62.629.629,0,0,0-.641.62v5.437a8.268,8.268,0,0,0-7.75,7.052s-8.406,0-8.406,12.047h-.964a1.535,1.535,0,1,0,0,3.068h6.088V556.3a5.068,5.068,0,0,0-4.922,3.578H330.74a5.1,5.1,0,0,0-4.922-3.578V544.972H331.9a1.535,1.535,0,1,0,0-3.068h-.958c0-11.719-8.406-12.057-8.406-12.047a8.282,8.282,0,0,0-7.75-7.052v-5.437a.655.655,0,0,0-1.307,0v5.437a8.282,8.282,0,0,0-7.75,7.052c.01-.01-8.406,0-8.406,12.047h-.948a1.536,1.536,0,1,0,0,3.068h6.088V556.3a5.068,5.068,0,0,0-4.922,3.578h-6.036V571.1h-.047v-75.4h7.812v-7.208H291.46V411.537h13.552v-7.2h-7.005V379.548a5.087,5.087,0,0,0-4.906-3.583V364.642h6.068a1.535,1.535,0,1,0,0-3.068h-.958c0-11.719-8.406-12.057-8.391-12.036a8.284,8.284,0,0,0-7.765-7.062v-5.437a.647.647,0,0,0-1.292,0v5.437a8.267,8.267,0,0,0-7.75,7.062,7.429,7.429,0,0,0-.776.088c.083-.016.2-.042.276-.052V292.529h6.1v-3.167h-6.1v-11.4c12.786-16.515,2.406-47.249-27.249-56.4h.026v-6.776H243.5V209.64h1.792v-1.906h-7.1s-6.943-5.255-8.469-10.666a30.661,30.661,0,0,1-.677-3.016h1.406a1.257,1.257,0,1,0,0-2.51H228.7c-.037-.281-.063-.557-.089-.828h1.026a.954.954,0,1,0,0-1.906h-1.177c-.115-1.734-.1-2.911-.1-2.911a4.829,4.829,0,0,0,4.4-5.1c0-3.167-2.515-4.25-4.219-4.63l.016-.2-.089-1.562h1.177a.954.954,0,1,0,0-1.906h-1.292l-.052-1.073h2.161a1.262,1.262,0,1,0,0-2.521h-2.3l-1.156-20.781L225.831,168.9h-2.307a1.262,1.262,0,1,0,0,2.521h2.161l-.052,1.073h-1.276a.955.955,0,1,0,0,1.906h1.161l-.073,1.562v.2c-1.7.38-4.219,1.464-4.219,4.63a4.829,4.829,0,0,0,4.4,5.1s.01,1.177-.1,2.911h-1.161a.955.955,0,1,0,0,1.906h1.01l-.078.828h-1.766a1.257,1.257,0,1,0,0,2.51h1.406a30.669,30.669,0,0,1-.677,3.016c-1.526,5.411-8.469,10.666-8.469,10.666h-7.1v1.906h1.8v5.146h-1.8v6.708c-29.27,8.818-38.749,38.458-27.208,56.468v11.4h-6.109v3.167h6.109v57.056l.172.042a5.811,5.811,0,0,0-.682-.088,8.277,8.277,0,0,0-7.755-7.062v-5.437a.647.647,0,0,0-1.292,0v5.437a8.254,8.254,0,0,0-7.75,7.062c0-.021-8.406,0-8.406,12.036h-.958a1.535,1.535,0,1,0,0,3.068h6.083v11.323a5.092,5.092,0,0,0-4.922,3.583v24.791h-7.005v7.2H162.53v76.946H154.7v7.208h7.828V612.34H120.088v7.213h2.906v33.609h.693a6.862,6.862,0,1,0,0,13.708h-.693s.188.073.495.2l.13.057c.313.135.74.328,1.271.589.1.042.229.115.333.167.531.266,1.141.589,1.828.974.167.094.359.219.536.318.688.406,1.432.865,2.234,1.391.234.151.49.328.734.495.8.547,1.641,1.161,2.521,1.833.292.224.589.464.885.7.875.7,1.786,1.484,2.708,2.318.333.3.667.6,1.005.922.922.87,1.859,1.833,2.8,2.844.359.385.714.755,1.073,1.156.938,1.062,1.88,2.234,2.818,3.443,6.771,8.739,13.187,21.463,15.979,39.744h-1.74a4.709,4.709,0,1,0,0,9.417h2.823c.25,3.359.406,6.849.406,10.531V894.689H1253.43V743.968c0-29.166,8.318-47.754,17.25-59.405,1.031-1.349,2.068-2.635,3.1-3.8.3-.333.6-.641.9-.964.995-1.073,1.989-2.094,2.964-3.01.3-.281.594-.552.89-.818.959-.87,1.9-1.677,2.807-2.406.276-.214.552-.432.818-.641q1.351-1.039,2.578-1.875c.234-.156.469-.323.693-.469q1.219-.8,2.266-1.411c.167-.094.354-.214.516-.3.7-.391,1.313-.719,1.849-.984.094-.052.219-.12.313-.161.536-.26.963-.453,1.281-.589l.125-.057c.307-.13.495-.2.495-.2h-.693A7.019,7.019,0,0,0,1298.768,660.022Z" transform="translate(-116.5 -87.554)" fill="#52021f"/>
  <path id="Path_8663" data-name="Path 8663" d="M233.277,113.627a7.077,7.077,0,0,0-1.292.25,7.567,7.567,0,0,1,1.24-.25h.115a7.614,7.614,0,0,1,1.458.292A7.414,7.414,0,0,0,233.277,113.627Z" transform="translate(369.487 22.167)" fill="#52021f"/>
</svg>
