<svg xmlns="http://www.w3.org/2000/svg" xmlns:xlink="http://www.w3.org/1999/xlink" width="707.207" height="707.207" viewBox="0 0 707.207 707.207">
  <defs>
    <clipPath id="clip-path">
      <rect id="Rectangle_300" data-name="Rectangle 300" width="707.207" height="707.207" fill="#f5e181"/>
    </clipPath>
  </defs>
  <g id="Group_155" data-name="Group 155" transform="translate(-67.681 -59.774)" opacity="0.25">
    <g id="Group_154" data-name="Group 154" transform="translate(67.681 59.774)" clip-path="url(#clip-path)">
      <path id="Path_837" data-name="Path 837" d="M314.188,235.562q0,3.473-.339,6.933t-1.02,6.863q-.679,3.409-1.685,6.734t-2.337,6.535q-1.333,3.211-2.97,6.273t-3.567,5.953q-1.93,2.888-4.133,5.573t-4.661,5.142q-2.46,2.46-5.143,4.661t-5.576,4.136q-2.888,1.931-5.953,3.568t-6.273,2.967q-3.211,1.329-6.535,2.34t-6.731,1.685q-3.409.678-6.866,1.018t-6.933.342q-3.473,0-6.93-.342t-6.866-1.018q-3.409-.678-6.731-1.688T216.4,300.9q-3.211-1.329-6.276-2.967t-5.95-3.568q-2.892-1.931-5.576-4.136t-5.143-4.661q-2.455-2.455-4.661-5.142t-4.133-5.573q-1.93-2.888-3.57-5.953t-2.967-6.273q-1.329-3.211-2.337-6.535t-1.685-6.734q-.678-3.4-1.02-6.863t-.339-6.933q0-3.473.339-6.933t1.02-6.863q.674-3.409,1.685-6.734t2.337-6.535q1.333-3.211,2.967-6.273t3.57-5.953q1.93-2.888,4.133-5.573t4.661-5.143q2.456-2.46,5.143-4.661t5.576-4.136q2.888-1.93,5.95-3.567t6.276-2.967q3.207-1.329,6.535-2.34t6.731-1.685q3.409-.678,6.866-1.018t6.93-.342q3.477,0,6.933.342t6.866,1.018q3.409.678,6.731,1.685t6.535,2.34q3.211,1.329,6.273,2.967t5.953,3.567q2.892,1.93,5.576,4.136t5.143,4.661q2.456,2.455,4.661,5.143t4.133,5.573q1.93,2.888,3.567,5.953t2.97,6.273q1.329,3.211,2.337,6.535t1.685,6.734q.678,3.4,1.02,6.863T314.188,235.562Z" transform="translate(110.136 118.041)" fill="#f5e181"/>
      <path id="Path_838" data-name="Path 838" d="M361.8,108.074C226.3,108.074,115.98,218.4,115.98,353.9S226.3,599.722,361.8,599.722,607.63,489.4,607.63,353.9,497.306,108.074,361.8,108.074Zm0,504.8c-142.855,0-258.979-116.124-258.979-258.979S218.949,94.919,361.8,94.919,620.783,211.043,620.783,353.9,504.661,612.877,361.8,612.877Z" transform="translate(-8.202 -0.295)" fill="#f5e181"/>
      <path id="Path_839" data-name="Path 839" d="M339.22,119.578c-116.687,0-211.738,95.048-211.738,211.738S222.533,543.054,339.22,543.054s211.738-95.048,211.738-211.738S455.91,119.578,339.22,119.578Zm0,434.792c-123.052,0-223.051-100-223.051-223.054s100-223.054,223.051-223.054,223.054,100,223.054,223.054S462.275,554.37,339.22,554.37Z" transform="translate(14.382 22.287)" fill="#f5e181"/>
      <path id="Path_840" data-name="Path 840" d="M224.584,159.895A15.714,15.714,0,0,1,217.6,172.95a15.625,15.625,0,0,1-2.714,1.449,15.424,15.424,0,0,1-2.945.894,15.7,15.7,0,0,1-6.125,0,15.424,15.424,0,0,1-2.946-.894,15.707,15.707,0,0,1-7.046-5.781,15.7,15.7,0,0,1,1.952-19.824,15.706,15.706,0,0,1,22.2,0,15.7,15.7,0,0,1,4.6,11.1Z" transform="translate(144.721 83.101)" fill="#f5e181"/>
      <path id="Path_841" data-name="Path 841" d="M210.5,162.363a15.695,15.695,0,0,1-2.647,8.723,15.668,15.668,0,0,1-7.046,5.781,15.427,15.427,0,0,1-2.945.894,15.7,15.7,0,0,1-6.125,0,15.427,15.427,0,0,1-2.945-.894,15.708,15.708,0,0,1-7.046-5.781,15.694,15.694,0,0,1-1.451-14.73,15.68,15.68,0,0,1,5.783-7.046,15.452,15.452,0,0,1,2.714-1.451,15.693,15.693,0,0,1,12.016,0,15.74,15.74,0,0,1,5.094,3.4,15.712,15.712,0,0,1,4.3,8.04A15.781,15.781,0,0,1,210.5,162.363Z" transform="translate(120.893 87.28)" fill="#f5e181"/>
      <path id="Path_842" data-name="Path 842" d="M198.157,169.509a15.755,15.755,0,0,1-1.193,6.007,15.681,15.681,0,0,1-5.783,7.046,15.7,15.7,0,1,1-17.444-26.108A15.819,15.819,0,0,1,176.451,155a15.737,15.737,0,0,1,12.016,0,15.678,15.678,0,0,1,9.388,11.443A15.617,15.617,0,0,1,198.157,169.509Z" transform="translate(100 99.372)" fill="#f5e181"/>
      <path id="Path_843" data-name="Path 843" d="M188.964,180.437a15.706,15.706,0,0,1-6.976,13.053,15.707,15.707,0,0,1-17.447,0,15.706,15.706,0,0,1-2.377-24.156,15.7,15.7,0,0,1,22.2,0,15.7,15.7,0,0,1,4.6,11.1Z" transform="translate(84.442 117.864)" fill="#f5e181"/>
      <path id="Path_844" data-name="Path 844" d="M184.081,193.831a15.688,15.688,0,0,1-1.2,6.009,15.63,15.63,0,0,1-1.451,2.714,15.651,15.651,0,0,1-4.332,4.332,15.64,15.64,0,0,1-2.714,1.451,15.693,15.693,0,0,1-12.016,0,15.709,15.709,0,0,1-8.5-8.5,15.693,15.693,0,0,1,0-12.016,15.71,15.71,0,0,1,8.5-8.5,15.694,15.694,0,0,1,12.016,0,15.74,15.74,0,0,1,5.094,3.4,15.912,15.912,0,0,1,1.952,2.38,15.627,15.627,0,0,1,1.451,2.714,15.688,15.688,0,0,1,1.2,6.007Z" transform="translate(76.172 140.535)" fill="#f5e181"/>
      <path id="Path_845" data-name="Path 845" d="M184.081,208.12a15.689,15.689,0,0,1-1.2,6.009,15.628,15.628,0,0,1-1.451,2.714,15.649,15.649,0,0,1-4.332,4.332,15.639,15.639,0,0,1-2.714,1.451,15.694,15.694,0,0,1-12.016,0,15.71,15.71,0,0,1-8.5-8.5,15.693,15.693,0,0,1,0-12.016,15.71,15.71,0,0,1,8.5-8.5,15.694,15.694,0,0,1,12.016,0,15.71,15.71,0,0,1,8.5,8.5,15.688,15.688,0,0,1,1.2,6.007Z" transform="translate(76.172 164.718)" fill="#f5e181"/>
      <path id="Path_846" data-name="Path 846" d="M188.964,221.516a15.717,15.717,0,0,1-4.6,11.1,15.7,15.7,0,0,1-22.2,0,15.7,15.7,0,0,1,2.377-24.156,15.707,15.707,0,0,1,17.447,0,15.7,15.7,0,0,1,6.976,13.053Z" transform="translate(84.442 187.39)" fill="#f5e181"/>
      <path id="Path_847" data-name="Path 847" d="M198.157,232.443a15.755,15.755,0,0,1-1.193,6.01,15.678,15.678,0,0,1-11.443,9.388,15.738,15.738,0,0,1-9.071-.891,15.681,15.681,0,0,1-7.046-5.783,15.694,15.694,0,0,1,4.332-21.776,15.454,15.454,0,0,1,2.714-1.451,15.693,15.693,0,0,1,12.016,0,15.451,15.451,0,0,1,2.714,1.451,15.669,15.669,0,0,1,6.675,9.992A15.569,15.569,0,0,1,198.157,232.443Z" transform="translate(100 205.883)" fill="#f5e181"/>
      <path id="Path_848" data-name="Path 848" d="M210.5,239.587a15.694,15.694,0,0,1-2.647,8.721,15.652,15.652,0,0,1-4.332,4.332,15.454,15.454,0,0,1-2.714,1.451,15.693,15.693,0,0,1-12.016,0,15.452,15.452,0,0,1-2.714-1.451A15.7,15.7,0,1,1,210.5,239.587Z" transform="translate(120.893 217.976)" fill="#f5e181"/>
      <path id="Path_849" data-name="Path 849" d="M224.584,242.057a15.716,15.716,0,0,1-4.6,11.1,15.7,15.7,0,0,1-25.608-5.094,15.69,15.69,0,0,1,8.5-20.511,15.43,15.43,0,0,1,2.946-.894,15.7,15.7,0,0,1,6.125,0,15.429,15.429,0,0,1,2.945.894,15.707,15.707,0,0,1,7.046,5.781,15.691,15.691,0,0,1,2.647,8.723Z" transform="translate(144.721 222.154)" fill="#f5e181"/>
      <path id="Path_850" data-name="Path 850" d="M238.66,239.587a15.751,15.751,0,0,1-1.193,6.007,15.681,15.681,0,0,1-5.783,7.046,15.451,15.451,0,0,1-2.714,1.451,15.694,15.694,0,0,1-12.016,0,15.457,15.457,0,0,1-2.714-1.451,15.7,15.7,0,0,1-5.783-19.062,15.838,15.838,0,0,1,1.451-2.714,15.745,15.745,0,0,1,4.332-4.332,15.825,15.825,0,0,1,2.714-1.451,15.736,15.736,0,0,1,12.016,0,15.728,15.728,0,0,1,7.046,5.783,16.021,16.021,0,0,1,1.451,2.714,15.752,15.752,0,0,1,1.193,6.009Z" transform="translate(168.548 217.976)" fill="#f5e181"/>
      <path id="Path_851" data-name="Path 851" d="M251.008,232.443a15.689,15.689,0,0,1-1.2,6.01,15.681,15.681,0,0,1-5.783,7.046,15.831,15.831,0,0,1-2.714,1.451,15.738,15.738,0,0,1-12.016,0,15.681,15.681,0,0,1-7.046-5.783,15.638,15.638,0,0,1-1.451-2.714,15.694,15.694,0,0,1,0-12.016,15.68,15.68,0,0,1,5.783-7.046,15.456,15.456,0,0,1,2.714-1.451,15.694,15.694,0,0,1,12.016,0,15.456,15.456,0,0,1,2.714,1.451,15.709,15.709,0,0,1,5.783,7.046,15.688,15.688,0,0,1,1.2,6.007Z" transform="translate(189.441 205.883)" fill="#f5e181"/>
      <path id="Path_852" data-name="Path 852" d="M260.2,221.516a15.717,15.717,0,0,1-4.6,11.1,15.7,15.7,0,0,1-24.156-2.38A15.623,15.623,0,0,1,230,227.525a15.425,15.425,0,0,1-.894-2.946,15.705,15.705,0,0,1,0-6.125,15.427,15.427,0,0,1,.894-2.946,15.706,15.706,0,0,1,5.781-7.046,15.694,15.694,0,0,1,14.73-1.451,15.74,15.74,0,0,1,5.094,3.4,15.74,15.74,0,0,1,3.4,5.094,15.691,15.691,0,0,1,1.2,6.007Z" transform="translate(205.002 187.39)" fill="#f5e181"/>
      <path id="Path_853" data-name="Path 853" d="M265.087,208.12a15.692,15.692,0,0,1-1.2,6.009,15.636,15.636,0,0,1-1.451,2.714,15.651,15.651,0,0,1-4.332,4.332,15.634,15.634,0,0,1-2.714,1.451,15.694,15.694,0,0,1-12.016,0,15.709,15.709,0,0,1-8.5-8.5,15.692,15.692,0,0,1,0-12.016,15.71,15.71,0,0,1,8.5-8.5,15.694,15.694,0,0,1,12.016,0,15.709,15.709,0,0,1,8.5,8.5,15.692,15.692,0,0,1,1.2,6.007Z" transform="translate(213.269 164.718)" fill="#f5e181"/>
      <path id="Path_854" data-name="Path 854" d="M265.087,193.831a15.692,15.692,0,0,1-1.2,6.009,15.638,15.638,0,0,1-1.451,2.714,15.653,15.653,0,0,1-4.332,4.332,15.634,15.634,0,0,1-2.714,1.451,15.693,15.693,0,0,1-12.016,0,15.709,15.709,0,0,1-8.5-8.5,15.692,15.692,0,0,1,0-12.016,15.71,15.71,0,0,1,8.5-8.5,15.694,15.694,0,0,1,12.016,0,15.739,15.739,0,0,1,5.094,3.4,15.914,15.914,0,0,1,1.952,2.38,15.635,15.635,0,0,1,1.451,2.714,15.692,15.692,0,0,1,1.2,6.007Z" transform="translate(213.269 140.535)" fill="#f5e181"/>
      <path id="Path_855" data-name="Path 855" d="M260.2,180.437a15.706,15.706,0,0,1-9.693,14.5,15.695,15.695,0,0,1-14.73-1.451A15.667,15.667,0,0,1,230,186.444a15.425,15.425,0,0,1-.894-2.946,15.705,15.705,0,0,1,0-6.125,15.424,15.424,0,0,1,.894-2.945,15.7,15.7,0,0,1,5.781-7.046,15.694,15.694,0,0,1,14.73-1.451,15.68,15.68,0,0,1,7.046,5.783A15.459,15.459,0,0,1,259,174.428a15.691,15.691,0,0,1,1.2,6.009Z" transform="translate(205.002 117.864)" fill="#f5e181"/>
      <path id="Path_856" data-name="Path 856" d="M251.008,169.509a15.706,15.706,0,0,1-9.693,14.5,15.709,15.709,0,0,1-17.11-3.4A15.7,15.7,0,0,1,229.3,155a15.737,15.737,0,0,1,12.016,0,15.681,15.681,0,0,1,7.046,5.783,15.636,15.636,0,0,1,1.451,2.714,15.689,15.689,0,0,1,1.2,6.01Z" transform="translate(189.441 99.372)" fill="#f5e181"/>
      <path id="Path_857" data-name="Path 857" d="M238.66,162.363a15.752,15.752,0,0,1-1.193,6.01,16.02,16.02,0,0,1-1.451,2.714,15.669,15.669,0,0,1-7.046,5.781,15.7,15.7,0,0,1-19.062-5.781,15.7,15.7,0,0,1-2.345-5.659,15.693,15.693,0,0,1,6.677-16.117,15.692,15.692,0,0,1,8.721-2.647,15.689,15.689,0,0,1,6.01,1.2,15.741,15.741,0,0,1,5.094,3.4,15.739,15.739,0,0,1,3.4,5.094,15.751,15.751,0,0,1,1.193,6.007Z" transform="translate(168.548 87.28)" fill="#f5e181"/>
      <path id="Path_858" data-name="Path 858" d="M236.791,96.523a23.169,23.169,0,0,1-6.8,16.4,23.191,23.191,0,0,1-37.831-7.525,23.209,23.209,0,0,1,5.027-25.279,23.18,23.18,0,0,1,25.279-5.027,22.862,22.862,0,0,1,4.012,2.143,23.206,23.206,0,0,1,10.309,19.286Z" transform="translate(140.009 -36.836)" fill="#f5e181"/>
      <path id="Path_859" data-name="Path 859" d="M208.528,100.253a23.106,23.106,0,1,1-.444-4.526A23.217,23.217,0,0,1,208.528,100.253Z" transform="translate(92.176 -30.523)" fill="#f5e181"/>
      <path id="Path_860" data-name="Path 860" d="M182.209,111.18a23.218,23.218,0,0,1-14.318,21.432,23.206,23.206,0,0,1-17.754,0,23.193,23.193,0,1,1,32.072-21.432Z" transform="translate(47.633 -12.03)" fill="#f5e181"/>
      <path id="Path_861" data-name="Path 861" d="M159.62,128.518a23.2,23.2,0,1,1-39.6-16.4,23.195,23.195,0,0,1,39.153,11.876A23.016,23.016,0,0,1,159.62,128.518Z" transform="translate(9.403 17.308)" fill="#f5e181"/>
      <path id="Path_862" data-name="Path 862" d="M142.284,151.105a23.17,23.17,0,0,1-6.8,16.4,23.191,23.191,0,0,1-37.831-7.525,23.2,23.2,0,0,1,12.552-30.306,23.163,23.163,0,0,1,17.754,0,22.865,22.865,0,0,1,4.012,2.143,23.206,23.206,0,0,1,10.309,19.286Z" transform="translate(-19.937 55.54)" fill="#f5e181"/>
      <path id="Path_863" data-name="Path 863" d="M131.357,177.424a23.194,23.194,0,0,1-6.793,16.4A23.193,23.193,0,0,1,86.73,186.3a23.206,23.206,0,0,1,16.906-31.628,23.177,23.177,0,0,1,13.4,1.322,23.2,23.2,0,0,1,14.318,21.429Z" transform="translate(-38.43 100.083)" fill="#f5e181"/>
      <path id="Path_864" data-name="Path 864" d="M127.627,205.687a23.105,23.105,0,1,1-.444-4.526A23.218,23.218,0,0,1,127.627,205.687Z" transform="translate(-44.743 147.916)" fill="#f5e181"/>
      <path id="Path_865" data-name="Path 865" d="M131.357,233.952a23.2,23.2,0,1,1-39.6-16.4,23.191,23.191,0,0,1,37.831,7.525,23.241,23.241,0,0,1,1.766,8.877Z" transform="translate(-38.43 195.747)" fill="#f5e181"/>
      <path id="Path_866" data-name="Path 866" d="M142.284,260.271a23.2,23.2,0,1,1-39.6-16.4,23.193,23.193,0,0,1,37.834,7.525,23.241,23.241,0,0,1,1.766,8.877Z" transform="translate(-19.937 240.29)" fill="#f5e181"/>
      <path id="Path_867" data-name="Path 867" d="M159.62,282.858a23.239,23.239,0,0,1-1.766,8.877,23.2,23.2,0,1,1-42.861-17.754,23.231,23.231,0,0,1,12.552-12.555,23.207,23.207,0,0,1,17.754,0,23.207,23.207,0,0,1,14.321,21.432Z" transform="translate(9.403 278.522)" fill="#f5e181"/>
      <path id="Path_868" data-name="Path 868" d="M182.209,300.194a23.218,23.218,0,0,1-14.318,21.432,23.207,23.207,0,0,1-17.754,0,23.19,23.19,0,0,1-7.525-37.834,23.191,23.191,0,0,1,37.831,7.525,23.241,23.241,0,0,1,1.766,8.877Z" transform="translate(47.633 307.862)" fill="#f5e181"/>
      <path id="Path_869" data-name="Path 869" d="M208.528,311.123a23.177,23.177,0,0,1-10.309,19.286,22.933,22.933,0,0,1-4.009,2.143,23.163,23.163,0,0,1-17.754,0,23.193,23.193,0,0,1-10.412-8.543,23.171,23.171,0,0,1-3.462-8.36,23.206,23.206,0,0,1,1.319-13.4,23.195,23.195,0,0,1,44.627,8.877Z" transform="translate(92.176 326.353)" fill="#f5e181"/>
      <path id="Path_870" data-name="Path 870" d="M236.791,314.853A23.212,23.212,0,0,1,218.119,337.6a23.19,23.19,0,0,1-27.274-18.228,23.2,23.2,0,0,1,9.862-23.812,23.158,23.158,0,0,1,8.363-3.462,23.2,23.2,0,0,1,13.4,1.319,23.207,23.207,0,0,1,14.321,21.432Z" transform="translate(140.009 332.666)" fill="#f5e181"/>
      <path id="Path_871" data-name="Path 871" d="M265.054,311.123a23.2,23.2,0,0,1-10.309,19.286,23.279,23.279,0,0,1-8.363,3.465,23.163,23.163,0,0,1-13.4-1.322A23.2,23.2,0,0,1,220.427,320a23.163,23.163,0,0,1,0-17.754,23.194,23.194,0,0,1,8.543-10.412,23.2,23.2,0,0,1,36.084,19.288Z" transform="translate(187.842 326.353)" fill="#f5e181"/>
      <path id="Path_872" data-name="Path 872" d="M291.373,300.194a23.209,23.209,0,0,1-14.321,21.432,23.17,23.17,0,0,1-21.763-2.146,23.2,23.2,0,0,1,0-38.574,23.2,23.2,0,0,1,35.637,14.763A23.016,23.016,0,0,1,291.373,300.194Z" transform="translate(232.385 307.862)" fill="#f5e181"/>
      <path id="Path_873" data-name="Path 873" d="M313.962,282.858a23.194,23.194,0,0,1-6.793,16.4,23.193,23.193,0,0,1-37.834-7.525,23.2,23.2,0,0,1,12.555-30.309,23.2,23.2,0,0,1,17.751,0,23.207,23.207,0,0,1,14.321,21.432Z" transform="translate(270.615 278.522)" fill="#f5e181"/>
      <path id="Path_874" data-name="Path 874" d="M331.3,260.271a23.2,23.2,0,1,1-39.6-16.4,23.195,23.195,0,0,1,39.153,11.876A23.016,23.016,0,0,1,331.3,260.271Z" transform="translate(299.955 240.29)" fill="#f5e181"/>
      <path id="Path_875" data-name="Path 875" d="M342.225,233.952a23.241,23.241,0,0,1-1.766,8.877,23.2,23.2,0,0,1-8.543,10.409,23.281,23.281,0,0,1-8.363,3.465,23.176,23.176,0,0,1-13.4-1.322A23.2,23.2,0,0,1,297.6,242.829a23.2,23.2,0,1,1,44.627-8.877Z" transform="translate(318.448 195.747)" fill="#f5e181"/>
      <path id="Path_876" data-name="Path 876" d="M345.955,205.687a23.194,23.194,0,0,1-42.484,12.886,22.844,22.844,0,0,1-2.143-4.009,23.164,23.164,0,0,1,0-17.754,23.156,23.156,0,0,1,8.543-10.409,23.2,23.2,0,0,1,36.084,19.286Z" transform="translate(324.761 147.916)" fill="#f5e181"/>
      <path id="Path_877" data-name="Path 877" d="M342.225,177.424a23.241,23.241,0,0,1-1.766,8.877,23.2,23.2,0,1,1-40.718-21.763,23.2,23.2,0,0,1,38.574,0,23.168,23.168,0,0,1,3.463,8.36A23.037,23.037,0,0,1,342.225,177.424Z" transform="translate(318.448 100.083)" fill="#f5e181"/>
      <path id="Path_878" data-name="Path 878" d="M331.3,151.105a23.17,23.17,0,0,1-6.8,16.4,23.191,23.191,0,0,1-37.831-7.525,23.2,23.2,0,0,1,12.552-30.306,23.163,23.163,0,0,1,17.754,0,22.865,22.865,0,0,1,4.012,2.143A23.205,23.205,0,0,1,331.3,151.105Z" transform="translate(299.955 55.54)" fill="#f5e181"/>
      <path id="Path_879" data-name="Path 879" d="M313.962,128.518a23.218,23.218,0,0,1-6.793,16.4,23.275,23.275,0,0,1-3.516,2.884,22.864,22.864,0,0,1-4.012,2.143,23.159,23.159,0,0,1-17.751,0,22.864,22.864,0,0,1-4.012-2.143,23.193,23.193,0,1,1,36.084-19.286Z" transform="translate(270.615 17.308)" fill="#f5e181"/>
      <path id="Path_880" data-name="Path 880" d="M291.373,111.18a23.209,23.209,0,0,1-14.321,21.432,23.17,23.17,0,0,1-21.763-2.146,23.193,23.193,0,1,1,36.084-19.286Z" transform="translate(232.385 -12.03)" fill="#f5e181"/>
      <path id="Path_881" data-name="Path 881" d="M265.054,100.253a23.2,23.2,0,0,1-42.484,12.889,23.278,23.278,0,0,1-3.465-8.363,23.163,23.163,0,0,1,1.322-13.4,23.23,23.23,0,0,1,12.552-12.555,23.206,23.206,0,0,1,17.754,0,23.207,23.207,0,0,1,14.321,21.432Z" transform="translate(187.842 -30.523)" fill="#f5e181"/>
      <path id="Path_882" data-name="Path 882" d="M216.06,70.242a10.462,10.462,0,1,1-.8-4.006A10.374,10.374,0,0,1,216.06,70.242Z" transform="translate(148.011 -59.775)" fill="#f5e181"/>
      <path id="Path_883" data-name="Path 883" d="M204.973,70.715a10.475,10.475,0,1,1-.8-4.006A10.325,10.325,0,0,1,204.973,70.715Z" transform="translate(129.252 -58.974)" fill="#f5e181"/>
      <path id="Path_884" data-name="Path 884" d="M193.941,72.183a10.444,10.444,0,1,1-.794-4A10.375,10.375,0,0,1,193.941,72.183Z" transform="translate(110.581 -56.485)" fill="#f5e181"/>
      <path id="Path_885" data-name="Path 885" d="M183.069,74.6a10.462,10.462,0,1,1-.8-4.006A10.388,10.388,0,0,1,183.069,74.6Z" transform="translate(92.176 -52.394)" fill="#f5e181"/>
      <path id="Path_886" data-name="Path 886" d="M172.455,77.912a10.444,10.444,0,1,1-.794-4.006A10.372,10.372,0,0,1,172.455,77.912Z" transform="translate(74.218 -46.794)" fill="#f5e181"/>
      <path id="Path_887" data-name="Path 887" d="M162.211,82.167a10.444,10.444,0,1,1-.794-4.006A10.372,10.372,0,0,1,162.211,82.167Z" transform="translate(56.88 -39.593)" fill="#f5e181"/>
      <path id="Path_888" data-name="Path 888" d="M152.337,87.313a10.475,10.475,0,1,1-.8-4.006A10.338,10.338,0,0,1,152.337,87.313Z" transform="translate(40.164 -30.879)" fill="#f5e181"/>
      <path id="Path_889" data-name="Path 889" d="M142.934,93.3a10.462,10.462,0,1,1-.8-4.006A10.375,10.375,0,0,1,142.934,93.3Z" transform="translate(24.251 -20.744)" fill="#f5e181"/>
      <path id="Path_890" data-name="Path 890" d="M134.161,100.081a10.462,10.462,0,1,1-.8-4.006A10.375,10.375,0,0,1,134.161,100.081Z" transform="translate(9.403 -9.275)" fill="#f5e181"/>
      <path id="Path_891" data-name="Path 891" d="M125.966,107.593a10.462,10.462,0,1,1-.8-4.006A10.375,10.375,0,0,1,125.966,107.593Z" transform="translate(-4.467 3.439)" fill="#f5e181"/>
      <path id="Path_892" data-name="Path 892" d="M118.451,115.788a10.444,10.444,0,1,1-.794-4.006A10.4,10.4,0,0,1,118.451,115.788Z" transform="translate(-17.18 17.308)" fill="#f5e181"/>
      <path id="Path_893" data-name="Path 893" d="M111.677,124.559a10.462,10.462,0,1,1-.8-4.006A10.4,10.4,0,0,1,111.677,124.559Z" transform="translate(-28.65 32.158)" fill="#f5e181"/>
      <path id="Path_894" data-name="Path 894" d="M105.688,133.962a10.462,10.462,0,1,1-.8-4A10.378,10.378,0,0,1,105.688,133.962Z" transform="translate(-38.786 48.071)" fill="#f5e181"/>
      <path id="Path_895" data-name="Path 895" d="M100.54,143.841a10.462,10.462,0,1,1-.8-4.006A10.375,10.375,0,0,1,100.54,143.841Z" transform="translate(-47.498 64.786)" fill="#f5e181"/>
      <path id="Path_896" data-name="Path 896" d="M96.282,154.085a10.444,10.444,0,1,1-.794-4.006A10.372,10.372,0,0,1,96.282,154.085Z" transform="translate(-54.699 82.123)" fill="#f5e181"/>
      <path id="Path_897" data-name="Path 897" d="M92.975,164.694a10.475,10.475,0,1,1-.8-4A10.378,10.378,0,0,1,92.975,164.694Z" transform="translate(-60.301 100.083)" fill="#f5e181"/>
      <path id="Path_898" data-name="Path 898" d="M90.558,175.571a10.475,10.475,0,1,1-.8-4.006A10.325,10.325,0,0,1,90.558,175.571Z" transform="translate(-64.392 118.486)" fill="#f5e181"/>
      <path id="Path_899" data-name="Path 899" d="M89.085,186.6a10.444,10.444,0,1,1-.794-4.006A10.372,10.372,0,0,1,89.085,186.6Z" transform="translate(-66.88 137.157)" fill="#f5e181"/>
      <path id="Path_900" data-name="Path 900" d="M88.615,197.685a10.462,10.462,0,1,1-.8-4.006A10.4,10.4,0,0,1,88.615,197.685Z" transform="translate(-67.68 155.918)" fill="#f5e181"/>
      <path id="Path_901" data-name="Path 901" d="M89.085,208.769a10.444,10.444,0,1,1-.794-4A10.376,10.376,0,0,1,89.085,208.769Z" transform="translate(-66.88 174.677)" fill="#f5e181"/>
      <path id="Path_902" data-name="Path 902" d="M90.558,219.8a10.475,10.475,0,1,1-.8-4A10.329,10.329,0,0,1,90.558,219.8Z" transform="translate(-64.392 193.347)" fill="#f5e181"/>
      <path id="Path_903" data-name="Path 903" d="M92.975,230.678a10.462,10.462,0,1,1-.8-4.006A10.374,10.374,0,0,1,92.975,230.678Z" transform="translate(-60.301 211.751)" fill="#f5e181"/>
      <path id="Path_904" data-name="Path 904" d="M96.282,241.287a10.444,10.444,0,1,1-.794-4A10.376,10.376,0,0,1,96.282,241.287Z" transform="translate(-54.699 229.711)" fill="#f5e181"/>
      <path id="Path_905" data-name="Path 905" d="M100.54,251.531a10.462,10.462,0,1,1-.8-4A10.378,10.378,0,0,1,100.54,251.531Z" transform="translate(-47.498 247.048)" fill="#f5e181"/>
      <path id="Path_906" data-name="Path 906" d="M105.688,261.41a10.462,10.462,0,1,1-.8-4.006A10.374,10.374,0,0,1,105.688,261.41Z" transform="translate(-38.786 263.763)" fill="#f5e181"/>
      <path id="Path_907" data-name="Path 907" d="M111.677,270.811a10.462,10.462,0,1,1-.8-4.006A10.388,10.388,0,0,1,111.677,270.811Z" transform="translate(-28.65 279.678)" fill="#f5e181"/>
      <path id="Path_908" data-name="Path 908" d="M118.451,279.584a10.444,10.444,0,1,1-.794-4.006A10.385,10.385,0,0,1,118.451,279.584Z" transform="translate(-17.18 294.526)" fill="#f5e181"/>
      <path id="Path_909" data-name="Path 909" d="M125.966,287.779a10.475,10.475,0,1,1-.8-4A10.378,10.378,0,0,1,125.966,287.779Z" transform="translate(-4.467 308.395)" fill="#f5e181"/>
      <path id="Path_910" data-name="Path 910" d="M134.161,295.292a10.462,10.462,0,1,1-.8-4A10.378,10.378,0,0,1,134.161,295.292Z" transform="translate(9.403 321.109)" fill="#f5e181"/>
      <path id="Path_911" data-name="Path 911" d="M142.934,302.068a10.475,10.475,0,1,1-.8-4A10.378,10.378,0,0,1,142.934,302.068Z" transform="translate(24.251 332.578)" fill="#f5e181"/>
      <path id="Path_912" data-name="Path 912" d="M152.337,308.057a10.474,10.474,0,1,1-.8-4.006A10.349,10.349,0,0,1,152.337,308.057Z" transform="translate(40.164 342.714)" fill="#f5e181"/>
      <path id="Path_913" data-name="Path 913" d="M162.211,313.205a10.457,10.457,0,1,1-.794-4A10.375,10.375,0,0,1,162.211,313.205Z" transform="translate(56.88 351.427)" fill="#f5e181"/>
      <path id="Path_914" data-name="Path 914" d="M172.455,317.46a10.444,10.444,0,1,1-.794-4A10.376,10.376,0,0,1,172.455,317.46Z" transform="translate(74.218 358.628)" fill="#f5e181"/>
      <path id="Path_915" data-name="Path 915" d="M183.069,320.77a10.462,10.462,0,1,1-.8-4.006A10.4,10.4,0,0,1,183.069,320.77Z" transform="translate(92.176 364.23)" fill="#f5e181"/>
      <path id="Path_916" data-name="Path 916" d="M193.941,323.189a10.445,10.445,0,1,1-.794-4.006A10.372,10.372,0,0,1,193.941,323.189Z" transform="translate(110.581 368.319)" fill="#f5e181"/>
      <path id="Path_917" data-name="Path 917" d="M204.973,324.657a10.475,10.475,0,1,1-.8-4A10.327,10.327,0,0,1,204.973,324.657Z" transform="translate(129.252 370.808)" fill="#f5e181"/>
      <path id="Path_918" data-name="Path 918" d="M216.06,325.13a10.475,10.475,0,1,1-.8-4A10.378,10.378,0,0,1,216.06,325.13Z" transform="translate(148.011 371.609)" fill="#f5e181"/>
      <path id="Path_919" data-name="Path 919" d="M227.144,324.657a10.475,10.475,0,1,1-.8-4A10.327,10.327,0,0,1,227.144,324.657Z" transform="translate(166.77 370.808)" fill="#f5e181"/>
      <path id="Path_920" data-name="Path 920" d="M238.176,323.189a10.475,10.475,0,1,1-.8-4.006A10.325,10.325,0,0,1,238.176,323.189Z" transform="translate(185.44 368.319)" fill="#f5e181"/>
      <path id="Path_921" data-name="Path 921" d="M249.051,320.77a10.462,10.462,0,1,1-.8-4.006A10.4,10.4,0,0,1,249.051,320.77Z" transform="translate(203.846 364.23)" fill="#f5e181"/>
      <path id="Path_922" data-name="Path 922" d="M259.662,317.46a10.474,10.474,0,1,1-.8-4A10.328,10.328,0,0,1,259.662,317.46Z" transform="translate(221.804 358.628)" fill="#f5e181"/>
      <path id="Path_923" data-name="Path 923" d="M269.906,313.205a10.488,10.488,0,1,1-.8-4A10.328,10.328,0,0,1,269.906,313.205Z" transform="translate(239.141 351.427)" fill="#f5e181"/>
      <path id="Path_924" data-name="Path 924" d="M279.783,308.057a10.463,10.463,0,0,1-6.462,9.669,10.465,10.465,0,1,1,6.462-9.669Z" transform="translate(255.857 342.714)" fill="#f5e181"/>
      <path id="Path_925" data-name="Path 925" d="M289.186,302.068a10.475,10.475,0,1,1-.8-4A10.377,10.377,0,0,1,289.186,302.068Z" transform="translate(271.771 332.578)" fill="#f5e181"/>
      <path id="Path_926" data-name="Path 926" d="M297.959,295.292a10.463,10.463,0,1,1-.8-4A10.378,10.378,0,0,1,297.959,295.292Z" transform="translate(286.619 321.109)" fill="#f5e181"/>
      <path id="Path_927" data-name="Path 927" d="M306.154,287.779a10.474,10.474,0,1,1-.8-4A10.379,10.379,0,0,1,306.154,287.779Z" transform="translate(300.488 308.395)" fill="#f5e181"/>
      <path id="Path_928" data-name="Path 928" d="M313.666,279.584a10.467,10.467,0,0,1-6.459,9.671,10.467,10.467,0,1,1-8.013-19.34,10.465,10.465,0,0,1,14.472,9.669Z" transform="translate(313.202 294.526)" fill="#f5e181"/>
      <path id="Path_929" data-name="Path 929" d="M320.443,270.811a10.461,10.461,0,1,1-.8-4.006A10.389,10.389,0,0,1,320.443,270.811Z" transform="translate(324.671 279.678)" fill="#f5e181"/>
      <path id="Path_930" data-name="Path 930" d="M326.432,261.41a10.463,10.463,0,1,1-.8-4.006A10.372,10.372,0,0,1,326.432,261.41Z" transform="translate(334.807 263.763)" fill="#f5e181"/>
      <path id="Path_931" data-name="Path 931" d="M331.58,251.531a10.462,10.462,0,1,1-.8-4A10.379,10.379,0,0,1,331.58,251.531Z" transform="translate(343.52 247.048)" fill="#f5e181"/>
      <path id="Path_932" data-name="Path 932" d="M335.835,241.287a10.474,10.474,0,1,1-.8-4A10.329,10.329,0,0,1,335.835,241.287Z" transform="translate(350.721 229.711)" fill="#f5e181"/>
      <path id="Path_933" data-name="Path 933" d="M339.145,230.678a10.461,10.461,0,1,1-.8-4.006A10.375,10.375,0,0,1,339.145,230.678Z" transform="translate(356.323 211.751)" fill="#f5e181"/>
      <path id="Path_934" data-name="Path 934" d="M341.561,219.8a10.476,10.476,0,1,1-.8-4A10.329,10.329,0,0,1,341.561,219.8Z" transform="translate(360.412 193.347)" fill="#f5e181"/>
      <path id="Path_935" data-name="Path 935" d="M343.032,208.769a10.474,10.474,0,1,1-.8-4A10.328,10.328,0,0,1,343.032,208.769Z" transform="translate(362.901 174.677)" fill="#f5e181"/>
      <path id="Path_936" data-name="Path 936" d="M343.5,197.685a10.463,10.463,0,1,1-.8-4.006A10.4,10.4,0,0,1,343.5,197.685Z" transform="translate(363.702 155.918)" fill="#f5e181"/>
      <path id="Path_937" data-name="Path 937" d="M343.032,186.6a10.474,10.474,0,1,1-.8-4.006A10.325,10.325,0,0,1,343.032,186.6Z" transform="translate(362.901 137.157)" fill="#f5e181"/>
      <path id="Path_938" data-name="Path 938" d="M341.561,175.571a10.476,10.476,0,1,1-.8-4.006A10.325,10.325,0,0,1,341.561,175.571Z" transform="translate(360.412 118.486)" fill="#f5e181"/>
      <path id="Path_939" data-name="Path 939" d="M339.145,164.694a10.473,10.473,0,1,1-.8-4A10.379,10.379,0,0,1,339.145,164.694Z" transform="translate(356.323 100.083)" fill="#f5e181"/>
      <path id="Path_940" data-name="Path 940" d="M335.835,154.085a10.474,10.474,0,1,1-.8-4.006A10.325,10.325,0,0,1,335.835,154.085Z" transform="translate(350.721 82.123)" fill="#f5e181"/>
      <path id="Path_941" data-name="Path 941" d="M331.58,143.841a10.462,10.462,0,1,1-.8-4.006A10.375,10.375,0,0,1,331.58,143.841Z" transform="translate(343.52 64.786)" fill="#f5e181"/>
      <path id="Path_942" data-name="Path 942" d="M326.432,133.962a10.463,10.463,0,1,1-.8-4A10.376,10.376,0,0,1,326.432,133.962Z" transform="translate(334.807 48.071)" fill="#f5e181"/>
      <path id="Path_943" data-name="Path 943" d="M320.443,124.559a10.461,10.461,0,1,1-.8-4.006A10.4,10.4,0,0,1,320.443,124.559Z" transform="translate(324.671 32.158)" fill="#f5e181"/>
      <path id="Path_944" data-name="Path 944" d="M313.666,115.788a10.474,10.474,0,1,1-.8-4.006A10.347,10.347,0,0,1,313.666,115.788Z" transform="translate(313.202 17.308)" fill="#f5e181"/>
      <path id="Path_945" data-name="Path 945" d="M306.154,107.593a10.462,10.462,0,1,1-.8-4.006A10.376,10.376,0,0,1,306.154,107.593Z" transform="translate(300.488 3.439)" fill="#f5e181"/>
      <path id="Path_946" data-name="Path 946" d="M297.959,100.081a10.462,10.462,0,1,1-.8-4.006A10.375,10.375,0,0,1,297.959,100.081Z" transform="translate(286.619 -9.275)" fill="#f5e181"/>
      <path id="Path_947" data-name="Path 947" d="M289.186,93.3a10.463,10.463,0,1,1-.8-4.006A10.373,10.373,0,0,1,289.186,93.3Z" transform="translate(271.771 -20.744)" fill="#f5e181"/>
      <path id="Path_948" data-name="Path 948" d="M279.783,87.313a10.461,10.461,0,1,1-.8-4.006A10.439,10.439,0,0,1,279.783,87.313Z" transform="translate(255.857 -30.879)" fill="#f5e181"/>
      <path id="Path_949" data-name="Path 949" d="M269.906,82.167a10.475,10.475,0,1,1-.8-4.006A10.325,10.325,0,0,1,269.906,82.167Z" transform="translate(239.141 -39.593)" fill="#f5e181"/>
      <path id="Path_950" data-name="Path 950" d="M259.662,77.912a10.475,10.475,0,1,1-.8-4.006A10.325,10.325,0,0,1,259.662,77.912Z" transform="translate(221.804 -46.794)" fill="#f5e181"/>
      <path id="Path_951" data-name="Path 951" d="M249.051,74.6a10.462,10.462,0,1,1-.8-4.006A10.388,10.388,0,0,1,249.051,74.6Z" transform="translate(203.846 -52.394)" fill="#f5e181"/>
      <path id="Path_952" data-name="Path 952" d="M238.176,72.183a10.475,10.475,0,1,1-.8-4A10.328,10.328,0,0,1,238.176,72.183Z" transform="translate(185.44 -56.485)" fill="#f5e181"/>
      <path id="Path_953" data-name="Path 953" d="M227.144,70.715a10.475,10.475,0,1,1-.8-4.006A10.325,10.325,0,0,1,227.144,70.715Z" transform="translate(166.77 -58.974)" fill="#f5e181"/>
      <path id="Path_954" data-name="Path 954" d="M495.454,321.918a7.5,7.5,0,1,1,7.5-7.5A7.545,7.545,0,0,1,495.454,321.918Zm4.809,23.9a7.464,7.464,0,1,1-6.082-8.626A7.34,7.34,0,0,1,500.262,345.821Zm-8.2,30.411a7.516,7.516,0,1,1-4.526-9.617A7.447,7.447,0,0,1,492.059,376.232Zm-13.3,28.572a7.447,7.447,0,1,1-2.687-10.185A7.434,7.434,0,0,1,478.763,404.8Zm-18.1,25.742a7.535,7.535,0,1,1-.991-10.608A7.46,7.46,0,0,1,460.66,430.546Zm-22.207,22.2a7.533,7.533,0,1,1,.991-10.608A7.722,7.722,0,0,1,438.452,452.751ZM412.71,470.857a7.448,7.448,0,1,1,2.687-10.186A7.4,7.4,0,0,1,412.71,470.857Zm-28.572,13.3a7.517,7.517,0,1,1,4.526-9.62A7.686,7.686,0,0,1,384.138,484.153Zm-30.408,8.2a7.465,7.465,0,1,1,6.082-8.629A7.417,7.417,0,0,1,353.73,492.356Zm-31.4,2.687a7.5,7.5,0,1,1,7.5-7.5A7.547,7.547,0,0,1,322.328,495.043Zm-22.63-8.769a7.464,7.464,0,1,1-6.082-8.629A7.488,7.488,0,0,1,299.7,486.274Zm-29.56-6.648a7.518,7.518,0,1,1-4.526-9.62A7.451,7.451,0,0,1,270.138,479.627Zm-27.864-11.459a7.448,7.448,0,1,1-2.687-10.183A7.435,7.435,0,0,1,242.274,468.168ZM216.815,451.9a7.534,7.534,0,1,1-.991-10.608A7.461,7.461,0,0,1,216.815,451.9Zm-22.347-20.508a7.535,7.535,0,1,1,.988-10.608A7.472,7.472,0,0,1,194.468,431.395Zm-18.389-23.9a7.448,7.448,0,1,1,2.687-10.185A7.316,7.316,0,0,1,176.078,407.491Zm-13.861-26.876A7.516,7.516,0,1,1,166.744,371,7.564,7.564,0,0,1,162.218,380.615ZM144.4,345.821a7.464,7.464,0,1,1,8.627,6.082A7.411,7.411,0,0,1,144.4,345.821Zm-2.687-31.4a7.5,7.5,0,1,1,7.5,7.5A7.545,7.545,0,0,1,141.71,314.422Zm2.687-31.4a7.464,7.464,0,1,1,14.709,2.544,7.592,7.592,0,0,1-8.627,6.082A7.34,7.34,0,0,1,144.4,283.023Zm8.2-30.411a7.516,7.516,0,1,1,4.526,9.617A7.448,7.448,0,0,1,152.6,252.612Zm13.3-28.572a7.447,7.447,0,1,1,2.687,10.185A7.434,7.434,0,0,1,165.9,224.04ZM184,198.3a7.535,7.535,0,1,1,.991,10.608A7.46,7.46,0,0,1,184,198.3Zm22.207-22.2a7.533,7.533,0,1,1-.991,10.608A7.719,7.719,0,0,1,206.207,176.093Zm25.742-18.107a7.448,7.448,0,1,1-2.687,10.185A7.4,7.4,0,0,1,231.949,157.987Zm28.569-13.3a7.518,7.518,0,1,1-4.526,9.62A7.69,7.69,0,0,1,260.518,144.692Zm30.411-8.2a7.465,7.465,0,1,1-6.082,8.629A7.417,7.417,0,0,1,290.929,136.488Zm31.4-2.687a7.5,7.5,0,1,1-7.5,7.5A7.548,7.548,0,0,1,322.328,133.8Zm22.633,8.769a7.464,7.464,0,1,1,6.082,8.629A7.487,7.487,0,0,1,344.961,142.57Zm29.56,6.648a7.516,7.516,0,1,1,4.526,9.62A7.447,7.447,0,0,1,374.521,149.218Zm27.864,11.459a7.448,7.448,0,1,1,2.687,10.183A7.435,7.435,0,0,1,402.385,160.677Zm25.46,16.265a7.534,7.534,0,1,1,.991,10.608A7.449,7.449,0,0,1,427.844,176.942Zm22.347,20.508a7.535,7.535,0,1,1-.988,10.608A7.472,7.472,0,0,1,450.191,197.45Zm23.9,116.972c0,83.734-68.032,151.767-151.767,151.767S170.562,398.157,170.562,314.422,238.6,162.656,322.328,162.656,474.095,230.688,474.095,314.422Zm-5.514-93.069a7.448,7.448,0,1,1-2.687,10.185A7.316,7.316,0,0,1,468.581,221.353Zm13.861,26.876a7.516,7.516,0,1,1-4.526,9.617A7.559,7.559,0,0,1,482.441,248.229Zm17.821,34.794a7.464,7.464,0,1,1-8.627-6.082A7.486,7.486,0,0,1,500.262,283.023ZM322.328,118.244c-108.2,0-196.178,87.975-196.178,196.178S214.128,510.6,322.328,510.6s196.181-87.975,196.181-196.178S430.531,118.244,322.328,118.244Z" transform="translate(31.274 39.181)" fill="#f5e181"/>
      <rect id="Rectangle_179" data-name="Rectangle 179" width="12.588" height="12.588" transform="translate(344.66 130.713) rotate(-45)" fill="#f5e181"/>
      <rect id="Rectangle_180" data-name="Rectangle 180" width="12.588" height="12.588" transform="translate(333.061 131.499) rotate(-48)" fill="#f5e181"/>
      <rect id="Rectangle_181" data-name="Rectangle 181" width="12.588" height="12.588" transform="matrix(0.629, -0.777, 0.777, 0.629, 321.442, 132.96)" fill="#f5e181"/>
      <rect id="Rectangle_182" data-name="Rectangle 182" width="12.588" height="12.588" transform="matrix(0.588, -0.809, 0.809, 0.588, 309.981, 134.853)" fill="#f5e181"/>
      <rect id="Rectangle_183" data-name="Rectangle 183" width="12.588" height="12.588" transform="translate(298.628 137.43) rotate(-57.003)" fill="#f5e181"/>
      <rect id="Rectangle_184" data-name="Rectangle 184" width="12.588" height="12.588" transform="translate(287.34 140.713) rotate(-59.999)" fill="#f5e181"/>
      <rect id="Rectangle_185" data-name="Rectangle 185" width="12.588" height="12.588" transform="translate(276.331 144.43) rotate(-62.999)" fill="#f5e181"/>
      <rect id="Rectangle_186" data-name="Rectangle 186" width="12.588" height="12.588" transform="matrix(0.407, -0.914, 0.914, 0.407, 265.427, 148.788)" fill="#f5e181"/>
      <rect id="Rectangle_187" data-name="Rectangle 187" width="12.589" height="12.589" transform="matrix(0.358, -0.934, 0.934, 0.358, 254.891, 153.647)" fill="#f5e181"/>
      <rect id="Rectangle_188" data-name="Rectangle 188" width="12.589" height="12.589" transform="translate(244.478 159.121) rotate(-72.002)" fill="#f5e181"/>
      <rect id="Rectangle_189" data-name="Rectangle 189" width="12.588" height="12.588" transform="translate(234.512 165.056) rotate(-75)" fill="#f5e181"/>
      <rect id="Rectangle_190" data-name="Rectangle 190" width="12.588" height="12.588" transform="translate(224.711 171.512) rotate(-78)" fill="#f5e181"/>
      <rect id="Rectangle_191" data-name="Rectangle 191" width="12.588" height="12.588" transform="translate(215.366 178.552) rotate(-81.002)" fill="#f5e181"/>
      <rect id="Rectangle_192" data-name="Rectangle 192" width="12.588" height="12.588" transform="translate(206.45 185.999) rotate(-84.001)" fill="#f5e181"/>
      <rect id="Rectangle_193" data-name="Rectangle 193" width="12.588" height="12.588" transform="matrix(0.052, -0.999, 0.999, 0.052, 197.831, 193.994)" fill="#f5e181"/>
      <rect id="Rectangle_194" data-name="Rectangle 194" width="12.588" height="12.588" transform="translate(189.673 189.673)" fill="#f5e181"/>
      <rect id="Rectangle_195" data-name="Rectangle 195" width="12.588" height="12.588" transform="matrix(0.999, -0.052, 0.052, 0.999, 181.423, 198.49)" fill="#f5e181"/>
      <rect id="Rectangle_196" data-name="Rectangle 196" width="12.588" height="12.588" transform="matrix(0.995, -0.105, 0.105, 0.995, 173.48, 207.766)" fill="#f5e181"/>
      <rect id="Rectangle_197" data-name="Rectangle 197" width="12.588" height="12.588" transform="matrix(0.988, -0.156, 0.156, 0.988, 166.119, 217.334)" fill="#f5e181"/>
      <rect id="Rectangle_198" data-name="Rectangle 198" width="12.588" height="12.588" transform="matrix(0.978, -0.208, 0.208, 0.978, 159.2, 227.328)" fill="#f5e181"/>
      <rect id="Rectangle_199" data-name="Rectangle 199" width="12.588" height="12.588" transform="translate(152.898 237.769) rotate(-14.999)" fill="#f5e181"/>
      <rect id="Rectangle_200" data-name="Rectangle 200" width="12.589" height="12.589" transform="translate(147.148 248.368) rotate(-17.998)" fill="#f5e181"/>
      <rect id="Rectangle_201" data-name="Rectangle 201" width="12.589" height="12.589" transform="matrix(0.934, -0.358, 0.358, 0.934, 141.895, 259.403)" fill="#f5e181"/>
      <rect id="Rectangle_202" data-name="Rectangle 202" width="12.588" height="12.588" transform="translate(137.289 270.547) rotate(-23.999)" fill="#f5e181"/>
      <rect id="Rectangle_203" data-name="Rectangle 203" width="12.588" height="12.588" transform="translate(133.214 282.046) rotate(-27.001)" fill="#f5e181"/>
      <rect id="Rectangle_204" data-name="Rectangle 204" width="12.588" height="12.588" transform="translate(129.812 293.634) rotate(-30.001)" fill="#f5e181"/>
      <rect id="Rectangle_205" data-name="Rectangle 205" width="12.588" height="12.588" transform="translate(126.872 305.484) rotate(-32.997)" fill="#f5e181"/>
      <rect id="Rectangle_206" data-name="Rectangle 206" width="12.588" height="12.588" transform="matrix(0.809, -0.588, 0.588, 0.809, 124.67, 317.381)" fill="#f5e181"/>
      <rect id="Rectangle_207" data-name="Rectangle 207" width="12.588" height="12.588" transform="matrix(0.777, -0.629, 0.629, 0.777, 123.178, 329.364)" fill="#f5e181"/>
      <rect id="Rectangle_208" data-name="Rectangle 208" width="12.588" height="12.588" transform="translate(122.145 341.483) rotate(-42.001)" fill="#f5e181"/>
      <rect id="Rectangle_209" data-name="Rectangle 209" width="12.588" height="12.588" transform="translate(121.812 353.561) rotate(-45)" fill="#f5e181"/>
      <rect id="Rectangle_210" data-name="Rectangle 210" width="12.588" height="12.588" transform="matrix(0.669, -0.743, 0.743, 0.669, 122.154, 365.757)" fill="#f5e181"/>
      <rect id="Rectangle_211" data-name="Rectangle 211" width="12.588" height="12.588" transform="translate(123.13 377.778) rotate(-50.999)" fill="#f5e181"/>
      <rect id="Rectangle_212" data-name="Rectangle 212" width="12.588" height="12.588" transform="translate(124.688 389.922) rotate(-53.999)" fill="#f5e181"/>
      <rect id="Rectangle_213" data-name="Rectangle 213" width="12.588" height="12.588" transform="matrix(0.545, -0.839, 0.839, 0.545, 126.9, 401.822)" fill="#f5e181"/>
      <rect id="Rectangle_214" data-name="Rectangle 214" width="12.588" height="12.588" transform="translate(129.746 413.538) rotate(-59.999)" fill="#f5e181"/>
      <rect id="Rectangle_215" data-name="Rectangle 215" width="12.588" height="12.588" transform="translate(133.161 425.221) rotate(-62.999)" fill="#f5e181"/>
      <rect id="Rectangle_216" data-name="Rectangle 216" width="12.588" height="12.588" transform="translate(137.248 436.599) rotate(-66.001)" fill="#f5e181"/>
      <rect id="Rectangle_217" data-name="Rectangle 217" width="12.589" height="12.589" transform="translate(141.871 447.892) rotate(-68.999)" fill="#f5e181"/>
      <rect id="Rectangle_218" data-name="Rectangle 218" width="12.589" height="12.589" transform="translate(147.195 458.778) rotate(-72.002)" fill="#f5e181"/>
      <rect id="Rectangle_219" data-name="Rectangle 219" width="12.588" height="12.588" transform="matrix(0.259, -0.966, 0.966, 0.259, 152.873, 469.477)" fill="#f5e181"/>
      <rect id="Rectangle_220" data-name="Rectangle 220" width="12.588" height="12.588" transform="translate(159.155 479.834) rotate(-78)" fill="#f5e181"/>
      <rect id="Rectangle_221" data-name="Rectangle 221" width="12.588" height="12.588" transform="translate(166.062 489.776) rotate(-81.002)" fill="#f5e181"/>
      <rect id="Rectangle_222" data-name="Rectangle 222" width="12.588" height="12.588" transform="matrix(0.105, -0.995, 0.995, 0.105, 173.508, 499.451)" fill="#f5e181"/>
      <rect id="Rectangle_223" data-name="Rectangle 223" width="12.588" height="12.588" transform="translate(181.432 508.632) rotate(-87)" fill="#f5e181"/>
      <rect id="Rectangle_224" data-name="Rectangle 224" width="12.588" height="12.588" transform="translate(189.673 504.804)" fill="#f5e181"/>
      <rect id="Rectangle_225" data-name="Rectangle 225" width="12.588" height="12.588" transform="translate(197.84 513.297) rotate(-3)" fill="#f5e181"/>
      <rect id="Rectangle_226" data-name="Rectangle 226" width="12.588" height="12.588" transform="translate(206.478 521.197) rotate(-5.999)" fill="#f5e181"/>
      <rect id="Rectangle_227" data-name="Rectangle 227" width="12.588" height="12.588" transform="translate(215.449 528.728) rotate(-8.998)" fill="#f5e181"/>
      <rect id="Rectangle_228" data-name="Rectangle 228" width="12.588" height="12.588" transform="matrix(0.978, -0.208, 0.208, 0.978, 224.805, 535.709)" fill="#f5e181"/>
      <rect id="Rectangle_229" data-name="Rectangle 229" width="12.588" height="12.588" transform="matrix(0.966, -0.259, 0.259, 0.966, 234.486, 542.11)" fill="#f5e181"/>
      <rect id="Rectangle_230" data-name="Rectangle 230" width="12.589" height="12.589" transform="translate(244.525 548.147) rotate(-17.998)" fill="#f5e181"/>
      <rect id="Rectangle_231" data-name="Rectangle 231" width="12.589" height="12.589" transform="translate(254.867 553.471) rotate(-21.001)" fill="#f5e181"/>
      <rect id="Rectangle_232" data-name="Rectangle 232" width="12.588" height="12.588" transform="translate(265.386 558.479) rotate(-23.999)" fill="#f5e181"/>
      <rect id="Rectangle_233" data-name="Rectangle 233" width="12.588" height="12.588" transform="matrix(0.891, -0.454, 0.454, 0.891, 276.279, 562.716)" fill="#f5e181"/>
      <rect id="Rectangle_234" data-name="Rectangle 234" width="12.588" height="12.588" transform="matrix(0.866, -0.5, 0.5, 0.866, 287.275, 566.527)" fill="#f5e181"/>
      <rect id="Rectangle_235" data-name="Rectangle 235" width="12.588" height="12.588" transform="matrix(0.839, -0.545, 0.545, 0.839, 298.537, 569.755)" fill="#f5e181"/>
      <rect id="Rectangle_236" data-name="Rectangle 236" width="12.588" height="12.588" transform="matrix(0.809, -0.588, 0.588, 0.809, 309.886, 572.34)" fill="#f5e181"/>
      <rect id="Rectangle_237" data-name="Rectangle 237" width="12.588" height="12.588" transform="matrix(0.777, -0.629, 0.629, 0.777, 321.394, 574.312)" fill="#f5e181"/>
      <rect id="Rectangle_238" data-name="Rectangle 238" width="12.588" height="12.588" transform="matrix(0.743, -0.669, 0.669, 0.743, 333.069, 575.673)" fill="#f5e181"/>
      <rect id="Rectangle_239" data-name="Rectangle 239" width="12.588" height="12.588" transform="translate(344.76 576.477) rotate(-45)" fill="#f5e181"/>
      <rect id="Rectangle_240" data-name="Rectangle 240" width="12.588" height="12.588" transform="matrix(0.669, -0.743, 0.743, 0.669, 356.394, 576.596)" fill="#f5e181"/>
      <rect id="Rectangle_241" data-name="Rectangle 241" width="12.588" height="12.588" transform="matrix(0.629, -0.777, 0.777, 0.629, 368.044, 576.22)" fill="#f5e181"/>
      <rect id="Rectangle_242" data-name="Rectangle 242" width="12.588" height="12.588" transform="translate(379.636 575.137) rotate(-53.999)" fill="#f5e181"/>
      <rect id="Rectangle_243" data-name="Rectangle 243" width="12.588" height="12.588" transform="translate(391.16 573.471) rotate(-57.003)" fill="#f5e181"/>
      <rect id="Rectangle_244" data-name="Rectangle 244" width="12.588" height="12.588" transform="matrix(0.5, -0.866, 0.866, 0.5, 402.702, 571.201)" fill="#f5e181"/>
      <rect id="Rectangle_245" data-name="Rectangle 245" width="12.588" height="12.588" transform="translate(414.057 568.27) rotate(-62.999)" fill="#f5e181"/>
      <rect id="Rectangle_246" data-name="Rectangle 246" width="12.588" height="12.588" transform="translate(425.141 564.9) rotate(-66.001)" fill="#f5e181"/>
      <rect id="Rectangle_247" data-name="Rectangle 247" width="12.589" height="12.589" transform="matrix(0.358, -0.934, 0.934, 0.358, 436.164, 560.736)" fill="#f5e181"/>
      <rect id="Rectangle_248" data-name="Rectangle 248" width="12.589" height="12.589" transform="matrix(0.309, -0.951, 0.951, 0.309, 446.758, 556.183)" fill="#f5e181"/>
      <rect id="Rectangle_249" data-name="Rectangle 249" width="12.588" height="12.588" transform="translate(457.344 551.036) rotate(-75.001)" fill="#f5e181"/>
      <rect id="Rectangle_250" data-name="Rectangle 250" width="12.588" height="12.588" transform="translate(467.595 545.341) rotate(-78)" fill="#f5e181"/>
      <rect id="Rectangle_251" data-name="Rectangle 251" width="12.588" height="12.588" transform="translate(477.422 539.132) rotate(-81.002)" fill="#f5e181"/>
      <rect id="Rectangle_252" data-name="Rectangle 252" width="12.588" height="12.588" transform="translate(486.905 532.373) rotate(-84.001)" fill="#f5e181"/>
      <rect id="Rectangle_253" data-name="Rectangle 253" width="12.588" height="12.588" transform="matrix(0.052, -0.999, 0.999, 0.052, 496.053, 525.2)" fill="#f5e181"/>
      <rect id="Rectangle_254" data-name="Rectangle 254" width="12.588" height="12.588" transform="translate(504.804 504.804)" fill="#f5e181"/>
      <rect id="Rectangle_255" data-name="Rectangle 255" width="12.588" height="12.588" transform="matrix(0.999, -0.052, 0.052, 0.999, 512.63, 496.711)" fill="#f5e181"/>
      <rect id="Rectangle_256" data-name="Rectangle 256" width="12.588" height="12.588" transform="translate(519.854 488.22) rotate(-5.999)" fill="#f5e181"/>
      <rect id="Rectangle_257" data-name="Rectangle 257" width="12.588" height="12.588" transform="matrix(0.988, -0.156, 0.156, 0.988, 526.699, 479.39)" fill="#f5e181"/>
      <rect id="Rectangle_258" data-name="Rectangle 258" width="12.588" height="12.588" transform="matrix(0.978, -0.208, 0.208, 0.978, 533.029, 470.212)" fill="#f5e181"/>
      <rect id="Rectangle_259" data-name="Rectangle 259" width="12.588" height="12.588" transform="translate(538.877 460.601) rotate(-14.999)" fill="#f5e181"/>
      <rect id="Rectangle_260" data-name="Rectangle 260" width="12.589" height="12.589" transform="translate(544.21 450.648) rotate(-17.998)" fill="#f5e181"/>
      <rect id="Rectangle_261" data-name="Rectangle 261" width="12.589" height="12.589" transform="matrix(0.934, -0.358, 0.358, 0.934, 548.983, 440.675)" fill="#f5e181"/>
      <rect id="Rectangle_262" data-name="Rectangle 262" width="12.588" height="12.588" transform="matrix(0.914, -0.407, 0.407, 0.914, 553.401, 430.261)" fill="#f5e181"/>
      <rect id="Rectangle_263" data-name="Rectangle 263" width="12.588" height="12.588" transform="translate(557.054 419.772) rotate(-27.001)" fill="#f5e181"/>
      <rect id="Rectangle_264" data-name="Rectangle 264" width="12.588" height="12.588" transform="translate(560.299 408.996) rotate(-30.001)" fill="#f5e181"/>
      <rect id="Rectangle_265" data-name="Rectangle 265" width="12.588" height="12.588" transform="matrix(0.839, -0.545, 0.545, 0.839, 562.913, 398.015)" fill="#f5e181"/>
      <rect id="Rectangle_266" data-name="Rectangle 266" width="12.588" height="12.588" transform="translate(564.953 387.036) rotate(-36.001)" fill="#f5e181"/>
      <rect id="Rectangle_267" data-name="Rectangle 267" width="12.588" height="12.588" transform="matrix(0.777, -0.629, 0.629, 0.777, 566.438, 375.965)" fill="#f5e181"/>
      <rect id="Rectangle_268" data-name="Rectangle 268" width="12.588" height="12.588" transform="translate(567.242 364.817) rotate(-42)" fill="#f5e181"/>
      <rect id="Rectangle_269" data-name="Rectangle 269" width="12.588" height="12.588" transform="translate(567.576 353.661) rotate(-45)" fill="#f5e181"/>
      <rect id="Rectangle_270" data-name="Rectangle 270" width="12.588" height="12.588" transform="matrix(0.669, -0.743, 0.743, 0.669, 567.251, 342.423)" fill="#f5e181"/>
      <rect id="Rectangle_271" data-name="Rectangle 271" width="12.588" height="12.588" transform="matrix(0.629, -0.777, 0.777, 0.629, 566.39, 331.176)" fill="#f5e181"/>
      <rect id="Rectangle_272" data-name="Rectangle 272" width="12.588" height="12.588" transform="translate(564.941 320.07) rotate(-53.999)" fill="#f5e181"/>
      <rect id="Rectangle_273" data-name="Rectangle 273" width="12.588" height="12.588" transform="matrix(0.545, -0.839, 0.839, 0.545, 562.899, 309.095)" fill="#f5e181"/>
      <rect id="Rectangle_274" data-name="Rectangle 274" width="12.588" height="12.588" transform="translate(560.234 298.176) rotate(-59.999)" fill="#f5e181"/>
      <rect id="Rectangle_275" data-name="Rectangle 275" width="12.588" height="12.588" transform="matrix(0.454, -0.891, 0.891, 0.454, 557.001, 287.494)" fill="#f5e181"/>
      <rect id="Rectangle_276" data-name="Rectangle 276" width="12.588" height="12.588" transform="translate(553.36 276.885) rotate(-66.001)" fill="#f5e181"/>
      <rect id="Rectangle_277" data-name="Rectangle 277" width="12.589" height="12.589" transform="translate(548.96 266.62) rotate(-68.999)" fill="#f5e181"/>
      <rect id="Rectangle_278" data-name="Rectangle 278" width="12.589" height="12.589" transform="matrix(0.309, -0.951, 0.951, 0.309, 544.257, 256.498)" fill="#f5e181"/>
      <rect id="Rectangle_279" data-name="Rectangle 279" width="12.588" height="12.588" transform="matrix(0.259, -0.966, 0.966, 0.259, 538.852, 246.645)" fill="#f5e181"/>
      <rect id="Rectangle_280" data-name="Rectangle 280" width="12.588" height="12.588" transform="translate(533.093 237.117) rotate(-78)" fill="#f5e181"/>
      <rect id="Rectangle_281" data-name="Rectangle 281" width="12.588" height="12.588" transform="translate(526.76 227.882) rotate(-81.002)" fill="#f5e181"/>
      <rect id="Rectangle_282" data-name="Rectangle 282" width="12.588" height="12.588" transform="matrix(0.105, -0.995, 0.995, 0.105, 519.882, 218.996)" fill="#f5e181"/>
      <rect id="Rectangle_283" data-name="Rectangle 283" width="12.588" height="12.588" transform="matrix(0.052, -0.999, 0.999, 0.052, 512.639, 210.41)" fill="#f5e181"/>
      <rect id="Rectangle_284" data-name="Rectangle 284" width="12.588" height="12.588" transform="translate(504.804 189.673)" fill="#f5e181"/>
      <rect id="Rectangle_285" data-name="Rectangle 285" width="12.588" height="12.588" transform="matrix(0.999, -0.052, 0.052, 0.999, 496.062, 182.091)" fill="#f5e181"/>
      <rect id="Rectangle_286" data-name="Rectangle 286" width="12.588" height="12.588" transform="translate(486.932 174.823) rotate(-5.999)" fill="#f5e181"/>
      <rect id="Rectangle_287" data-name="Rectangle 287" width="12.588" height="12.588" transform="matrix(0.988, -0.156, 0.156, 0.988, 477.343, 168.031)" fill="#f5e181"/>
      <rect id="Rectangle_288" data-name="Rectangle 288" width="12.588" height="12.588" transform="translate(467.521 161.772) rotate(-12)" fill="#f5e181"/>
      <rect id="Rectangle_289" data-name="Rectangle 289" width="12.588" height="12.588" transform="matrix(0.966, -0.259, 0.259, 0.966, 457.319, 156.13)" fill="#f5e181"/>
      <rect id="Rectangle_290" data-name="Rectangle 290" width="12.589" height="12.589" transform="translate(446.805 151.085) rotate(-17.998)" fill="#f5e181"/>
      <rect id="Rectangle_291" data-name="Rectangle 291" width="12.589" height="12.589" transform="translate(436.14 146.382) rotate(-21.001)" fill="#f5e181"/>
      <rect id="Rectangle_292" data-name="Rectangle 292" width="12.588" height="12.588" transform="translate(425.1 142.367) rotate(-23.999)" fill="#f5e181"/>
      <rect id="Rectangle_293" data-name="Rectangle 293" width="12.588" height="12.588" transform="translate(414.005 138.876) rotate(-27.001)" fill="#f5e181"/>
      <rect id="Rectangle_294" data-name="Rectangle 294" width="12.588" height="12.588" transform="matrix(0.866, -0.5, 0.5, 0.866, 402.637, 136.04)" fill="#f5e181"/>
      <rect id="Rectangle_295" data-name="Rectangle 295" width="12.588" height="12.588" transform="matrix(0.839, -0.545, 0.545, 0.839, 391.264, 133.755)" fill="#f5e181"/>
      <rect id="Rectangle_296" data-name="Rectangle 296" width="12.588" height="12.588" transform="matrix(0.809, -0.588, 0.588, 0.809, 379.738, 132.088)" fill="#f5e181"/>
      <rect id="Rectangle_297" data-name="Rectangle 297" width="12.588" height="12.588" transform="matrix(0.777, -0.629, 0.629, 0.777, 367.996, 131.052)" fill="#f5e181"/>
      <rect id="Rectangle_298" data-name="Rectangle 298" width="12.588" height="12.588" transform="matrix(0.743, -0.669, 0.669, 0.743, 356.403, 130.576)" fill="#f5e181"/>
      <rect id="Rectangle_299" data-name="Rectangle 299" width="12.588" height="12.588" transform="translate(344.66 130.713) rotate(-45)" fill="#f5e181"/>
    </g>
  </g>
</svg>
