<svg id="Layer_2" data-name="Layer 2" xmlns="http://www.w3.org/2000/svg" width="44" height="44" viewBox="0 0 44 44">
  <g id="arrow-forward">
    <rect id="Rectangle_175" data-name="Rectangle 175" width="44" height="44" transform="translate(0 44) rotate(-90)" fill="#fff" opacity="0"/>
    <path id="Path_823" data-name="Path 823" d="M5.846,19.768H27.74l-6.7,8.049a1.848,1.848,0,0,0,2.843,2.363L33.112,19.1a2.2,2.2,0,0,0,.166-.277c0-.092.092-.148.129-.24a1.774,1.774,0,0,0,0-1.329c0-.092-.092-.148-.129-.24a2.2,2.2,0,0,0-.166-.277L23.882,5.665a1.848,1.848,0,1,0-2.843,2.363l6.7,8.049H5.846a1.846,1.846,0,1,0,0,3.692Z" transform="translate(3.384 4.23)" fill="#fff"/>
  </g>
</svg>
