<svg id="instagram" xmlns="http://www.w3.org/2000/svg" width="42.808" height="42.816" viewBox="0 0 42.808 42.816">
  <path id="Path_2" data-name="Path 2" d="M43.148,12.588a15.645,15.645,0,0,0-1-5.194,10.968,10.968,0,0,0-6.265-6.265,15.685,15.685,0,0,0-5.194-1C28.4.025,27.674,0,21.861,0S15.32.025,13.037.126a15.65,15.65,0,0,0-5.194,1A10.447,10.447,0,0,0,4.045,3.6,10.542,10.542,0,0,0,1.578,7.386a15.687,15.687,0,0,0-1,5.194C.474,14.872.449,15.6.449,21.412s.025,6.541.125,8.824a15.644,15.644,0,0,0,1,5.194A10.966,10.966,0,0,0,7.834,41.7a15.688,15.688,0,0,0,5.194,1c2.283.1,3.011.125,8.824.125s6.541-.025,8.824-.125a15.641,15.641,0,0,0,5.194-1,10.952,10.952,0,0,0,6.265-6.265,15.7,15.7,0,0,0,1-5.194c.1-2.283.125-3.011.125-8.824s-.008-6.541-.109-8.824ZM39.292,30.069a11.736,11.736,0,0,1-.736,3.973,7.1,7.1,0,0,1-4.065,4.065,11.777,11.777,0,0,1-3.973.736c-2.258.1-2.936.125-8.648.125s-6.4-.025-8.649-.125a11.73,11.73,0,0,1-3.973-.736,6.588,6.588,0,0,1-2.459-1.6,6.657,6.657,0,0,1-1.6-2.459,11.779,11.779,0,0,1-.736-3.973c-.1-2.258-.125-2.936-.125-8.649s.025-6.4.125-8.648a11.73,11.73,0,0,1,.736-3.973A6.508,6.508,0,0,1,6.8,6.348a6.647,6.647,0,0,1,2.459-1.6,11.785,11.785,0,0,1,3.973-.736c2.258-.1,2.936-.125,8.648-.125s6.4.025,8.649.125a11.736,11.736,0,0,1,3.973.736,6.584,6.584,0,0,1,2.459,1.6,6.655,6.655,0,0,1,1.6,2.459,11.784,11.784,0,0,1,.736,3.973c.1,2.258.125,2.936.125,8.648s-.025,6.382-.125,8.64Zm0,0" transform="translate(-0.449 0)" fill="#fff"/>
  <path id="Path_3" data-name="Path 3" d="M135.948,124.5a11,11,0,1,0,11,11A11,11,0,0,0,135.948,124.5Zm0,18.134a7.135,7.135,0,1,1,7.135-7.135A7.136,7.136,0,0,1,135.948,142.634Zm0,0" transform="translate(-114.536 -114.087)" fill="#fff"/>
  <path id="Path_4" data-name="Path 4" d="M367.586,91.17a2.568,2.568,0,1,1-2.568-2.568A2.568,2.568,0,0,1,367.586,91.17Zm0,0" transform="translate(-332.171 -81.191)" fill="#fff"/>
</svg>
