<svg id="phone-call" xmlns="http://www.w3.org/2000/svg" width="32.888" height="32.958" viewBox="0 0 32.888 32.958">
  <g id="Group_23" data-name="Group 23" transform="translate(0 0)">
    <path id="Path_85" data-name="Path 85" d="M32.565,24.188l-4.6-4.6a3.059,3.059,0,0,0-5.092,1.15,3.13,3.13,0,0,1-3.614,1.971c-3.285-.821-7.72-5.092-8.542-8.542a2.977,2.977,0,0,1,1.971-3.614,3.059,3.059,0,0,0,1.15-5.092L9.24.862A3.281,3.281,0,0,0,4.8.862L1.684,3.983c-3.121,3.285.329,11.991,8.049,19.711s16.426,11.334,19.711,8.049l3.121-3.121A3.281,3.281,0,0,0,32.565,24.188Z" transform="translate(-0.539 0)" fill="#fff"/>
  </g>
</svg>
