<svg xmlns="http://www.w3.org/2000/svg" width="141.956" height="109.143" viewBox="0 0 141.956 109.143">
  <g id="Group_2578" data-name="Group 2578" transform="translate(-4788.417 171.68)">
    <path id="Path_8935" data-name="Path 8935" d="M.013,9.55a9,9,0,0,1,.683-4A9.148,9.148,0,0,1,6.56.338c.273-.067.614-.135.954-.2A6.117,6.117,0,0,1,8.537,0H9.56c.273.067.614.067.955.135a7.608,7.608,0,0,1,3.546,1.558A8.613,8.613,0,0,1,16.38,4.606,7.194,7.194,0,0,1,16.994,6.3a3.994,3.994,0,0,1,.136.881,3.261,3.261,0,0,1,.068.812,6.444,6.444,0,0,1-.887,3.252,5.333,5.333,0,0,1-2.319,2.1c-.2.067-.477.2-.682.271a2.578,2.578,0,0,1-.683.2,10.362,10.362,0,0,1-1.363.136,3.533,3.533,0,0,1-2.456-.881A3.422,3.422,0,0,1,7.787,11.04a3.268,3.268,0,0,1,.341-1.829A2.72,2.72,0,0,1,9.083,8.06a4.041,4.041,0,0,0,.546-.272c.068,0,.2-.067.273-.067a3.459,3.459,0,0,1,.819-.135h.2a2.592,2.592,0,0,1,2.387,2.573,2.654,2.654,0,0,1-2.66,2.642,2.559,2.559,0,0,1-2.523-1.964v.135A2.682,2.682,0,0,0,9.083,12.6a3.011,3.011,0,0,0,2.046.542,6.558,6.558,0,0,0,1.227-.2l.614-.2a2.479,2.479,0,0,0,.614-.271,4.354,4.354,0,0,0,1.841-1.829A7.253,7.253,0,0,0,15.9,9.347a11.022,11.022,0,0,0,.136-1.423,2.789,2.789,0,0,0-.067-.745,2.952,2.952,0,0,0-.137-.678,12.114,12.114,0,0,0-.546-1.423,8.179,8.179,0,0,0-1.977-2.37A5.663,5.663,0,0,0,10.378,1.49a3.356,3.356,0,0,0-.818-.067H8.674c-.341.067-.546.067-.818.135l-.819.2A7.612,7.612,0,0,0,2.127,6.1a7.185,7.185,0,0,0-.614,3.318v.474c0,.136.068.271.068.407l.068.406.136.407A6.208,6.208,0,0,0,2.4,12.665a7.709,7.709,0,0,0,4.978,4,5.872,5.872,0,0,0,1.569.2,14.193,14.193,0,0,0,1.7.068c.682.067,1.364.067,1.977.067l116.387.588c.613,0,1.3,0,1.977-.067a14.21,14.21,0,0,0,1.705-.068,5.869,5.869,0,0,0,1.568-.2,7.612,7.612,0,0,0,4.979-3.928,6.215,6.215,0,0,0,.614-1.558l.136-.406.068-.407c0-.136.068-.271.068-.407V10.07a7.185,7.185,0,0,0-.614-3.318,7.61,7.61,0,0,0-4.91-4.335l-.818-.2c-.273-.067-.477-.067-.818-.135h-.886a3.357,3.357,0,0,0-.819.067,5.672,5.672,0,0,0-2.933,1.219,8.185,8.185,0,0,0-1.977,2.371,12.292,12.292,0,0,0-.546,1.423,2.935,2.935,0,0,0-.136.677,2.75,2.75,0,0,0-.068.745A11.2,11.2,0,0,0,125.741,10a7.148,7.148,0,0,0,.478,1.287,4.341,4.341,0,0,0,1.84,1.829,2.459,2.459,0,0,0,.614.271l.614.2a6.731,6.731,0,0,0,1.227.2,3.017,3.017,0,0,0,2.046-.543,2.679,2.679,0,0,0,.954-1.625v-.136a2.559,2.559,0,0,1-2.523,1.964,2.655,2.655,0,0,1-2.66-2.642,2.592,2.592,0,0,1,2.387-2.573h.2a3.459,3.459,0,0,1,.818.135c.068,0,.2.068.273.068a4.113,4.113,0,0,0,.546.271,2.717,2.717,0,0,1,.954,1.152,3.264,3.264,0,0,1,.341,1.828,3.414,3.414,0,0,1-1.023,2.032,3.528,3.528,0,0,1-2.456.881,10.2,10.2,0,0,1-1.363-.136,2.6,2.6,0,0,1-.683-.2c-.2-.067-.477-.2-.682-.271a5.327,5.327,0,0,1-2.319-2.1,6.44,6.44,0,0,1-.887-3.251,3.266,3.266,0,0,1,.068-.813,3.918,3.918,0,0,1,.137-.88,7.139,7.139,0,0,1,.613-1.693,8.613,8.613,0,0,1,2.319-2.913A7.61,7.61,0,0,1,131.13.791c.34-.068.682-.068.954-.136h1.023a6.025,6.025,0,0,1,1.023.136c.341.067.682.135.954.2A9.148,9.148,0,0,1,140.95,6.21a9.008,9.008,0,0,1,.682,4l-.068.407c0,.135-.068.338-.068.542l-.067.542-.137.474a6.466,6.466,0,0,1-.75,1.9,9.088,9.088,0,0,1-6,4.6,17.3,17.3,0,0,1-1.84.272h-1.024v.135L10.037,18.49v-.135H9.014a17.3,17.3,0,0,1-1.84-.272,9.088,9.088,0,0,1-6-4.6,6.466,6.466,0,0,1-.75-1.9l-.137-.474-.068-.542c0-.2-.067-.407-.067-.542L.013,9.55" transform="matrix(1, -0.017, 0.017, 1, 4788.417, -169.208)" fill="#321108"/>
    <path id="Path_8936" data-name="Path 8936" d="M.013,9.528a9,9,0,0,0,.683,4A9.148,9.148,0,0,0,6.56,18.74c.273.067.614.135.954.2a6.118,6.118,0,0,0,1.023.135H9.56c.273-.067.614-.067.955-.135a7.608,7.608,0,0,0,3.546-1.558,8.612,8.612,0,0,0,2.319-2.913,7.194,7.194,0,0,0,.614-1.692,3.994,3.994,0,0,0,.136-.881,3.261,3.261,0,0,0,.068-.812,6.444,6.444,0,0,0-.887-3.252,5.333,5.333,0,0,0-2.319-2.1c-.2-.067-.477-.2-.682-.271a2.578,2.578,0,0,0-.683-.2,10.363,10.363,0,0,0-1.363-.136,3.533,3.533,0,0,0-2.456.881A3.422,3.422,0,0,0,7.787,8.038a3.268,3.268,0,0,0,.341,1.829,2.72,2.72,0,0,0,.954,1.151,4.042,4.042,0,0,1,.546.272c.068,0,.2.067.273.067a3.459,3.459,0,0,0,.819.135h.2a2.592,2.592,0,0,0,2.387-2.573,2.654,2.654,0,0,0-2.66-2.642A2.559,2.559,0,0,0,8.128,8.241V8.107a2.682,2.682,0,0,1,.954-1.626,3.011,3.011,0,0,1,2.046-.542,6.557,6.557,0,0,1,1.227.2l.614.2a2.479,2.479,0,0,1,.614.271,4.354,4.354,0,0,1,1.841,1.829A7.253,7.253,0,0,1,15.9,9.731a11.021,11.021,0,0,1,.136,1.423,2.789,2.789,0,0,1-.067.745,2.952,2.952,0,0,1-.137.678A12.115,12.115,0,0,1,15.288,14a8.179,8.179,0,0,1-1.977,2.37,5.663,5.663,0,0,1-2.933,1.219,3.357,3.357,0,0,1-.819.067H8.674c-.341-.067-.546-.067-.819-.135l-.819-.2a7.612,7.612,0,0,1-4.91-4.335,7.185,7.185,0,0,1-.614-3.318V9.19c0-.136.068-.271.068-.407l.068-.406.136-.407A6.208,6.208,0,0,1,2.4,6.413a7.709,7.709,0,0,1,4.978-4,5.872,5.872,0,0,1,1.569-.2,14.194,14.194,0,0,1,1.7-.068c.682-.067,1.364-.067,1.977-.067L129.016,1.49c.613,0,1.3,0,1.977.067a14.211,14.211,0,0,1,1.705.068,5.87,5.87,0,0,1,1.568.2,7.612,7.612,0,0,1,4.979,3.928,6.215,6.215,0,0,1,.614,1.558l.136.406.068.407c0,.136.068.271.068.407v.474a7.185,7.185,0,0,1-.614,3.318,7.61,7.61,0,0,1-4.91,4.335l-.818.2c-.273.067-.477.067-.818.135h-.886a3.357,3.357,0,0,1-.819-.067,5.672,5.672,0,0,1-2.933-1.219,8.185,8.185,0,0,1-1.977-2.371,12.294,12.294,0,0,1-.546-1.423,2.936,2.936,0,0,1-.136-.677,2.75,2.75,0,0,1-.068-.745,11.206,11.206,0,0,1,.136-1.423,7.149,7.149,0,0,1,.478-1.287,4.341,4.341,0,0,1,1.84-1.829,2.459,2.459,0,0,1,.614-.271l.614-.2a6.73,6.73,0,0,1,1.227-.2,3.017,3.017,0,0,1,2.046.543,2.679,2.679,0,0,1,.954,1.625v.136a2.559,2.559,0,0,0-2.523-1.964,2.655,2.655,0,0,0-2.66,2.642,2.592,2.592,0,0,0,2.387,2.573h.2a3.459,3.459,0,0,0,.818-.135c.068,0,.2-.068.273-.068a4.109,4.109,0,0,1,.546-.271,2.717,2.717,0,0,0,.954-1.152,3.264,3.264,0,0,0,.341-1.828,3.414,3.414,0,0,0-1.023-2.032,3.528,3.528,0,0,0-2.456-.881,10.193,10.193,0,0,0-1.363.136,2.6,2.6,0,0,0-.683.2c-.2.067-.477.2-.682.271a5.327,5.327,0,0,0-2.319,2.1,6.44,6.44,0,0,0-.887,3.251,3.265,3.265,0,0,0,.068.813,3.918,3.918,0,0,0,.137.88,7.138,7.138,0,0,0,.613,1.693,8.613,8.613,0,0,0,2.319,2.913,7.61,7.61,0,0,0,3.547,1.557c.34.068.682.068.954.136h1.023a6.024,6.024,0,0,0,1.023-.136c.341-.067.682-.135.954-.2a9.148,9.148,0,0,0,5.865-5.216,9.008,9.008,0,0,0,.682-4l-.068-.407c0-.135-.068-.338-.068-.542l-.067-.542-.137-.474a6.466,6.466,0,0,0-.75-1.9,9.088,9.088,0,0,0-6-4.6A17.3,17.3,0,0,0,132.7.135h-1.024V0L10.037.588V.723H9.014a17.3,17.3,0,0,0-1.84.272,9.088,9.088,0,0,0-6,4.6,6.467,6.467,0,0,0-.75,1.9l-.137.474-.068.542c0,.2-.067.407-.067.542l-.137.474" transform="translate(4788.571 -81.615)" fill="#321108"/>
  </g>
</svg>
