<svg xmlns="http://www.w3.org/2000/svg" xmlns:xlink="http://www.w3.org/1999/xlink" width="182.555" height="103.893" viewBox="0 0 182.555 103.893">
  <defs>
    <linearGradient id="linear-gradient" x1="0.5" x2="0.5" y2="1" gradientUnits="objectBoundingBox">
      <stop offset="0" stop-color="#3b1409"/>
      <stop offset="1" stop-color="#290e06"/>
    </linearGradient>
  </defs>
  <g id="Group_2411" data-name="Group 2411" transform="translate(0 0)">
    <path id="Path_789" data-name="Path 789" d="M436.406,313.044q-.036.57-.072,1.141-.071,1.032-.142,2.065-.045.575-.091,1.15-.028.653-.057,1.307-.014.48-.027.96l-.7-.01c-.006-.128-.012-.256-.018-.384l-.042-1.682q-.04-1-.08-1.994-.081-1-.16-2-.032-.75-.064-1.5c.039-.956.1-1.911.1-2.866a2.156,2.156,0,0,0-.27-.71l-.128-.36-.088-1.707q-.026-.945-.052-1.888l-.061-1.145q-.087-1.4-.174-2.8l.051-.765q-.051-.387-.1-.774-.34-5.007-.68-10.014-.184-2.712-.37-5.425l-.19-.747q-.019-.467-.038-.935c-.064-1.326-.109-2.655-.206-3.979a5.787,5.787,0,0,0-.316-1.131l-.053-.52c-.313-1.717-.625-3.434-.964-5.3l2.534.169,1.523.744.2.135.054.031.131.085a.357.357,0,0,0,.138.116l.045.042.6.516.312.43a.238.238,0,0,0,.055.149l1.8,3.805.261.923q.154.856.31,1.713l.137.922c.08,1.62.217,3.239.221,4.859,0,1.271-.157,2.543-.244,3.814l-.063.379-.2.945a.212.212,0,0,0-.011.183q-.133.952-.266,1.9-.011.274-.022.547l-.625,3.6-.07.56q-.021.375-.041.749l-.182,1.117-.1.769q-.007.568-.013,1.136l-.443,3.367-.328,3.415-.1.54-.048.4-.12,1.489-.1.577c-.022.132-.043.264-.065.4Z" transform="translate(-286.301 -223.378)" fill="url(#linear-gradient)"/>
    <path id="Path_790" data-name="Path 790" d="M142.984,311.1l-.818-.479-1.466-.633-2.666-1.2-.193-.061-1.472-.324-.073-.042-1.077-.316-.067-.031a8.994,8.994,0,0,0-5.158-.016c-1.088.352-2.184.683-3.263,1.059a2.525,2.525,0,0,0-1.352,3.71,5.531,5.531,0,0,0,3.032,2.79l.947.521,4.183,1.388,1.8.4,1.866.376,1.374.365.909.44-.537,1.187-.166.2a.279.279,0,0,0-.039.172c-.191.232-.394.457-.572.7-.574.775-1.1,1.588-1.718,2.327a1.681,1.681,0,0,1-2.012.53,25.855,25.855,0,0,0-2.619-.63l-.256-.065-.676-.18-.794-.232-6.977-2.988-1.121-.75-.391-.32-.048-.055-.127-.124-.061-.061-.114-.121-.354-.1-.207-.17v-.017c-.307-.385-.6-.78-.923-1.153a7.7,7.7,0,0,1-1.712-7.273c.408-1.624,1.676-2.588,2.868-3.612a14.708,14.708,0,0,1,10.509-3.48,30.78,30.78,0,0,1,7.347,1.393l2.058.749.54.256,1.939.922,1.26.64a.062.062,0,0,0,.052.083l1.291.77.017.005.372.188v-.005l.2.167.011.009.18.168.019.017.158.128.761.521.153.107.042.036.17.131.048.034.37.28.07.053.881.7a4.1,4.1,0,0,0,.309-1.085c0-.874-.116-1.747-.132-2.622q-.122-6.583-.215-13.165c-.065-4.231-.121-8.462-.2-12.692a5.068,5.068,0,0,0-.237-1.036,4.715,4.715,0,0,0-1.119.329c-2.756,1.623-4.567,4.158-6.5,6.74,1.771.035,3.478-.5,5.043.427v0q.017.564.033,1.127l-.014.032-.376.909a2.545,2.545,0,0,0-.429.352,8.449,8.449,0,0,1-6.933,3.438,3.166,3.166,0,0,1-1.724-2.683,9.051,9.051,0,0,1,1.445-6.049c.925-1.388,1.908-2.737,2.865-4.1l.067-.183a.362.362,0,0,0,.176-.047l.526-.525,1.185-1.108,1.351-1.277,2.454-1.907c.271-.141.551-.267.811-.427a23.4,23.4,0,0,1,1.99-1.238c1.651-.8,2.771-.055,2.818,1.766.1,4,.249,7.993.347,11.99.091,3.732.141,7.464.21,11.2q.1,5.551.212,11.1a4.21,4.21,0,0,0,.177.812l.013.782q.082,3.474.164,6.948-.009.753-.017,1.505l-.355.173-.366-.35c-.877-.906-1.729-1.837-2.64-2.707a18.735,18.735,0,0,0-1.664-1.282l-.016,0-.41-.517-2.255-1.718-.545-.385-.583-.4-.2-.153-.191-.14-.75-.429v0l-.206-.152-.024-.016Z" transform="translate(-107.311 -224.535)" fill="#da2925"/>
    <path id="Path_791" data-name="Path 791" d="M364.635,318.582l-.559-.094-3.4-1.244-.453-.219-.229-.12-.012-.01-1.57-.853-2.037-1.23-.169-.124-.237-.169,0,0-.178-.133-.256-.129-.414-.35-.255-.178.007,0-.219-.155-.007,0-.19-.138-.052-.039-.137-.114-.018-.048-.051-.005-3.1-2.5-.018-.016-.384-.291,0-.049-.042-.027-.143-.136-.459-.415-.108-.084-.271-.3-.126-.149-.02-.019-1.5-1.309-.01-.012-.3-.31-.6-.656-.314-.262-.042.079.037-.081-.177-.173-.071.007.071-.013-.012-2.75.121-.573,1.326-2.636.414-.336.217-.165.548-.2.911.316,1.423,1.395c.993.947,1.935,1.956,2.993,2.823,1.224,1,2.55,1.879,3.833,2.81l-.014-.007,1.557,1.082,0,0,.945.546a.079.079,0,0,0,.1.058l1.056.557a11.617,11.617,0,0,0,5.418,1.794c.327.059.721.264.969.15.9-.414,1.757-.934,2.629-1.414l.595-.516,0-.014.172-.193.21-.156.176-.219.2-.341.339-.432a.1.1,0,0,0,.048-.112,8.034,8.034,0,0,0,.59-.938,17.488,17.488,0,0,0,1.13-8.955,50.508,50.508,0,0,0-2.352-10.816,15.369,15.369,0,0,0-.93-1.972l-.016-.217-.36-1.3,0-.018-.154-.231-.258-.692c-.376-.72-1.1-.917-1.617-.289-.846,1.028-1.553,2.171-2.319,3.266l0,.006-.161.207-.009.012-.139.184-.028.043-.385.89a1.131,1.131,0,0,0-.04,1.451l1.53-1.34.146-.118.237-.171.939-.394.557-.015.364.044,0,0,.216.153.008.006.19.14a2.781,2.781,0,0,1,.477,2.285,5.116,5.116,0,0,1-3.311,3.837l-2.163.1-.677-.266-.8-.421a8.023,8.023,0,0,1-1.084-2.3,10.305,10.305,0,0,1,1.959-6.915l3.024-3.342h-6.682l-.39.015-4.517.149-2.62.028-.254.01-3.314.095-4.264,0a7.1,7.1,0,0,1,1.169-4.145l.612-.6,1.118-.1h.392a2.289,2.289,0,0,0,.53.129q5.459.011,10.917,0a2.808,2.808,0,0,0,.62-.143l.371-.007a2.675,2.675,0,0,0,.616.149q4.476.016,8.952,0a2.756,2.756,0,0,0,.618-.146l.377-.066.936.076,2.271.015.93-.006.215-.005.55-.06,2.261-.058.2.072.37-.006.555.045,1.193.047a2.668,2.668,0,0,1,.334.693c.179,1.121.319,2.249.474,3.374-.207.117-.407.317-.622.336-.641.055-1.289.039-1.933.051H373.01c.562,1.322,1.117,2.638,1.688,3.946.039.088.2.121.307.18l.015.373,1.494,4.531,1.4,7.557c0,.311,0,.622-.01.932-.089,2.645-.119,5.295-.3,7.934a31.756,31.756,0,0,1-.691,3.759L376.5,310.3l-.709,1.837-3.036,4.82,0,0-2.27,1.5-1.673.3-.565.1-.391.028-.57.054-.568-.013Z" transform="translate(-237.169 -225.773)" fill="url(#linear-gradient)"/>
    <path id="Path_792" data-name="Path 792" d="M323.527,322.722l-.472,1.092-.236.452-.014.034a7.024,7.024,0,0,0-.235-.711,3.941,3.941,0,0,0-.325-.513l.325-1.484.237-1.453.232-.451,0-.905q.02-.774.04-1.548.007-1.208.013-2.416-.021-.576-.041-1.152l-.374-2.037a11.719,11.719,0,0,0-3.612-6.932l-.438-.484-.907-.939-.211-.358a4.854,4.854,0,0,0-.4-.5c-1.841-1.769-4.063-3.2-5.048-5.725l-.065-.364-.124-.232.008.011-.207-.957-.254-2.569c.039.116.044.29.124.337.275.162.576.279.867.413a2.5,2.5,0,0,0,.015-.878,5.428,5.428,0,0,0-.606-1l-.36-.409.018-.2a2.565,2.565,0,0,0,.185-.731,11.81,11.81,0,0,0-.2-1.3c.318.155.672.293.544-.288a4.773,4.773,0,0,0-.462-.985q-.376-1.35-.752-2.7-.094-1.7-.189-3.4.05-.459.1-.919c.194.264.371.543.587.787.252.285.538.538.81.806l.3-.2a11.493,11.493,0,0,1-.422-2.053c-.049-1.852,0-3.707.014-5.561l1.094,2.735c.192-1.175.346-2.116.5-3.055l.131-.677.535-1.267.678,1.394.291-.034c.1-.564.181-1.136.321-1.691.243-.965.246-2.212.865-2.805.744-.715,1.1-1.644,1.81-2.322.03-.029.112,0,.13,0l.623,1.293.964-1.746,1.14.173.5.129,1.12-.609.455.883,1.946-.288c-.076.338-.164.813-.295,1.277-.119.423-.659.84.119,1.223.132.065.06.614.023.932a5.706,5.706,0,0,1-.227.85l-.168.5,1.273-.455-3.628,8.021c.53-.355.834-.6,1.172-.774a8.642,8.642,0,0,1,.983-.38l-.085.24-.323.757-2.818,5.6.983-.379-.442,1.38-.015.021-.1.155-.142.3-.188.24.006-.008-.154.227-.36.435-.108.133-.839.328c.665.545,1.49-.025,1.268.963l-.094.214-.083.361-.059.214-.2.537a.054.054,0,0,0-.071.054l-1.318,2.106a4.683,4.683,0,0,0,1.1-.149c.165-.009.346.268.52.416-.765,1.125-1.64,2.214-1.344,3.867l1.055-.832.373.038c-.926,2.525.07,4.823.529,7.184l.057.355.109.255c.384,1.328.749,2.661,1.157,3.981.256.827.577,1.633.868,2.449a.091.091,0,0,0,.032.118l.064.541.548,1.9h0a24.878,24.878,0,0,1,.5,6.584l-.434,1.552Z" transform="translate(-217.351 -220.407)" fill="url(#linear-gradient)"/>
    <path id="Path_793" data-name="Path 793" d="M456.8,312.7l-2.635,1.16a2.619,2.619,0,0,1-2.453-.792c-.736-1.738-.41-3.5-.107-5.257.216-1.258.5-2.506.749-3.758l.119-.215q1.1-2.552,2.195-5.1l.655-1.1h0l.746-.747a18.5,18.5,0,0,1,2.844.814c1.528.7,2.981,1.571,4.465,2.37l.412.306a.138.138,0,0,0,.148.074l3.273,2.8.728.752v-1.494q.037-1.172.074-2.345l.01-.241.041-.022.037-.227.02-.2q.142-1.988.285-3.976.013-.354.025-.707l.006-.231q.053-1.381.106-2.761l.007-.294.012-.625q.1-.99.21-1.979l.018-.346.013-.205q0-.461,0-.922l.009-.211.064-.742c.078-1.2.173-2.408.211-3.613,0-.155-.283-.442-.452-.455a7.514,7.514,0,0,0-1.276.1l-1.122.021-2.638,0-1.149.009-1.1.025-.782-.005-4.682.019c-1.84-.019-3.681-.029-5.521-.066a7.04,7.04,0,0,1-1.08-.186l-.382-.964-.409-1.126-.847-2.719,1.25-.194,1.651.01c1.25.033,2.5.1,3.749.094,2.41-.007,4.82-.052,7.23-.082l1.118,0c.435.029.87.082,1.305.083,4.421.005,8.842,0,13.263.008.385,0,.961-.217.9.551l-.15.252-.256.481v0l-.128.223-.011.018-.127.183-1.754,3-.432.44a2.942,2.942,0,0,0-.368-.068c-1.269-.08-1.26-.079-1.26,1.208q0,18.329-.007,36.657c0,.157-.017.313-.026.47l-.576-.019-1.1-.448.011.011-.234-.122-.029-.012-.492-.282c-.269-.209-.536-.421-.808-.626-1.322-1-2.328-2.106-2.128-3.982a7.946,7.946,0,0,0-1.766-5.706l-.22-.4-.123-.155v-.076l-.074.01-.257-.31-.141-.15-.023-.021-2.009-1.934,0,0-2.476-1.864a.1.1,0,0,0-.112-.036l-1.591-1.078-.061-.039h-.072l-.267-.118-.019-.014-.706-.422-1.047-.62c-.229.506-.448.933-.62,1.379-.566,1.469.456,2.439,1.126,3.519l.2.439.345,1.279q0,.715,0,1.429l-1.176,1.983.011,0-.269.183-.056,0Z" transform="translate(-295.561 -226.971)" fill="url(#linear-gradient)"/>
    <path id="Path_794" data-name="Path 794" d="M96.743,164.969l2.1-2.75,0-.009.212-.166,3.375-2.013c.632.041.464.469.407.843l-.064.044-.616.366a.365.365,0,0,0-.118.069l-.111.1a.336.336,0,0,0-.076.076l-.112.106a.253.253,0,0,0-.075.071l-.116.118a.36.36,0,0,0-.083.086l-.083.005-.017.081-.289.286L101,162.3v.079a.494.494,0,0,0-.093.1l-.1.1a.568.568,0,0,0-.094.1l-.079,0,0,.079a.515.515,0,0,0-.1.095l-.1.1a.667.667,0,0,0-.1.106h-.071l0,.071a.708.708,0,0,0-.106.112l-.072.086a.834.834,0,0,0-.083.138c-.89-.025-.734.678-.835,1.2a.64.64,0,0,0-.112.131c-.166.021-.447-.006-.481.073-.423.98-.852,1.962-1.192,2.972a14.019,14.019,0,0,0-.37,1.883.324.324,0,0,0-.052.1l-.31,1.588c-.128,1.731-.31,3.46-.371,5.193a8.208,8.208,0,0,0,2.319,6.481,15.8,15.8,0,0,0,5.625,3.606l.452.195.043.023.133.061.191.106a6.373,6.373,0,0,0,1.024.541c2.048.654,4.091,1.33,6.164,1.894,1.677.456,3.394.765,5.094,1.138l.584.17c1.719.4,3.436.8,5.159,1.184.971.214,1.951.384,2.927.574q2.169.559,4.338,1.118c3.944,1.012,7.907,2,11.4,4.207,3.386,2.143,4.024,4.928,2,8.436-.467.809-1.092,1.525-1.612,2.306-.41.615-.859.6-1.424.229-.914-.594-1.849-1.156-2.754-1.718.251-.866.545-1.684.721-2.526a3.137,3.137,0,0,0-1.892-3.49,35.073,35.073,0,0,0-3.431-.807c-2.189-.315-4.382-.61-6.568-.948-2.066-.32-4.124-.689-6.186-1.029-1.407-.232-2.815-.453-4.223-.679a4.652,4.652,0,0,0-.791-.43c-1.965-.63-3.94-1.227-5.905-1.857-1.1-.351-2.176-.744-3.264-1.119l-.022-.026-.172-.159-.026-.022-.166-.127-.367-.073-.211-.131-.037-.018-.313-.172c-1.695-1.046-3.417-2.049-5.073-3.153-.951-.634-1.794-1.431-2.685-2.154l-.186-.2-.186-.213a6.851,6.851,0,0,0-.37-.626c-2.471-3.344-3.847-6.963-2.907-11.2a3.649,3.649,0,0,0-.124-1.144l.191-.8c.076-.507.119-1.022.234-1.52A25.485,25.485,0,0,1,96.743,164.969Z" transform="translate(-93.373 -160.031)" fill="#da2925"/>
    <path id="Path_795" data-name="Path 795" d="M204.207,280.623c0-1.094.065-2.193-.012-3.281-.067-.933.2-1.23,1.181-1.223,6.361.046,12.723.025,19.085.019.4,0,.805-.059,1.208-.091l9.19.033.21-.012.912-.025,9.1.017,1.876.013,3.383.024c.656.125.444.59.323.945-.349,1.021-.745,2.026-1.122,3.037l-.325.538-.386.05-3.386.017-2.631.073-.4-.085c-.077-.05-.153-.144-.23-.145-2.664-.017-5.328-.036-7.992-.01-.2,0-.4.343-.606.527l.337.551c.074.1.128.228.226.29q2.8,1.762,5.612,3.509l.249.117,2.343,2.187.063-.046-.06.051.827.847.382.4.355.4-.008-.01.783.863.889.9.918,1.475,1.77,2.807c.152.34.3.681.457,1.02.964,2.109,1.119,4.152-.494,6.051l.006.034-.27.2-1.775.794c-.58.016-1.159.047-1.739.045-1.037,0-2.118.193-3-.593q-.122-.4-.243-.8l.03-.367.346-.563.871-1.266c.683-.589,1.385-1.16,2.036-1.782a.776.776,0,0,0,.111-.681c-.193-.522-.471-1.012-.715-1.515l-.168-.19-1.072-1.957-2.083-2.627-.2-.2c-.24-1.136-1.263-1.493-2.064-2.07l-.448-.521a4.116,4.116,0,0,0-3.408-1.746,1.123,1.123,0,0,0-.047.265q.3,4.773.619,9.545a1.519,1.519,0,0,0,.165.423l.031.556.355,5.642.055.565.171,2.3.023-.016q0,.569,0,1.137c-.019.015-.058.038-.055.046a.865.865,0,0,0,.061.119c.265,4.025.494,8.053.817,12.074a2.067,2.067,0,0,1-1.274,2.447,5.862,5.862,0,0,1-3.341.861c-.513-.057-.742-.249-.765-.823-.088-2.154-.214-4.308-.4-6.455a1.463,1.463,0,0,0-.69-.919,5.213,5.213,0,0,0-1.324-.39h0l-.2.006-1.882-.757-2.04-.772-.865-.337-.1-.044-.673-.265-.491-.2-.3-.112-.243-.132-4.787-1.953-3.08-1.5-.238-.114-.051-.027-.71-.4-.19-.09a.066.066,0,0,0-.081-.047l-2.371-1.33-.027-.015c-.234-.2-.461-.4-.7-.584-1.068-.805-2.13-1.619-3.217-2.4-.555-.4-.523-.768-.1-1.23.507-.551,1.013-1.107,1.472-1.7.643-.825,1.242-1.684,1.86-2.53l.919-.994.915-1.148a.13.13,0,0,0,.036-.124l.589-.376.271-.254.107-.173,3.144-3.578.042-.046.079-.034,0-.083.276-.413.624-.638,1.638-1.793.018-.019.164-.181.939-1.031.142-.12,2.879-3.271.113-.125a.112.112,0,0,0,.077-.084l.076-.006,0-.072.316-.413,1.556-1.612-.137-.214h-4.075l-.75.01-.373,0c-2.355.032-4.71.08-7.064.092-2.663.013-5.326-.006-7.989-.011Zm23.873.971-3.755,4.343-4.545,5.1-1.8,2.05c-.884.923-1.792,1.824-2.646,2.774-1.292,1.436-2.547,2.907-3.915,4.475a15.226,15.226,0,0,0,1.771,1.19c2.166,1.047,4.344,2.073,6.547,3.039,1.311.575,2.678,1.022,4.02,1.526l.4.2.157.113,6.7,2c-.121-3.962-.234-7.648-.346-11.334l-.01-.2-.128-1.486,0-.595-.036-.918q-.062-1.521-.125-3.043-.038-1.874-.076-3.747l-.025-.374c-.033-1.718-.062-3.436-.1-5.154-.018-.858-.488-1.184-1.266-.8C228.575,280.921,228.352,281.308,228.08,281.594Z" transform="translate(-156.615 -226.24)" fill="url(#linear-gradient)"/>
    <path id="Path_796" data-name="Path 796" d="M438.7,270.093l-3.671-1.882-1.892-.773.024-.147,5.16-.21.394-.024.334.071c0,.771.027,1.542-.014,2.311C439.024,269.663,438.818,269.876,438.7,270.093Z" transform="translate(-287.282 -221.112)" fill="url(#linear-gradient)"/>
  </g>
</svg>
